%TF.GenerationSoftware,KiCad,Pcbnew,10.0.6*%
%TF.CreationDate,2026-09-08T16:28:22-03:00*%
%TF.ProjectId,PCB Sensores,50434220-5365-46e7-936f-7265732e6b69,rev?*%
%TF.SameCoordinates,Original*%
%TF.FileFunction,Copper,L2,Bot*%
%TF.FilePolarity,Positive*%
%FSLAX46Y46*%
G04 Gerber Fmt 4.6, Leading zero omitted, Abs format (unit mm)*
G04 Created by KiCad (PCBNEW 10.0.6) date 2026-09-08 16:28:22*
%MOMM*%
%LPD*%
G01*
G04 APERTURE LIST*
%TA.AperFunction,ComponentPad*%
%ADD10R,1.700000X1.700000*%
%TD*%
%TA.AperFunction,ComponentPad*%
%ADD11C,1.700000*%
%TD*%
%TA.AperFunction,ComponentPad*%
%ADD12C,1.600000*%
%TD*%
%TA.AperFunction,ViaPad*%
%ADD13C,2.000000*%
%TD*%
%TA.AperFunction,Conductor*%
%ADD14C,0.760000*%
%TD*%
%TA.AperFunction,Conductor*%
%ADD15C,0.762000*%
%TD*%
G04 APERTURE END LIST*
D10*
%TO.P,Sensor_7,1,Pin_1_1*%
%TO.N,LED_7*%
X100304600Y-70002400D03*
D11*
%TO.P,Sensor_7,2,Pin_2_2*%
%TO.N,VIN*%
X102844600Y-70002400D03*
%TO.P,Sensor_7,3,Pin_3_3*%
%TO.N,GND*%
X105384600Y-70002400D03*
%TO.P,Sensor_7,4,Pin_4_4*%
%TO.N,SCL*%
X107924600Y-70002400D03*
%TO.P,Sensor_7,5,Pin_5_5*%
%TO.N,SDA_7*%
X110464600Y-70002400D03*
%TD*%
D10*
%TO.P,Sensor_4,1,Pin_1_1*%
%TO.N,LED_4*%
X100304600Y-99415600D03*
D11*
%TO.P,Sensor_4,2,Pin_2_2*%
%TO.N,VIN*%
X102844600Y-99415600D03*
%TO.P,Sensor_4,3,Pin_3_3*%
%TO.N,GND*%
X105384600Y-99415600D03*
%TO.P,Sensor_4,4,Pin_4_4*%
%TO.N,SCL*%
X107924600Y-99415600D03*
%TO.P,Sensor_4,5,Pin_5_5*%
%TO.N,SDA_4*%
X110464600Y-99415600D03*
%TD*%
D10*
%TO.P,Sensor_1,1,Pin_1_1*%
%TO.N,LED_1*%
X100304600Y-128828800D03*
D11*
%TO.P,Sensor_1,2,Pin_2_2*%
%TO.N,VIN*%
X102844600Y-128828800D03*
%TO.P,Sensor_1,3,Pin_3_3*%
%TO.N,GND*%
X105384600Y-128828800D03*
%TO.P,Sensor_1,4,Pin_4_4*%
%TO.N,SCL*%
X107924600Y-128828800D03*
%TO.P,Sensor_1,5,Pin_5_5*%
%TO.N,SDA_1*%
X110464600Y-128828800D03*
%TD*%
D10*
%TO.P,Arduino_1,1,Pin_1_1*%
%TO.N,Net-(Arduino_1-Pin_1)*%
X151739600Y-97866200D03*
D11*
%TO.P,Arduino_1,2,Pin_2_2*%
%TO.N,Net-(Arduino_1-Pin_2)*%
X151739600Y-95326200D03*
%TO.P,Arduino_1,3,Pin_3_3*%
%TO.N,Net-(Arduino_1-Pin_3)*%
X151739600Y-92786200D03*
%TO.P,Arduino_1,4,Pin_4_4*%
%TO.N,Net-(Arduino_1-Pin_4)*%
X151739600Y-90246200D03*
%TO.P,Arduino_1,5,Pin_5_5*%
%TO.N,SDA*%
X151739600Y-87706200D03*
%TO.P,Arduino_1,6,Pin_6_6*%
%TO.N,SCL*%
X151739600Y-85166200D03*
%TD*%
D10*
%TO.P,Sensor_9,1,Pin_1_1*%
%TO.N,LED_9*%
X113690400Y-52095400D03*
D11*
%TO.P,Sensor_9,2,Pin_2_2*%
%TO.N,VIN*%
X113690400Y-54635400D03*
%TO.P,Sensor_9,3,Pin_3_3*%
%TO.N,GND*%
X113690400Y-57175400D03*
%TO.P,Sensor_9,4,Pin_4_4*%
%TO.N,SCL*%
X113690400Y-59715400D03*
%TO.P,Sensor_9,5,Pin_5_5*%
%TO.N,SDA_9*%
X113690400Y-62255400D03*
%TD*%
D12*
%TO.P,R1,1*%
%TO.N,VIN*%
X138500000Y-69190000D03*
%TO.P,R1,2*%
%TO.N,SCL*%
X138500000Y-76810000D03*
%TD*%
D10*
%TO.P,Sensor_2,1,Pin_1_1*%
%TO.N,LED_2*%
X100304600Y-119024400D03*
D11*
%TO.P,Sensor_2,2,Pin_2_2*%
%TO.N,VIN*%
X102844600Y-119024400D03*
%TO.P,Sensor_2,3,Pin_3_3*%
%TO.N,GND*%
X105384600Y-119024400D03*
%TO.P,Sensor_2,4,Pin_4_4*%
%TO.N,SCL*%
X107924600Y-119024400D03*
%TO.P,Sensor_2,5,Pin_5_5*%
%TO.N,SDA_2*%
X110464600Y-119024400D03*
%TD*%
%TO.P,U1,JP1-1,C0_JP1-1*%
%TO.N,SDA_1*%
X123571000Y-118618000D03*
%TO.P,U1,JP1-2,C1_JP1-2*%
%TO.N,SDA_2*%
X123571000Y-116078000D03*
%TO.P,U1,JP1-3,C2_JP1-3*%
%TO.N,SDA_3*%
X123571000Y-113538000D03*
%TO.P,U1,JP1-4,C3_JP1-4*%
%TO.N,SDA_4*%
X123571000Y-110998000D03*
%TO.P,U1,JP1-5,C4_JP1-5*%
%TO.N,SDA_5*%
X123571000Y-108458000D03*
%TO.P,U1,JP1-6,C5_JP1-6*%
%TO.N,SDA_6*%
X123571000Y-105918000D03*
%TO.P,U1,JP1-7,C6_JP1-7*%
%TO.N,SDA_7*%
X123571000Y-103378000D03*
%TO.P,U1,JP1-8,C7_JP1-8*%
%TO.N,SDA_8*%
X123571000Y-100838000D03*
%TO.P,U1,JP1-9,C8_JP1-9*%
%TO.N,SDA_9*%
X123571000Y-98298000D03*
%TO.P,U1,JP1-10,C9_JP1-10*%
%TO.N,SDA_10*%
X123571000Y-95758000D03*
%TO.P,U1,JP1-11,C10_JP1-11*%
%TO.N,SDA_11*%
X123571000Y-93218000D03*
%TO.P,U1,JP1-12,C11_JP1-12*%
%TO.N,SDA_12*%
X123571000Y-90678000D03*
%TO.P,U1,JP1-13,C12_JP1-13*%
%TO.N,unconnected-(U1-C12-PadJP1-13)*%
X123571000Y-88138000D03*
%TO.P,U1,JP1-14,C13_JP1-14*%
%TO.N,unconnected-(U1-C13-PadJP1-14)*%
X123571000Y-85598000D03*
%TO.P,U1,JP1-15,C14_JP1-15*%
%TO.N,unconnected-(U1-C14-PadJP1-15)*%
X123571000Y-83058000D03*
%TO.P,U1,JP1-16,C15_JP1-16*%
%TO.N,unconnected-(U1-C15-PadJP1-16)*%
X123571000Y-80518000D03*
D10*
%TO.P,U1,JP3-1,GND_JP3-1*%
%TO.N,GND*%
X138811000Y-108458000D03*
D11*
%TO.P,U1,JP3-2,VCC_JP3-2*%
%TO.N,VIN*%
X138811000Y-105918000D03*
%TO.P,U1,JP3-3,EN_JP3-3*%
%TO.N,GND*%
X138811000Y-103378000D03*
%TO.P,U1,JP3-4,S0_JP3-4*%
%TO.N,Net-(Arduino_1-Pin_1)*%
X138811000Y-100838000D03*
%TO.P,U1,JP3-5,S1_JP3-5*%
%TO.N,Net-(Arduino_1-Pin_2)*%
X138811000Y-98298000D03*
%TO.P,U1,JP3-6,S2_JP3-6*%
%TO.N,Net-(Arduino_1-Pin_3)*%
X138811000Y-95758000D03*
%TO.P,U1,JP3-7,S3_JP3-7*%
%TO.N,Net-(Arduino_1-Pin_4)*%
X138811000Y-93218000D03*
%TO.P,U1,JP3-8,COM_JP3-8*%
%TO.N,SDA*%
X138811000Y-90678000D03*
%TD*%
D10*
%TO.P,JArduino_4,1,Pin_1_1*%
%TO.N,LED_9*%
X151485600Y-48209200D03*
D11*
%TO.P,JArduino_4,2,Pin_2_2*%
%TO.N,LED_10*%
X151485600Y-50749200D03*
%TO.P,JArduino_4,3,Pin_3_3*%
%TO.N,LED_11*%
X151485600Y-53289200D03*
%TO.P,JArduino_4,4,Pin_4_4*%
%TO.N,LED_12*%
X151485600Y-55829200D03*
%TD*%
D10*
%TO.P,Sensor_3,1,Pin_1_1*%
%TO.N,LED_3*%
X100304600Y-109220000D03*
D11*
%TO.P,Sensor_3,2,Pin_2_2*%
%TO.N,VIN*%
X102844600Y-109220000D03*
%TO.P,Sensor_3,3,Pin_3_3*%
%TO.N,GND*%
X105384600Y-109220000D03*
%TO.P,Sensor_3,4,Pin_4_4*%
%TO.N,SCL*%
X107924600Y-109220000D03*
%TO.P,Sensor_3,5,Pin_5_5*%
%TO.N,SDA_3*%
X110464600Y-109220000D03*
%TD*%
D12*
%TO.P,R2,1*%
%TO.N,VIN*%
X156500000Y-95310000D03*
%TO.P,R2,2*%
%TO.N,SDA*%
X156500000Y-87690000D03*
%TD*%
D10*
%TO.P,Sensor_12,1,Pin_1_1*%
%TO.N,LED_12*%
X143103600Y-52095400D03*
D11*
%TO.P,Sensor_12,2,Pin_2_2*%
%TO.N,VIN*%
X143103600Y-54635400D03*
%TO.P,Sensor_12,3,Pin_3_3*%
%TO.N,GND*%
X143103600Y-57175400D03*
%TO.P,Sensor_12,4,Pin_4_4*%
%TO.N,SCL*%
X143103600Y-59715400D03*
%TO.P,Sensor_12,5,Pin_5_5*%
%TO.N,SDA_12*%
X143103600Y-62255400D03*
%TD*%
D10*
%TO.P,Sensor_11,1,Pin_1_1*%
%TO.N,LED_11*%
X133299200Y-52095400D03*
D11*
%TO.P,Sensor_11,2,Pin_2_2*%
%TO.N,VIN*%
X133299200Y-54635400D03*
%TO.P,Sensor_11,3,Pin_3_3*%
%TO.N,GND*%
X133299200Y-57175400D03*
%TO.P,Sensor_11,4,Pin_4_4*%
%TO.N,SCL*%
X133299200Y-59715400D03*
%TO.P,Sensor_11,5,Pin_5_5*%
%TO.N,SDA_11*%
X133299200Y-62255400D03*
%TD*%
D10*
%TO.P,Sensor_5,1,Pin_1_1*%
%TO.N,LED_5*%
X100304600Y-89611200D03*
D11*
%TO.P,Sensor_5,2,Pin_2_2*%
%TO.N,VIN*%
X102844600Y-89611200D03*
%TO.P,Sensor_5,3,Pin_3_3*%
%TO.N,GND*%
X105384600Y-89611200D03*
%TO.P,Sensor_5,4,Pin_4_4*%
%TO.N,SCL*%
X107924600Y-89611200D03*
%TO.P,Sensor_5,5,Pin_5_5*%
%TO.N,SDA_5*%
X110464600Y-89611200D03*
%TD*%
D10*
%TO.P,Sensor_6,1,Pin_1_1*%
%TO.N,LED_6*%
X100304600Y-79806800D03*
D11*
%TO.P,Sensor_6,2,Pin_2_2*%
%TO.N,VIN*%
X102844600Y-79806800D03*
%TO.P,Sensor_6,3,Pin_3_3*%
%TO.N,GND*%
X105384600Y-79806800D03*
%TO.P,Sensor_6,4,Pin_4_4*%
%TO.N,SCL*%
X107924600Y-79806800D03*
%TO.P,Sensor_6,5,Pin_5_5*%
%TO.N,SDA_6*%
X110464600Y-79806800D03*
%TD*%
D10*
%TO.P,Arduino_2,1,Pin_1_1*%
%TO.N,LED_1*%
X151638000Y-123875800D03*
D11*
%TO.P,Arduino_2,2,Pin_2_2*%
%TO.N,LED_2*%
X151638000Y-121335800D03*
%TO.P,Arduino_2,3,Pin_3_3*%
%TO.N,LED_3*%
X151638000Y-118795800D03*
%TO.P,Arduino_2,4,Pin_4_4*%
%TO.N,LED_4*%
X151638000Y-116255800D03*
%TD*%
D10*
%TO.P,Alimenta\u00E7\u00E3o2,1,Pin_1_1*%
%TO.N,GND*%
X151500000Y-64200000D03*
D11*
%TO.P,Alimenta\u00E7\u00E3o2,2,Pin_2_2*%
%TO.N,VIN*%
X151500000Y-61660000D03*
%TD*%
D10*
%TO.P,Alimenta\u00E7\u00E3o1,1,Pin_1_1*%
%TO.N,GND*%
X151638000Y-108432600D03*
D11*
%TO.P,Alimenta\u00E7\u00E3o1,2,Pin_2_2*%
%TO.N,VIN*%
X151638000Y-105892600D03*
%TD*%
D10*
%TO.P,Sensor_10,1,Pin_1_1*%
%TO.N,LED_10*%
X123494800Y-52095400D03*
D11*
%TO.P,Sensor_10,2,Pin_2_2*%
%TO.N,VIN*%
X123494800Y-54635400D03*
%TO.P,Sensor_10,3,Pin_3_3*%
%TO.N,GND*%
X123494800Y-57175400D03*
%TO.P,Sensor_10,4,Pin_4_4*%
%TO.N,SCL*%
X123494800Y-59715400D03*
%TO.P,Sensor_10,5,Pin_5_5*%
%TO.N,SDA_10*%
X123494800Y-62255400D03*
%TD*%
D10*
%TO.P,Sensor_8,1,Pin_1_1*%
%TO.N,LED_8*%
X103886000Y-52095400D03*
D11*
%TO.P,Sensor_8,2,Pin_2_2*%
%TO.N,VIN*%
X103886000Y-54635400D03*
%TO.P,Sensor_8,3,Pin_3_3*%
%TO.N,GND*%
X103886000Y-57175400D03*
%TO.P,Sensor_8,4,Pin_4_4*%
%TO.N,SCL*%
X103886000Y-59715400D03*
%TO.P,Sensor_8,5,Pin_5_5*%
%TO.N,SDA_8*%
X103886000Y-62255400D03*
%TD*%
D10*
%TO.P,Arduino_3,1,Pin_1_1*%
%TO.N,LED_5*%
X151638000Y-76885800D03*
D11*
%TO.P,Arduino_3,2,Pin_2_2*%
%TO.N,LED_6*%
X151638000Y-74345800D03*
%TO.P,Arduino_3,3,Pin_3_3*%
%TO.N,LED_7*%
X151638000Y-71805800D03*
%TO.P,Arduino_3,4,Pin_4_4*%
%TO.N,LED_8*%
X151638000Y-69265800D03*
%TD*%
D13*
%TO.N,VIN*%
X143000000Y-69000000D03*
X145084800Y-108534200D03*
X146354800Y-54279800D03*
X100253800Y-54635400D03*
X102844600Y-132000000D03*
X96570800Y-66000000D03*
%TD*%
%TO.N,VIN*%
D14*
X143000000Y-69000000D02*
X142810000Y-69190000D01*
X142810000Y-69190000D02*
X138500000Y-69190000D01*
%TO.N,LED_7*%
D15*
X102812707Y-44175400D02*
X92000000Y-54988107D01*
X95002400Y-70002400D02*
X100304600Y-70002400D01*
X156129000Y-67314800D02*
X156129000Y-46118305D01*
X156129000Y-46118305D02*
X154186094Y-44175400D01*
X92000000Y-54988107D02*
X92000000Y-67000000D01*
X154186094Y-44175400D02*
X102812707Y-44175400D01*
X92000000Y-67000000D02*
X95002400Y-70002400D01*
X151638000Y-71805800D02*
X156129000Y-67314800D01*
%TO.N,VIN*%
D14*
X97129600Y-67665600D02*
X101709881Y-67665600D01*
X133299200Y-54635400D02*
X143103600Y-54635400D01*
X146354800Y-54279800D02*
X146354800Y-54354800D01*
X101709881Y-67665600D02*
X102844600Y-68800319D01*
X96570800Y-67106800D02*
X97129600Y-67665600D01*
X102844600Y-99415600D02*
X102844600Y-89611200D01*
X96570800Y-66000000D02*
X96570800Y-67106800D01*
X138811000Y-105918000D02*
X147574000Y-105918000D01*
X156500000Y-101030600D02*
X151638000Y-105892600D01*
X102844600Y-109220000D02*
X102844600Y-99415600D01*
X102844600Y-128828800D02*
X102844600Y-119024400D01*
X102844600Y-119024400D02*
X102844600Y-109220000D01*
X156500000Y-95310000D02*
X156500000Y-101030600D01*
X147574000Y-105918000D02*
X151612600Y-105918000D01*
X146354800Y-54354800D02*
X151500000Y-59500000D01*
X113690400Y-54635400D02*
X123494800Y-54635400D01*
X123494800Y-54635400D02*
X133299200Y-54635400D01*
X103886000Y-54635400D02*
X113690400Y-54635400D01*
X102844600Y-132000000D02*
X102844600Y-128828800D01*
X100253800Y-54635400D02*
X103886000Y-54635400D01*
X146126200Y-54508400D02*
X143230600Y-54508400D01*
X151612600Y-105918000D02*
X151638000Y-105892600D01*
X143230600Y-54508400D02*
X143103600Y-54635400D01*
X102844600Y-79806800D02*
X102844600Y-70002400D01*
X146354800Y-54279800D02*
X146126200Y-54508400D01*
X102844600Y-89611200D02*
X102844600Y-79806800D01*
X102844600Y-68800319D02*
X102844600Y-70002400D01*
X151500000Y-59500000D02*
X151500000Y-61660000D01*
%TO.N,SCL*%
X102000000Y-60000000D02*
X100500000Y-61500000D01*
X113690400Y-59715400D02*
X113975000Y-60000000D01*
X100500000Y-63500000D02*
X101500000Y-64500000D01*
X143103600Y-59715400D02*
X142819000Y-60000000D01*
X123210200Y-60000000D02*
X123494800Y-59715400D01*
D15*
X145000000Y-83500000D02*
X145000000Y-79500000D01*
X137833800Y-85166200D02*
X133500000Y-89500000D01*
D14*
X145000000Y-61611800D02*
X145000000Y-78426600D01*
X107924600Y-99415600D02*
X108000000Y-99340200D01*
X108000000Y-89535800D02*
X108000000Y-79882200D01*
X100500000Y-61500000D02*
X100500000Y-63500000D01*
X108000000Y-109144600D02*
X108000000Y-99491000D01*
X108000000Y-99340200D02*
X108000000Y-89686600D01*
D15*
X151739600Y-85166200D02*
X146666200Y-85166200D01*
D14*
X103886000Y-59715400D02*
X103601400Y-60000000D01*
X123779400Y-60000000D02*
X133014600Y-60000000D01*
X108000000Y-118949000D02*
X108000000Y-109295400D01*
X105000000Y-64500000D02*
X107924600Y-67424600D01*
D15*
X145000000Y-79500000D02*
X142310000Y-76810000D01*
D14*
X113405800Y-60000000D02*
X113690400Y-59715400D01*
X107924600Y-67424600D02*
X107924600Y-70002400D01*
X103886000Y-59715400D02*
X104170600Y-60000000D01*
D15*
X142310000Y-76810000D02*
X142106000Y-76810000D01*
D14*
X142819000Y-60000000D02*
X133583800Y-60000000D01*
X108000000Y-79882200D02*
X107924600Y-79806800D01*
X114500000Y-131500000D02*
X128500000Y-117500000D01*
X108000000Y-119099800D02*
X107924600Y-119024400D01*
X104170600Y-60000000D02*
X113405800Y-60000000D01*
X107924600Y-109220000D02*
X108000000Y-109144600D01*
X107924600Y-128828800D02*
X107924600Y-129924600D01*
D15*
X145000000Y-79500000D02*
X145000000Y-78426600D01*
D14*
X107924600Y-89611200D02*
X108000000Y-89535800D01*
X133014600Y-60000000D02*
X133299200Y-59715400D01*
D15*
X142106000Y-76810000D02*
X138500000Y-76810000D01*
D14*
X128500000Y-117500000D02*
X128500000Y-94500000D01*
X107924600Y-129924600D02*
X109500000Y-131500000D01*
X108000000Y-109295400D02*
X107924600Y-109220000D01*
X109500000Y-131500000D02*
X114500000Y-131500000D01*
X107924600Y-128828800D02*
X108000000Y-128753400D01*
X113975000Y-60000000D02*
X123210200Y-60000000D01*
X108000000Y-79731400D02*
X107924600Y-79806800D01*
X133583800Y-60000000D02*
X133299200Y-59715400D01*
D15*
X146666200Y-85166200D02*
X145000000Y-83500000D01*
D14*
X108000000Y-99491000D02*
X107924600Y-99415600D01*
X108000000Y-89686600D02*
X107924600Y-89611200D01*
X108000000Y-70077800D02*
X108000000Y-79731400D01*
X107924600Y-70002400D02*
X108000000Y-70077800D01*
X107924600Y-119024400D02*
X108000000Y-118949000D01*
X123494800Y-59715400D02*
X123779400Y-60000000D01*
D15*
X146666200Y-85166200D02*
X137833800Y-85166200D01*
D14*
X143103600Y-59715400D02*
X145000000Y-61611800D01*
X128500000Y-94500000D02*
X133500000Y-89500000D01*
X101500000Y-64500000D02*
X105000000Y-64500000D01*
X103601400Y-60000000D02*
X102000000Y-60000000D01*
X108000000Y-128753400D02*
X108000000Y-119099800D01*
%TO.N,SDA_7*%
X115214400Y-98475800D02*
X115214400Y-78384400D01*
X110464600Y-70002400D02*
X110464600Y-73634600D01*
X115214400Y-78384400D02*
X110464600Y-73634600D01*
X123571000Y-103378000D02*
X120116600Y-103378000D01*
X120116600Y-103378000D02*
X115214400Y-98475800D01*
%TO.N,LED_4*%
D15*
X96649600Y-139625976D02*
X96649600Y-103070600D01*
X139095388Y-142484200D02*
X99507823Y-142484200D01*
X155293000Y-119910800D02*
X155293000Y-126286590D01*
X96649600Y-103070600D02*
X100304600Y-99415600D01*
X155293000Y-126286590D02*
X139095388Y-142484200D01*
X151638000Y-116255800D02*
X155293000Y-119910800D01*
X99507823Y-142484200D02*
X96649600Y-139625976D01*
%TO.N,SDA_4*%
D14*
X110464600Y-99415600D02*
X110464600Y-103047800D01*
X123571000Y-110998000D02*
X116763800Y-110998000D01*
X116763800Y-110998000D02*
X110464600Y-104698800D01*
X110464600Y-104698800D02*
X110464600Y-103047800D01*
%TO.N,LED_1*%
D15*
X100827507Y-139298200D02*
X137775706Y-139298200D01*
X99842800Y-129290600D02*
X99842800Y-138313493D01*
X100304600Y-128828800D02*
X99842800Y-129290600D01*
X137775706Y-139298200D02*
X151638000Y-125435906D01*
X99842800Y-138313493D02*
X100827507Y-139298200D01*
X151638000Y-125435906D02*
X151638000Y-123875800D01*
%TO.N,SDA_1*%
D14*
X120675400Y-118618000D02*
X123571000Y-118618000D01*
X110464600Y-128828800D02*
X120675400Y-118618000D01*
%TO.N,Net-(Arduino_1-Pin_1)*%
X151739600Y-97866200D02*
X148767800Y-100838000D01*
X148767800Y-100838000D02*
X138811000Y-100838000D01*
%TO.N,Net-(Arduino_1-Pin_2)*%
X150698666Y-95326200D02*
X147726866Y-98298000D01*
X147726866Y-98298000D02*
X138811000Y-98298000D01*
X151739600Y-95326200D02*
X150698666Y-95326200D01*
%TO.N,Net-(Arduino_1-Pin_3)*%
X151739600Y-92786200D02*
X148767800Y-95758000D01*
X148767800Y-95758000D02*
X138811000Y-95758000D01*
%TO.N,Net-(Arduino_1-Pin_4)*%
X151739600Y-90246200D02*
X148767800Y-93218000D01*
X148767800Y-93218000D02*
X138811000Y-93218000D01*
%TO.N,SDA*%
X151739600Y-87706200D02*
X149293800Y-87706200D01*
X149293800Y-87706200D02*
X146322000Y-90678000D01*
X151739600Y-87706200D02*
X156483800Y-87706200D01*
X146322000Y-90678000D02*
X138811000Y-90678000D01*
X156483800Y-87706200D02*
X156500000Y-87690000D01*
%TO.N,LED_9*%
D15*
X117576600Y-48209200D02*
X113690400Y-52095400D01*
X151485600Y-48209200D02*
X117576600Y-48209200D01*
%TO.N,SDA_9*%
D14*
X118160800Y-94894400D02*
X121564400Y-98298000D01*
X121564400Y-98298000D02*
X123571000Y-98298000D01*
X118160800Y-66725800D02*
X118160800Y-94894400D01*
X113690400Y-62255400D02*
X118160800Y-66725800D01*
%TO.N,LED_2*%
D15*
X153169000Y-125406800D02*
X138215600Y-140360200D01*
X152160000Y-121335800D02*
X153169000Y-122344800D01*
X138215600Y-140360200D02*
X100387612Y-140360200D01*
X153169000Y-122344800D02*
X153169000Y-125406800D01*
X151638000Y-121335800D02*
X152160000Y-121335800D01*
X100387612Y-140360200D02*
X98773600Y-138746188D01*
X98773600Y-120555400D02*
X100304600Y-119024400D01*
X98773600Y-138746188D02*
X98773600Y-120555400D01*
%TO.N,SDA_2*%
D14*
X113411000Y-116078000D02*
X123571000Y-116078000D01*
X110464600Y-119024400D02*
X113411000Y-116078000D01*
%TO.N,SDA_3*%
X111150400Y-113538000D02*
X110464600Y-112852200D01*
X123571000Y-113538000D02*
X111150400Y-113538000D01*
X110464600Y-109220000D02*
X110464600Y-112852200D01*
%TO.N,SDA_5*%
X112242600Y-95021400D02*
X110464600Y-93243400D01*
X117627400Y-108458000D02*
X112242600Y-103073200D01*
X123571000Y-108458000D02*
X117627400Y-108458000D01*
X112242600Y-103073200D02*
X112242600Y-95021400D01*
X110464600Y-89611200D02*
X110464600Y-93243400D01*
%TO.N,SDA_6*%
X118389400Y-105918000D02*
X113639600Y-101168200D01*
X110464600Y-79806800D02*
X110464600Y-83439000D01*
X113639600Y-86614000D02*
X110464600Y-83439000D01*
X123571000Y-105918000D02*
X118389400Y-105918000D01*
X113639600Y-101168200D02*
X113639600Y-86614000D01*
%TO.N,SDA_8*%
X116713000Y-70213000D02*
X112000000Y-65500000D01*
X108500000Y-65500000D02*
X105255400Y-62255400D01*
X120980200Y-100838000D02*
X116713000Y-96570800D01*
X105255400Y-62255400D02*
X103886000Y-62255400D01*
X123571000Y-100838000D02*
X120980200Y-100838000D01*
X112000000Y-65500000D02*
X108500000Y-65500000D01*
X116713000Y-96570800D02*
X116713000Y-70213000D01*
%TO.N,SDA_10*%
X123571000Y-95758000D02*
X122326400Y-95758000D01*
X122326400Y-95758000D02*
X119634000Y-93065600D01*
X119634000Y-66116200D02*
X123494800Y-62255400D01*
X119634000Y-93065600D02*
X119634000Y-66116200D01*
%TO.N,SDA_11*%
X133299200Y-62255400D02*
X120929400Y-74625200D01*
X120929400Y-90576400D02*
X123571000Y-93218000D01*
X120929400Y-74625200D02*
X120929400Y-90576400D01*
%TO.N,SDA_12*%
X139471400Y-62255400D02*
X138328400Y-62255400D01*
X126000000Y-74583800D02*
X126000000Y-88249000D01*
X126000000Y-88249000D02*
X123571000Y-90678000D01*
X143103600Y-62255400D02*
X139471400Y-62255400D01*
X138328400Y-62255400D02*
X126000000Y-74583800D01*
%TO.N,LED_10*%
D15*
X123494800Y-52095400D02*
X126087800Y-49502400D01*
X150447494Y-50749200D02*
X151485600Y-50749200D01*
X126087800Y-49502400D02*
X149200694Y-49502400D01*
X149200694Y-49502400D02*
X150447494Y-50749200D01*
%TO.N,LED_11*%
X148760800Y-50564400D02*
X134830200Y-50564400D01*
X151485600Y-53289200D02*
X148760800Y-50564400D01*
X134830200Y-50564400D02*
X133299200Y-52095400D01*
%TO.N,LED_12*%
X151485600Y-55829200D02*
X147751800Y-52095400D01*
X147751800Y-52095400D02*
X143103600Y-52095400D01*
%TO.N,LED_3*%
X99947718Y-141422200D02*
X97711600Y-139186082D01*
X154231000Y-125846695D02*
X138655494Y-141422200D01*
X138655494Y-141422200D02*
X99947718Y-141422200D01*
X97711600Y-111813000D02*
X100304600Y-109220000D01*
X97711600Y-139186082D02*
X97711600Y-111813000D01*
X151638000Y-118795800D02*
X154231000Y-121388800D01*
X154231000Y-121388800D02*
X154231000Y-125846695D01*
%TO.N,LED_5*%
X155065883Y-42051399D02*
X101932918Y-42051400D01*
X89876000Y-54108317D02*
X89876000Y-79182600D01*
X158253000Y-70270800D02*
X158253000Y-45238515D01*
X101932918Y-42051400D02*
X89876000Y-54108317D01*
X158253000Y-45238515D02*
X155065883Y-42051399D01*
X89876000Y-79182600D02*
X100304600Y-89611200D01*
X151638000Y-76885800D02*
X158253000Y-70270800D01*
%TO.N,LED_6*%
X90938000Y-54548212D02*
X102372813Y-43113400D01*
X100304600Y-79806800D02*
X90938000Y-70440200D01*
X157191000Y-45678410D02*
X157191000Y-68792800D01*
X102372813Y-43113400D02*
X154625989Y-43113400D01*
X154625989Y-43113400D02*
X157191000Y-45678410D01*
X157191000Y-68792800D02*
X151638000Y-74345800D01*
X90938000Y-70440200D02*
X90938000Y-54548212D01*
%TO.N,LED_8*%
X155067000Y-65836800D02*
X151638000Y-69265800D01*
X110744000Y-45237400D02*
X153746200Y-45237400D01*
X155067000Y-46558200D02*
X155067000Y-65836800D01*
X103886000Y-52095400D02*
X110744000Y-45237400D01*
X153746200Y-45237400D02*
X155067000Y-46558200D01*
%TO.N,VIN*%
D14*
X147574000Y-106045000D02*
X145084800Y-108534200D01*
X147574000Y-105918000D02*
X147574000Y-106045000D01*
%TD*%
%TA.AperFunction,Conductor*%
%TO.N,GND*%
G36*
X161942539Y-41020185D02*
G01*
X161988294Y-41072989D01*
X161999500Y-41124500D01*
X161999500Y-143875500D01*
X161979815Y-143942539D01*
X161927011Y-143988294D01*
X161875500Y-143999500D01*
X139680957Y-143999500D01*
X139613918Y-143979815D01*
X139568163Y-143927011D01*
X139558219Y-143857853D01*
X139587244Y-143794297D01*
X139624662Y-143765015D01*
X139644856Y-143754725D01*
X139819452Y-143665765D01*
X139995375Y-143537949D01*
X156346749Y-127186577D01*
X156474565Y-127010654D01*
X156573286Y-126816902D01*
X156640483Y-126610092D01*
X156674500Y-126395321D01*
X156674500Y-119802068D01*
X156640483Y-119587297D01*
X156573284Y-119380483D01*
X156474564Y-119186735D01*
X156453385Y-119157585D01*
X156346749Y-119010813D01*
X156192987Y-118857051D01*
X153521000Y-116185064D01*
X153487515Y-116123741D01*
X153485744Y-116113584D01*
X153456838Y-115894011D01*
X153394054Y-115659700D01*
X153301224Y-115435588D01*
X153179936Y-115225511D01*
X153032265Y-115033062D01*
X153032260Y-115033056D01*
X152860743Y-114861539D01*
X152860736Y-114861533D01*
X152668293Y-114713867D01*
X152668292Y-114713866D01*
X152668289Y-114713864D01*
X152458212Y-114592576D01*
X152399578Y-114568289D01*
X152234104Y-114499747D01*
X151999785Y-114436961D01*
X151759289Y-114405300D01*
X151759288Y-114405300D01*
X151516712Y-114405300D01*
X151516711Y-114405300D01*
X151276214Y-114436961D01*
X151041895Y-114499747D01*
X150817794Y-114592573D01*
X150817785Y-114592577D01*
X150607706Y-114713867D01*
X150415263Y-114861533D01*
X150415256Y-114861539D01*
X150243739Y-115033056D01*
X150243733Y-115033063D01*
X150096067Y-115225506D01*
X149974777Y-115435585D01*
X149974773Y-115435594D01*
X149881947Y-115659695D01*
X149819161Y-115894014D01*
X149787500Y-116134511D01*
X149787500Y-116377088D01*
X149819161Y-116617585D01*
X149881947Y-116851904D01*
X149928585Y-116964497D01*
X149974776Y-117076012D01*
X150096064Y-117286089D01*
X150096066Y-117286092D01*
X150096067Y-117286093D01*
X150222077Y-117450314D01*
X150247271Y-117515483D01*
X150233232Y-117583928D01*
X150222077Y-117601286D01*
X150096067Y-117765506D01*
X149974777Y-117975585D01*
X149974773Y-117975594D01*
X149881947Y-118199695D01*
X149819161Y-118434014D01*
X149787500Y-118674511D01*
X149787500Y-118917088D01*
X149819161Y-119157585D01*
X149881947Y-119391904D01*
X149962882Y-119587297D01*
X149974776Y-119616012D01*
X150096064Y-119826089D01*
X150096066Y-119826092D01*
X150096067Y-119826093D01*
X150222077Y-119990314D01*
X150247271Y-120055483D01*
X150233232Y-120123928D01*
X150222077Y-120141286D01*
X150096067Y-120305506D01*
X149974777Y-120515585D01*
X149974773Y-120515594D01*
X149881947Y-120739695D01*
X149819161Y-120974014D01*
X149787500Y-121214511D01*
X149787500Y-121457088D01*
X149819161Y-121697585D01*
X149881947Y-121931904D01*
X149974773Y-122156005D01*
X149974777Y-122156015D01*
X150027976Y-122248158D01*
X150044449Y-122316059D01*
X150021596Y-122382085D01*
X150016692Y-122388518D01*
X149948303Y-122472391D01*
X149854089Y-122652754D01*
X149798114Y-122848383D01*
X149798113Y-122848386D01*
X149787500Y-122967766D01*
X149787500Y-124783828D01*
X149787501Y-124783834D01*
X149798113Y-124903215D01*
X149854089Y-125098846D01*
X149869314Y-125127993D01*
X149882904Y-125196529D01*
X149857283Y-125261531D01*
X149847085Y-125273083D01*
X137239789Y-137880381D01*
X137178466Y-137913866D01*
X137152108Y-137916700D01*
X101451105Y-137916700D01*
X101384066Y-137897015D01*
X101363424Y-137880381D01*
X101260619Y-137777576D01*
X101227134Y-137716253D01*
X101224300Y-137689895D01*
X101224300Y-133508196D01*
X101243985Y-133441157D01*
X101296789Y-133395402D01*
X101365947Y-133385458D01*
X101429503Y-133414483D01*
X101435981Y-133420515D01*
X101522740Y-133507274D01*
X101522748Y-133507281D01*
X101730796Y-133666924D01*
X101957899Y-133798041D01*
X101957909Y-133798046D01*
X102200171Y-133898394D01*
X102200181Y-133898398D01*
X102453484Y-133966270D01*
X102713480Y-134000500D01*
X102713487Y-134000500D01*
X102975713Y-134000500D01*
X102975720Y-134000500D01*
X103235716Y-133966270D01*
X103489019Y-133898398D01*
X103731297Y-133798043D01*
X103958403Y-133666924D01*
X104166451Y-133507282D01*
X104166455Y-133507277D01*
X104166460Y-133507274D01*
X104351874Y-133321860D01*
X104351877Y-133321855D01*
X104351882Y-133321851D01*
X104511524Y-133113803D01*
X104642643Y-132886697D01*
X104645210Y-132880501D01*
X104742998Y-132644419D01*
X104810870Y-132391116D01*
X104845100Y-132131120D01*
X104845100Y-131868880D01*
X104810870Y-131608884D01*
X104742998Y-131355581D01*
X104742994Y-131355571D01*
X104642646Y-131113309D01*
X104642641Y-131113299D01*
X104511524Y-130886196D01*
X104389024Y-130726554D01*
X104351882Y-130678149D01*
X104351881Y-130678148D01*
X104351874Y-130678140D01*
X104261419Y-130587685D01*
X104227934Y-130526362D01*
X104225100Y-130500004D01*
X104225100Y-130111569D01*
X104244785Y-130044530D01*
X104250724Y-130036083D01*
X104295405Y-129977853D01*
X104386536Y-129859089D01*
X104507824Y-129649012D01*
X104600654Y-129424900D01*
X104663438Y-129190589D01*
X104695100Y-128950088D01*
X104695100Y-128707512D01*
X104663438Y-128467011D01*
X104600654Y-128232700D01*
X104507824Y-128008588D01*
X104386536Y-127798511D01*
X104362339Y-127766977D01*
X104250724Y-127621516D01*
X104225530Y-127556347D01*
X104225100Y-127546030D01*
X104225100Y-120307169D01*
X104244785Y-120240130D01*
X104250724Y-120231683D01*
X104305780Y-120159932D01*
X104386536Y-120054689D01*
X104507824Y-119844612D01*
X104600654Y-119620500D01*
X104663438Y-119386189D01*
X104695100Y-119145688D01*
X104695100Y-118903112D01*
X104663438Y-118662611D01*
X104600654Y-118428300D01*
X104507824Y-118204188D01*
X104386536Y-117994111D01*
X104362339Y-117962577D01*
X104250724Y-117817116D01*
X104225530Y-117751947D01*
X104225100Y-117741630D01*
X104225100Y-110502769D01*
X104244785Y-110435730D01*
X104250724Y-110427283D01*
X104323648Y-110332246D01*
X104386536Y-110250289D01*
X104507824Y-110040212D01*
X104600654Y-109816100D01*
X104663438Y-109581789D01*
X104695100Y-109341288D01*
X104695100Y-109098712D01*
X104663438Y-108858211D01*
X104600654Y-108623900D01*
X104507824Y-108399788D01*
X104386536Y-108189711D01*
X104350758Y-108143084D01*
X104250724Y-108012716D01*
X104225530Y-107947547D01*
X104225100Y-107937230D01*
X104225100Y-100698369D01*
X104244785Y-100631330D01*
X104250724Y-100622883D01*
X104348777Y-100495097D01*
X104386536Y-100445889D01*
X104507824Y-100235812D01*
X104600654Y-100011700D01*
X104663438Y-99777389D01*
X104695100Y-99536888D01*
X104695100Y-99294312D01*
X104663438Y-99053811D01*
X104600654Y-98819500D01*
X104507824Y-98595388D01*
X104386536Y-98385311D01*
X104362339Y-98353777D01*
X104250724Y-98208316D01*
X104225530Y-98143147D01*
X104225100Y-98132830D01*
X104225100Y-90893969D01*
X104244785Y-90826930D01*
X104250724Y-90818483D01*
X104265453Y-90799288D01*
X104386536Y-90641489D01*
X104507824Y-90431412D01*
X104600654Y-90207300D01*
X104663438Y-89972989D01*
X104695100Y-89732488D01*
X104695100Y-89489912D01*
X104690538Y-89455263D01*
X104686684Y-89425985D01*
X104663438Y-89249411D01*
X104600654Y-89015100D01*
X104507824Y-88790988D01*
X104386536Y-88580911D01*
X104328971Y-88505891D01*
X104250724Y-88403916D01*
X104225530Y-88338747D01*
X104225100Y-88328430D01*
X104225100Y-81089569D01*
X104244785Y-81022530D01*
X104250724Y-81014083D01*
X104386536Y-80837089D01*
X104507824Y-80627012D01*
X104600654Y-80402900D01*
X104663438Y-80168589D01*
X104695100Y-79928088D01*
X104695100Y-79685512D01*
X104663438Y-79445011D01*
X104600654Y-79210700D01*
X104507824Y-78986588D01*
X104386536Y-78776511D01*
X104327184Y-78699162D01*
X104250724Y-78599516D01*
X104225530Y-78534347D01*
X104225100Y-78524030D01*
X104225100Y-71285169D01*
X104244785Y-71218130D01*
X104250724Y-71209683D01*
X104360458Y-71066674D01*
X104386536Y-71032689D01*
X104507824Y-70822612D01*
X104600654Y-70598500D01*
X104663438Y-70364189D01*
X104695100Y-70123688D01*
X104695100Y-69881112D01*
X104663438Y-69640611D01*
X104600654Y-69406300D01*
X104507824Y-69182188D01*
X104386536Y-68972111D01*
X104367235Y-68946957D01*
X104250725Y-68795117D01*
X104225531Y-68729948D01*
X104225101Y-68719631D01*
X104225101Y-68691671D01*
X104212166Y-68610006D01*
X104191108Y-68477051D01*
X104123960Y-68270391D01*
X104025310Y-68076779D01*
X103969890Y-68000500D01*
X103897587Y-67900983D01*
X103743936Y-67747332D01*
X103743935Y-67747331D01*
X103740824Y-67744220D01*
X103740809Y-67744206D01*
X102767208Y-66770605D01*
X102767199Y-66770595D01*
X102735988Y-66739384D01*
X102609217Y-66612613D01*
X102433421Y-66484890D01*
X102239809Y-66386240D01*
X102033149Y-66319092D01*
X102033147Y-66319091D01*
X102033145Y-66319091D01*
X101883295Y-66295357D01*
X101818529Y-66285099D01*
X101601233Y-66285099D01*
X101596122Y-66285099D01*
X101596098Y-66285100D01*
X98692423Y-66285100D01*
X98625384Y-66265415D01*
X98579629Y-66212611D01*
X98569484Y-66144914D01*
X98571299Y-66131127D01*
X98571300Y-66131120D01*
X98571300Y-65868880D01*
X98537070Y-65608884D01*
X98469198Y-65355581D01*
X98469194Y-65355571D01*
X98368846Y-65113309D01*
X98368841Y-65113299D01*
X98237724Y-64886196D01*
X98078081Y-64678148D01*
X98078074Y-64678140D01*
X97892660Y-64492726D01*
X97892651Y-64492718D01*
X97684603Y-64333075D01*
X97457500Y-64201958D01*
X97457490Y-64201953D01*
X97215228Y-64101605D01*
X97215221Y-64101603D01*
X97215219Y-64101602D01*
X96961916Y-64033730D01*
X96904139Y-64026123D01*
X96701927Y-63999500D01*
X96701920Y-63999500D01*
X96439680Y-63999500D01*
X96439672Y-63999500D01*
X96208572Y-64029926D01*
X96179684Y-64033730D01*
X95933050Y-64099815D01*
X95926381Y-64101602D01*
X95926371Y-64101605D01*
X95684109Y-64201953D01*
X95684099Y-64201958D01*
X95456996Y-64333075D01*
X95248948Y-64492718D01*
X95063518Y-64678148D01*
X94903875Y-64886196D01*
X94772758Y-65113299D01*
X94772753Y-65113309D01*
X94672405Y-65355571D01*
X94672402Y-65355581D01*
X94619508Y-65552987D01*
X94604530Y-65608885D01*
X94570300Y-65868872D01*
X94570300Y-66131127D01*
X94590572Y-66285099D01*
X94604530Y-66391116D01*
X94663880Y-66612613D01*
X94672402Y-66644418D01*
X94672405Y-66644428D01*
X94772753Y-66886690D01*
X94772758Y-66886700D01*
X94903875Y-67113803D01*
X95063518Y-67321851D01*
X95063526Y-67321860D01*
X95228536Y-67486870D01*
X95258786Y-67536231D01*
X95291442Y-67636733D01*
X95390090Y-67830340D01*
X95517813Y-68006136D01*
X95607332Y-68095655D01*
X95675794Y-68164117D01*
X95675805Y-68164127D01*
X95920897Y-68409219D01*
X95954382Y-68470542D01*
X95949398Y-68540234D01*
X95907526Y-68596167D01*
X95842062Y-68620584D01*
X95833216Y-68620900D01*
X95625998Y-68620900D01*
X95558959Y-68601215D01*
X95538317Y-68584581D01*
X93417819Y-66464083D01*
X93384334Y-66402760D01*
X93381500Y-66376402D01*
X93381500Y-61391352D01*
X99119499Y-61391352D01*
X99119499Y-61613758D01*
X99119500Y-61613783D01*
X99119500Y-63386936D01*
X99119499Y-63386951D01*
X99119499Y-63608646D01*
X99125996Y-63649665D01*
X99125996Y-63649666D01*
X99153491Y-63823268D01*
X99220641Y-64029932D01*
X99304515Y-64194543D01*
X99319290Y-64223540D01*
X99447013Y-64399336D01*
X99540395Y-64492718D01*
X99604994Y-64557317D01*
X99605005Y-64557327D01*
X100443887Y-65396209D01*
X100443901Y-65396224D01*
X100447012Y-65399335D01*
X100447013Y-65399336D01*
X100600664Y-65552987D01*
X100737656Y-65652517D01*
X100776460Y-65680710D01*
X100867934Y-65727318D01*
X100970067Y-65779358D01*
X100970069Y-65779358D01*
X100970072Y-65779360D01*
X101080847Y-65815353D01*
X101176731Y-65846508D01*
X101284042Y-65863504D01*
X101391353Y-65880501D01*
X101391354Y-65880501D01*
X101613759Y-65880501D01*
X101613783Y-65880500D01*
X104376816Y-65880500D01*
X104443855Y-65900185D01*
X104464497Y-65916819D01*
X106507781Y-67960103D01*
X106541266Y-68021426D01*
X106544100Y-68047784D01*
X106544100Y-68719630D01*
X106524415Y-68786669D01*
X106518476Y-68795116D01*
X106382667Y-68972106D01*
X106261377Y-69182185D01*
X106261373Y-69182194D01*
X106168547Y-69406295D01*
X106105761Y-69640614D01*
X106074100Y-69881111D01*
X106074100Y-70123688D01*
X106105761Y-70364185D01*
X106168547Y-70598504D01*
X106256080Y-70809826D01*
X106261376Y-70822612D01*
X106382664Y-71032689D01*
X106382666Y-71032692D01*
X106382667Y-71032693D01*
X106530333Y-71225136D01*
X106530338Y-71225142D01*
X106583180Y-71277983D01*
X106616666Y-71339306D01*
X106619500Y-71365665D01*
X106619500Y-78443534D01*
X106599815Y-78510573D01*
X106583181Y-78531215D01*
X106530339Y-78584056D01*
X106530333Y-78584063D01*
X106382667Y-78776506D01*
X106261377Y-78986585D01*
X106261373Y-78986594D01*
X106168547Y-79210695D01*
X106105761Y-79445014D01*
X106074100Y-79685511D01*
X106074100Y-79928088D01*
X106105761Y-80168585D01*
X106168547Y-80402904D01*
X106197382Y-80472517D01*
X106261376Y-80627012D01*
X106382664Y-80837089D01*
X106382666Y-80837092D01*
X106382667Y-80837093D01*
X106530333Y-81029536D01*
X106530338Y-81029542D01*
X106583180Y-81082383D01*
X106616666Y-81143706D01*
X106619500Y-81170065D01*
X106619500Y-88247934D01*
X106599815Y-88314973D01*
X106583181Y-88335615D01*
X106530339Y-88388456D01*
X106530333Y-88388463D01*
X106382667Y-88580906D01*
X106261377Y-88790985D01*
X106261373Y-88790994D01*
X106168547Y-89015095D01*
X106105761Y-89249414D01*
X106074100Y-89489911D01*
X106074100Y-89732488D01*
X106105761Y-89972985D01*
X106168547Y-90207304D01*
X106234898Y-90367488D01*
X106261376Y-90431412D01*
X106382664Y-90641489D01*
X106382666Y-90641492D01*
X106382667Y-90641493D01*
X106530333Y-90833936D01*
X106530338Y-90833942D01*
X106583180Y-90886783D01*
X106616666Y-90948106D01*
X106619500Y-90974465D01*
X106619500Y-98052334D01*
X106599815Y-98119373D01*
X106583181Y-98140015D01*
X106530339Y-98192856D01*
X106530333Y-98192863D01*
X106382667Y-98385306D01*
X106382664Y-98385310D01*
X106382664Y-98385311D01*
X106381006Y-98388183D01*
X106261377Y-98595385D01*
X106261373Y-98595394D01*
X106168547Y-98819495D01*
X106105761Y-99053814D01*
X106074100Y-99294311D01*
X106074100Y-99536888D01*
X106102553Y-99753018D01*
X106105762Y-99777389D01*
X106113887Y-99807711D01*
X106168547Y-100011704D01*
X106171070Y-100017794D01*
X106261376Y-100235812D01*
X106382664Y-100445889D01*
X106382666Y-100445892D01*
X106382667Y-100445893D01*
X106530333Y-100638336D01*
X106530338Y-100638342D01*
X106583180Y-100691183D01*
X106616666Y-100752506D01*
X106619500Y-100778865D01*
X106619500Y-107856734D01*
X106599815Y-107923773D01*
X106583181Y-107944415D01*
X106530339Y-107997256D01*
X106530333Y-107997263D01*
X106382667Y-108189706D01*
X106382664Y-108189710D01*
X106382664Y-108189711D01*
X106381006Y-108192583D01*
X106261377Y-108399785D01*
X106261373Y-108399794D01*
X106168547Y-108623895D01*
X106105761Y-108858214D01*
X106074100Y-109098711D01*
X106074100Y-109341288D01*
X106105761Y-109581785D01*
X106168547Y-109816104D01*
X106261373Y-110040205D01*
X106261377Y-110040214D01*
X106262109Y-110041481D01*
X106382664Y-110250289D01*
X106382666Y-110250292D01*
X106382667Y-110250293D01*
X106530333Y-110442736D01*
X106530338Y-110442742D01*
X106583180Y-110495583D01*
X106616666Y-110556906D01*
X106619500Y-110583265D01*
X106619500Y-117661134D01*
X106599815Y-117728173D01*
X106583181Y-117748815D01*
X106530339Y-117801656D01*
X106530333Y-117801663D01*
X106382667Y-117994106D01*
X106261377Y-118204185D01*
X106261373Y-118204194D01*
X106168547Y-118428295D01*
X106105761Y-118662614D01*
X106074100Y-118903111D01*
X106074100Y-119145688D01*
X106105761Y-119386185D01*
X106168547Y-119620504D01*
X106253705Y-119826093D01*
X106261376Y-119844612D01*
X106382664Y-120054689D01*
X106382666Y-120054692D01*
X106382667Y-120054693D01*
X106530333Y-120247136D01*
X106530338Y-120247142D01*
X106583180Y-120299983D01*
X106616666Y-120361306D01*
X106619500Y-120387665D01*
X106619500Y-127465534D01*
X106599815Y-127532573D01*
X106583181Y-127553215D01*
X106530339Y-127606056D01*
X106530333Y-127606063D01*
X106382667Y-127798506D01*
X106261377Y-128008585D01*
X106261373Y-128008594D01*
X106168547Y-128232695D01*
X106105761Y-128467014D01*
X106074100Y-128707511D01*
X106074100Y-128950088D01*
X106105761Y-129190585D01*
X106168547Y-129424904D01*
X106261373Y-129649005D01*
X106261376Y-129649012D01*
X106382664Y-129859089D01*
X106382666Y-129859092D01*
X106382667Y-129859093D01*
X106532158Y-130053915D01*
X106556255Y-130110002D01*
X106574163Y-130223061D01*
X106574163Y-130223065D01*
X106574164Y-130223065D01*
X106578092Y-130247868D01*
X106645240Y-130454528D01*
X106743890Y-130648140D01*
X106871613Y-130823936D01*
X107025264Y-130977587D01*
X107029594Y-130981917D01*
X107029605Y-130981927D01*
X108443887Y-132396209D01*
X108443901Y-132396224D01*
X108447012Y-132399335D01*
X108447013Y-132399336D01*
X108600664Y-132552987D01*
X108600667Y-132552989D01*
X108600670Y-132552992D01*
X108668560Y-132602316D01*
X108726510Y-132644419D01*
X108776460Y-132680710D01*
X108970072Y-132779360D01*
X109176732Y-132846508D01*
X109391352Y-132880501D01*
X109391353Y-132880501D01*
X109613759Y-132880501D01*
X109613783Y-132880500D01*
X114386217Y-132880500D01*
X114386241Y-132880501D01*
X114391352Y-132880501D01*
X114608647Y-132880501D01*
X114608648Y-132880501D01*
X114823268Y-132846508D01*
X115029928Y-132779360D01*
X115223540Y-132680710D01*
X115273490Y-132644419D01*
X115399336Y-132552987D01*
X115552987Y-132399336D01*
X115552988Y-132399334D01*
X115560048Y-132392274D01*
X115560054Y-132392267D01*
X129392267Y-118560054D01*
X129392274Y-118560048D01*
X129399334Y-118552988D01*
X129399336Y-118552987D01*
X129552987Y-118399336D01*
X129680710Y-118223540D01*
X129779360Y-118029928D01*
X129846508Y-117823268D01*
X129859045Y-117744114D01*
X129880501Y-117608648D01*
X129880501Y-117391352D01*
X129880501Y-117386951D01*
X129880500Y-117386936D01*
X129880500Y-105796711D01*
X136960500Y-105796711D01*
X136960500Y-106039288D01*
X136992161Y-106279785D01*
X137054947Y-106514104D01*
X137137252Y-106712805D01*
X137147776Y-106738212D01*
X137269064Y-106948289D01*
X137269066Y-106948292D01*
X137269067Y-106948293D01*
X137416733Y-107140736D01*
X137416739Y-107140743D01*
X137588256Y-107312260D01*
X137588263Y-107312266D01*
X137664793Y-107370989D01*
X137780711Y-107459936D01*
X137990788Y-107581224D01*
X138214900Y-107674054D01*
X138449211Y-107736838D01*
X138629586Y-107760584D01*
X138689711Y-107768500D01*
X138689712Y-107768500D01*
X138932289Y-107768500D01*
X138980388Y-107762167D01*
X139172789Y-107736838D01*
X139407100Y-107674054D01*
X139631212Y-107581224D01*
X139841289Y-107459936D01*
X139957207Y-107370989D01*
X140018284Y-107324124D01*
X140083453Y-107298930D01*
X140093770Y-107298500D01*
X143273479Y-107298500D01*
X143340518Y-107318185D01*
X143386273Y-107370989D01*
X143396217Y-107440147D01*
X143380866Y-107484500D01*
X143286758Y-107647499D01*
X143286753Y-107647509D01*
X143186405Y-107889771D01*
X143186402Y-107889781D01*
X143157603Y-107997263D01*
X143118530Y-108143085D01*
X143084300Y-108403072D01*
X143084300Y-108665327D01*
X143098721Y-108774855D01*
X143118530Y-108925316D01*
X143186402Y-109178618D01*
X143186405Y-109178628D01*
X143286753Y-109420890D01*
X143286758Y-109420900D01*
X143417875Y-109648003D01*
X143577518Y-109856051D01*
X143577526Y-109856060D01*
X143762940Y-110041474D01*
X143762948Y-110041481D01*
X143970996Y-110201124D01*
X144198099Y-110332241D01*
X144198109Y-110332246D01*
X144427549Y-110427283D01*
X144440381Y-110432598D01*
X144693684Y-110500470D01*
X144953680Y-110534700D01*
X144953687Y-110534700D01*
X145215913Y-110534700D01*
X145215920Y-110534700D01*
X145475916Y-110500470D01*
X145729219Y-110432598D01*
X145971497Y-110332243D01*
X146198603Y-110201124D01*
X146406651Y-110041482D01*
X146406655Y-110041477D01*
X146406660Y-110041474D01*
X146592074Y-109856060D01*
X146592077Y-109856055D01*
X146592082Y-109856051D01*
X146751724Y-109648003D01*
X146882843Y-109420897D01*
X146983198Y-109178619D01*
X147051070Y-108925316D01*
X147085300Y-108665320D01*
X147085300Y-108537383D01*
X147104985Y-108470344D01*
X147121619Y-108449702D01*
X148236502Y-107334819D01*
X148297825Y-107301334D01*
X148324183Y-107298500D01*
X150388333Y-107298500D01*
X150455372Y-107318185D01*
X150463819Y-107324124D01*
X150607711Y-107434536D01*
X150817784Y-107555822D01*
X150817785Y-107555822D01*
X150817788Y-107555824D01*
X151013269Y-107636795D01*
X151039111Y-107647499D01*
X151041900Y-107648654D01*
X151276211Y-107711438D01*
X151456586Y-107735184D01*
X151516711Y-107743100D01*
X151516712Y-107743100D01*
X151759289Y-107743100D01*
X151807388Y-107736767D01*
X151999789Y-107711438D01*
X152234100Y-107648654D01*
X152458212Y-107555824D01*
X152668289Y-107434536D01*
X152860738Y-107286865D01*
X153032265Y-107115338D01*
X153179936Y-106922889D01*
X153301224Y-106712812D01*
X153394054Y-106488700D01*
X153456838Y-106254389D01*
X153485957Y-106033199D01*
X153514223Y-105969305D01*
X153521203Y-105961717D01*
X157394353Y-102088566D01*
X157394372Y-102088550D01*
X157399333Y-102083588D01*
X157399336Y-102083587D01*
X157552987Y-101929936D01*
X157680710Y-101754140D01*
X157707637Y-101701292D01*
X157779360Y-101560529D01*
X157846508Y-101353868D01*
X157880501Y-101139248D01*
X157880501Y-100921953D01*
X157880501Y-100917552D01*
X157880500Y-100917537D01*
X157880500Y-96510633D01*
X157900185Y-96443594D01*
X157906113Y-96435160D01*
X158000273Y-96312450D01*
X158118284Y-96108049D01*
X158208606Y-95889993D01*
X158269693Y-95662014D01*
X158300500Y-95428011D01*
X158300500Y-95191989D01*
X158269693Y-94957986D01*
X158208606Y-94730007D01*
X158118284Y-94511951D01*
X158118282Y-94511948D01*
X158118280Y-94511943D01*
X158060874Y-94412514D01*
X158000273Y-94307550D01*
X157856592Y-94120301D01*
X157856587Y-94120295D01*
X157689704Y-93953412D01*
X157689697Y-93953406D01*
X157502454Y-93809730D01*
X157502453Y-93809729D01*
X157502450Y-93809727D01*
X157420957Y-93762677D01*
X157298056Y-93691719D01*
X157298045Y-93691714D01*
X157079993Y-93601394D01*
X156852010Y-93540306D01*
X156618020Y-93509501D01*
X156618017Y-93509500D01*
X156618011Y-93509500D01*
X156381989Y-93509500D01*
X156381983Y-93509500D01*
X156381979Y-93509501D01*
X156147989Y-93540306D01*
X155920006Y-93601394D01*
X155701954Y-93691714D01*
X155701943Y-93691719D01*
X155497545Y-93809730D01*
X155310302Y-93953406D01*
X155310295Y-93953412D01*
X155143412Y-94120295D01*
X155143406Y-94120302D01*
X154999730Y-94307545D01*
X154881719Y-94511943D01*
X154881714Y-94511954D01*
X154791394Y-94730006D01*
X154730306Y-94957989D01*
X154699501Y-95191979D01*
X154699500Y-95191995D01*
X154699500Y-95428004D01*
X154699501Y-95428020D01*
X154730306Y-95662010D01*
X154791394Y-95889993D01*
X154881714Y-96108045D01*
X154881719Y-96108056D01*
X154999722Y-96312442D01*
X154999727Y-96312450D01*
X155093876Y-96435148D01*
X155119070Y-96500315D01*
X155119500Y-96510633D01*
X155119500Y-100407416D01*
X155099815Y-100474455D01*
X155083181Y-100495097D01*
X151568893Y-104009384D01*
X151507570Y-104042869D01*
X151497397Y-104044642D01*
X151276214Y-104073761D01*
X151041895Y-104136547D01*
X150817794Y-104229373D01*
X150817785Y-104229377D01*
X150607706Y-104350667D01*
X150415263Y-104498333D01*
X150415256Y-104498339D01*
X150412415Y-104501181D01*
X150351092Y-104534666D01*
X150324734Y-104537500D01*
X140093770Y-104537500D01*
X140026731Y-104517815D01*
X140018284Y-104511876D01*
X139841293Y-104376067D01*
X139841292Y-104376066D01*
X139841289Y-104376064D01*
X139631212Y-104254776D01*
X139631205Y-104254773D01*
X139407104Y-104161947D01*
X139172785Y-104099161D01*
X138932289Y-104067500D01*
X138932288Y-104067500D01*
X138689712Y-104067500D01*
X138689711Y-104067500D01*
X138449214Y-104099161D01*
X138214895Y-104161947D01*
X137990794Y-104254773D01*
X137990785Y-104254777D01*
X137780706Y-104376067D01*
X137588263Y-104523733D01*
X137588256Y-104523739D01*
X137416739Y-104695256D01*
X137416733Y-104695263D01*
X137269067Y-104887706D01*
X137147777Y-105097785D01*
X137147773Y-105097794D01*
X137054947Y-105321895D01*
X136992161Y-105556214D01*
X136960500Y-105796711D01*
X129880500Y-105796711D01*
X129880500Y-95123183D01*
X129900185Y-95056144D01*
X129916814Y-95035507D01*
X134387916Y-90564404D01*
X134396460Y-90557111D01*
X134396287Y-90556908D01*
X134399979Y-90553754D01*
X134399987Y-90553749D01*
X138369717Y-86584019D01*
X138431040Y-86550534D01*
X138457398Y-86547700D01*
X146557474Y-86547700D01*
X146774926Y-86547700D01*
X148200615Y-86547700D01*
X148267654Y-86567385D01*
X148313409Y-86620189D01*
X148323353Y-86689347D01*
X148294328Y-86752903D01*
X148288296Y-86759381D01*
X148240813Y-86806864D01*
X148240810Y-86806867D01*
X147005664Y-88042014D01*
X145786497Y-89261181D01*
X145725174Y-89294666D01*
X145698816Y-89297500D01*
X140093770Y-89297500D01*
X140026731Y-89277815D01*
X140018284Y-89271876D01*
X139841293Y-89136067D01*
X139841292Y-89136066D01*
X139841289Y-89136064D01*
X139631212Y-89014776D01*
X139631205Y-89014773D01*
X139407104Y-88921947D01*
X139172785Y-88859161D01*
X138932289Y-88827500D01*
X138932288Y-88827500D01*
X138689712Y-88827500D01*
X138689711Y-88827500D01*
X138449214Y-88859161D01*
X138214895Y-88921947D01*
X137990794Y-89014773D01*
X137990785Y-89014777D01*
X137780706Y-89136067D01*
X137588263Y-89283733D01*
X137588256Y-89283739D01*
X137416739Y-89455256D01*
X137416733Y-89455263D01*
X137269067Y-89647706D01*
X137147777Y-89857785D01*
X137147773Y-89857794D01*
X137054947Y-90081895D01*
X136992161Y-90316214D01*
X136960500Y-90556711D01*
X136960500Y-90799288D01*
X136992161Y-91039785D01*
X137054947Y-91274104D01*
X137132651Y-91461698D01*
X137147776Y-91498212D01*
X137269064Y-91708289D01*
X137269066Y-91708292D01*
X137269067Y-91708293D01*
X137395077Y-91872514D01*
X137420271Y-91937683D01*
X137406232Y-92006128D01*
X137395077Y-92023486D01*
X137269067Y-92187706D01*
X137147777Y-92397785D01*
X137147773Y-92397794D01*
X137054947Y-92621895D01*
X136992161Y-92856214D01*
X136960500Y-93096711D01*
X136960500Y-93339288D01*
X136982908Y-93509501D01*
X136992162Y-93579789D01*
X136997756Y-93600665D01*
X137054947Y-93814104D01*
X137135650Y-94008938D01*
X137147776Y-94038212D01*
X137269064Y-94248289D01*
X137269066Y-94248292D01*
X137269067Y-94248293D01*
X137395077Y-94412514D01*
X137420271Y-94477683D01*
X137406232Y-94546128D01*
X137395077Y-94563486D01*
X137269067Y-94727706D01*
X137269064Y-94727710D01*
X137269064Y-94727711D01*
X137267688Y-94730095D01*
X137147777Y-94937785D01*
X137147773Y-94937794D01*
X137054947Y-95161895D01*
X136992161Y-95396214D01*
X136960500Y-95636711D01*
X136960500Y-95879288D01*
X136992161Y-96119785D01*
X137054947Y-96354104D01*
X137099968Y-96462793D01*
X137147776Y-96578212D01*
X137269064Y-96788289D01*
X137269066Y-96788292D01*
X137269067Y-96788293D01*
X137395077Y-96952514D01*
X137420271Y-97017683D01*
X137406232Y-97086128D01*
X137395077Y-97103486D01*
X137269067Y-97267706D01*
X137147777Y-97477785D01*
X137147773Y-97477794D01*
X137054947Y-97701895D01*
X136992161Y-97936214D01*
X136960500Y-98176711D01*
X136960500Y-98419288D01*
X136992161Y-98659785D01*
X137054947Y-98894104D01*
X137135779Y-99089249D01*
X137147776Y-99118212D01*
X137269064Y-99328289D01*
X137269066Y-99328292D01*
X137269067Y-99328293D01*
X137395077Y-99492514D01*
X137420271Y-99557683D01*
X137406232Y-99626128D01*
X137395077Y-99643486D01*
X137269067Y-99807706D01*
X137147777Y-100017785D01*
X137147773Y-100017794D01*
X137054947Y-100241895D01*
X136992161Y-100476214D01*
X136960500Y-100716711D01*
X136960500Y-100959288D01*
X136992161Y-101199785D01*
X137054947Y-101434104D01*
X137107314Y-101560529D01*
X137147776Y-101658212D01*
X137269064Y-101868289D01*
X137269066Y-101868292D01*
X137269067Y-101868293D01*
X137416733Y-102060736D01*
X137416739Y-102060743D01*
X137588256Y-102232260D01*
X137588262Y-102232265D01*
X137780711Y-102379936D01*
X137990788Y-102501224D01*
X138214900Y-102594054D01*
X138449211Y-102656838D01*
X138629586Y-102680584D01*
X138689711Y-102688500D01*
X138689712Y-102688500D01*
X138932289Y-102688500D01*
X138980388Y-102682167D01*
X139172789Y-102656838D01*
X139407100Y-102594054D01*
X139631212Y-102501224D01*
X139841289Y-102379936D01*
X139939085Y-102304894D01*
X140018284Y-102244124D01*
X140083453Y-102218930D01*
X140093770Y-102218500D01*
X148654017Y-102218500D01*
X148654041Y-102218501D01*
X148659152Y-102218501D01*
X148876447Y-102218501D01*
X148876448Y-102218501D01*
X149091068Y-102184508D01*
X149297728Y-102117360D01*
X149491340Y-102018710D01*
X149539479Y-101983735D01*
X149667136Y-101890987D01*
X149820787Y-101737336D01*
X149820788Y-101737334D01*
X149827848Y-101730274D01*
X149827854Y-101730267D01*
X151805103Y-99753018D01*
X151866426Y-99719533D01*
X151892784Y-99716699D01*
X152647628Y-99716699D01*
X152647636Y-99716699D01*
X152767018Y-99706086D01*
X152962649Y-99650109D01*
X153143007Y-99555898D01*
X153300709Y-99427309D01*
X153429298Y-99269607D01*
X153523509Y-99089249D01*
X153579486Y-98893618D01*
X153590100Y-98774237D01*
X153590099Y-96958164D01*
X153579486Y-96838782D01*
X153523509Y-96643151D01*
X153429298Y-96462793D01*
X153360908Y-96378919D01*
X153333799Y-96314522D01*
X153345808Y-96245693D01*
X153349612Y-96238576D01*
X153402824Y-96146412D01*
X153495654Y-95922300D01*
X153558438Y-95687989D01*
X153590100Y-95447488D01*
X153590100Y-95204912D01*
X153588399Y-95191995D01*
X153572579Y-95071822D01*
X153558438Y-94964411D01*
X153495654Y-94730100D01*
X153495615Y-94730007D01*
X153447474Y-94613783D01*
X153402824Y-94505988D01*
X153281536Y-94295911D01*
X153155522Y-94131686D01*
X153130328Y-94066517D01*
X153144366Y-93998072D01*
X153155522Y-93980714D01*
X153163690Y-93970069D01*
X153281536Y-93816489D01*
X153402824Y-93606412D01*
X153495654Y-93382300D01*
X153558438Y-93147989D01*
X153590100Y-92907488D01*
X153590100Y-92664912D01*
X153558438Y-92424411D01*
X153495654Y-92190100D01*
X153494664Y-92187711D01*
X153419450Y-92006128D01*
X153402824Y-91965988D01*
X153281536Y-91755911D01*
X153155522Y-91591686D01*
X153130328Y-91526517D01*
X153144366Y-91458072D01*
X153155522Y-91440714D01*
X153156699Y-91439179D01*
X153281536Y-91276489D01*
X153402824Y-91066412D01*
X153495654Y-90842300D01*
X153558438Y-90607989D01*
X153590100Y-90367488D01*
X153590100Y-90124912D01*
X153558438Y-89884411D01*
X153495654Y-89650100D01*
X153494664Y-89647711D01*
X153483795Y-89621469D01*
X153402824Y-89425988D01*
X153314322Y-89272699D01*
X153297850Y-89204800D01*
X153320703Y-89138773D01*
X153375624Y-89095582D01*
X153421710Y-89086700D01*
X155320479Y-89086700D01*
X155387518Y-89106385D01*
X155395952Y-89112314D01*
X155497550Y-89190273D01*
X155563496Y-89228347D01*
X155701943Y-89308280D01*
X155701948Y-89308282D01*
X155701951Y-89308284D01*
X155920007Y-89398606D01*
X156147986Y-89459693D01*
X156381989Y-89490500D01*
X156381996Y-89490500D01*
X156618004Y-89490500D01*
X156618011Y-89490500D01*
X156852014Y-89459693D01*
X157079993Y-89398606D01*
X157298049Y-89308284D01*
X157502450Y-89190273D01*
X157689699Y-89046592D01*
X157856592Y-88879699D01*
X158000273Y-88692450D01*
X158118284Y-88488049D01*
X158208606Y-88269993D01*
X158269693Y-88042014D01*
X158300500Y-87808011D01*
X158300500Y-87571989D01*
X158269693Y-87337986D01*
X158208606Y-87110007D01*
X158118284Y-86891951D01*
X158118282Y-86891948D01*
X158118280Y-86891943D01*
X158069159Y-86806864D01*
X158000273Y-86687550D01*
X157895137Y-86550534D01*
X157856593Y-86500302D01*
X157856587Y-86500295D01*
X157689704Y-86333412D01*
X157689697Y-86333406D01*
X157502454Y-86189730D01*
X157502453Y-86189729D01*
X157502450Y-86189727D01*
X157415801Y-86139700D01*
X157298056Y-86071719D01*
X157298045Y-86071714D01*
X157079993Y-85981394D01*
X156852010Y-85920306D01*
X156618020Y-85889501D01*
X156618017Y-85889500D01*
X156618011Y-85889500D01*
X156381989Y-85889500D01*
X156381983Y-85889500D01*
X156381979Y-85889501D01*
X156147989Y-85920306D01*
X155920006Y-85981394D01*
X155701954Y-86071714D01*
X155701943Y-86071719D01*
X155497545Y-86189730D01*
X155353740Y-86300076D01*
X155288571Y-86325270D01*
X155278254Y-86325700D01*
X153421710Y-86325700D01*
X153354671Y-86306015D01*
X153308916Y-86253211D01*
X153298972Y-86184053D01*
X153314323Y-86139700D01*
X153353572Y-86071719D01*
X153402824Y-85986412D01*
X153495654Y-85762300D01*
X153558438Y-85527989D01*
X153590100Y-85287488D01*
X153590100Y-85044912D01*
X153558438Y-84804411D01*
X153495654Y-84570100D01*
X153402824Y-84345988D01*
X153281536Y-84135911D01*
X153133865Y-83943462D01*
X153133860Y-83943456D01*
X152962343Y-83771939D01*
X152962336Y-83771933D01*
X152769893Y-83624267D01*
X152769892Y-83624266D01*
X152769889Y-83624264D01*
X152559812Y-83502976D01*
X152559805Y-83502973D01*
X152335704Y-83410147D01*
X152101385Y-83347361D01*
X151860889Y-83315700D01*
X151860888Y-83315700D01*
X151618312Y-83315700D01*
X151618311Y-83315700D01*
X151377814Y-83347361D01*
X151143495Y-83410147D01*
X150919394Y-83502973D01*
X150919385Y-83502977D01*
X150709306Y-83624267D01*
X150533620Y-83759076D01*
X150468451Y-83784270D01*
X150458134Y-83784700D01*
X147289798Y-83784700D01*
X147222759Y-83765015D01*
X147202117Y-83748381D01*
X146417819Y-82964083D01*
X146384334Y-82902760D01*
X146381500Y-82876402D01*
X146381500Y-78317868D01*
X146381118Y-78313012D01*
X146381381Y-78312991D01*
X146380500Y-78301799D01*
X146380500Y-61725583D01*
X146380501Y-61725558D01*
X146380501Y-61503153D01*
X146346508Y-61288531D01*
X146279358Y-61081867D01*
X146180709Y-60888259D01*
X146163687Y-60864829D01*
X146163687Y-60864828D01*
X146099483Y-60776460D01*
X146052987Y-60712464D01*
X145899336Y-60558813D01*
X145899335Y-60558812D01*
X145896224Y-60555701D01*
X145896209Y-60555687D01*
X144986815Y-59646293D01*
X144953330Y-59584970D01*
X144951557Y-59574797D01*
X144922438Y-59353611D01*
X144859654Y-59119300D01*
X144766824Y-58895188D01*
X144645536Y-58685111D01*
X144497865Y-58492662D01*
X144497860Y-58492656D01*
X144326343Y-58321139D01*
X144326336Y-58321133D01*
X144133893Y-58173467D01*
X144133892Y-58173466D01*
X144133889Y-58173464D01*
X143923812Y-58052176D01*
X143923805Y-58052173D01*
X143699704Y-57959347D01*
X143465385Y-57896561D01*
X143224889Y-57864900D01*
X143224888Y-57864900D01*
X142982312Y-57864900D01*
X142982311Y-57864900D01*
X142741814Y-57896561D01*
X142507495Y-57959347D01*
X142283394Y-58052173D01*
X142283385Y-58052177D01*
X142073306Y-58173467D01*
X141880863Y-58321133D01*
X141880856Y-58321139D01*
X141709339Y-58492656D01*
X141709333Y-58492663D01*
X141649235Y-58570986D01*
X141592808Y-58612189D01*
X141550859Y-58619500D01*
X134851941Y-58619500D01*
X134784902Y-58599815D01*
X134753565Y-58570986D01*
X134693466Y-58492663D01*
X134693460Y-58492656D01*
X134521943Y-58321139D01*
X134521936Y-58321133D01*
X134329493Y-58173467D01*
X134329492Y-58173466D01*
X134329489Y-58173464D01*
X134119412Y-58052176D01*
X134119405Y-58052173D01*
X133895304Y-57959347D01*
X133660985Y-57896561D01*
X133420489Y-57864900D01*
X133420488Y-57864900D01*
X133177912Y-57864900D01*
X133177911Y-57864900D01*
X132937414Y-57896561D01*
X132703095Y-57959347D01*
X132478994Y-58052173D01*
X132478985Y-58052177D01*
X132268906Y-58173467D01*
X132076463Y-58321133D01*
X132076456Y-58321139D01*
X131904939Y-58492656D01*
X131904933Y-58492663D01*
X131844835Y-58570986D01*
X131788408Y-58612189D01*
X131746459Y-58619500D01*
X125047541Y-58619500D01*
X124980502Y-58599815D01*
X124949165Y-58570986D01*
X124889066Y-58492663D01*
X124889060Y-58492656D01*
X124717543Y-58321139D01*
X124717536Y-58321133D01*
X124525093Y-58173467D01*
X124525092Y-58173466D01*
X124525089Y-58173464D01*
X124315012Y-58052176D01*
X124315005Y-58052173D01*
X124090904Y-57959347D01*
X123856585Y-57896561D01*
X123616089Y-57864900D01*
X123616088Y-57864900D01*
X123373512Y-57864900D01*
X123373511Y-57864900D01*
X123133014Y-57896561D01*
X122898695Y-57959347D01*
X122674594Y-58052173D01*
X122674585Y-58052177D01*
X122464506Y-58173467D01*
X122272063Y-58321133D01*
X122272056Y-58321139D01*
X122100539Y-58492656D01*
X122100533Y-58492663D01*
X122040435Y-58570986D01*
X121984008Y-58612189D01*
X121942059Y-58619500D01*
X115243141Y-58619500D01*
X115176102Y-58599815D01*
X115144765Y-58570986D01*
X115084666Y-58492663D01*
X115084660Y-58492656D01*
X114913143Y-58321139D01*
X114913136Y-58321133D01*
X114720693Y-58173467D01*
X114720692Y-58173466D01*
X114720689Y-58173464D01*
X114510612Y-58052176D01*
X114510605Y-58052173D01*
X114286504Y-57959347D01*
X114052185Y-57896561D01*
X113811689Y-57864900D01*
X113811688Y-57864900D01*
X113569112Y-57864900D01*
X113569111Y-57864900D01*
X113328614Y-57896561D01*
X113094295Y-57959347D01*
X112870194Y-58052173D01*
X112870185Y-58052177D01*
X112660106Y-58173467D01*
X112467663Y-58321133D01*
X112467656Y-58321139D01*
X112296139Y-58492656D01*
X112296133Y-58492663D01*
X112236035Y-58570986D01*
X112179608Y-58612189D01*
X112137659Y-58619500D01*
X105438741Y-58619500D01*
X105371702Y-58599815D01*
X105340365Y-58570986D01*
X105280266Y-58492663D01*
X105280260Y-58492656D01*
X105108743Y-58321139D01*
X105108736Y-58321133D01*
X104916293Y-58173467D01*
X104916292Y-58173466D01*
X104916289Y-58173464D01*
X104706212Y-58052176D01*
X104706205Y-58052173D01*
X104482104Y-57959347D01*
X104247785Y-57896561D01*
X104007289Y-57864900D01*
X104007288Y-57864900D01*
X103764712Y-57864900D01*
X103764711Y-57864900D01*
X103524214Y-57896561D01*
X103289895Y-57959347D01*
X103065794Y-58052173D01*
X103065785Y-58052177D01*
X102855706Y-58173467D01*
X102663263Y-58321133D01*
X102663256Y-58321139D01*
X102491739Y-58492656D01*
X102491733Y-58492663D01*
X102431635Y-58570986D01*
X102375208Y-58612189D01*
X102333259Y-58619500D01*
X102113782Y-58619500D01*
X102113758Y-58619499D01*
X102108647Y-58619499D01*
X101891352Y-58619499D01*
X101819812Y-58630830D01*
X101676730Y-58653492D01*
X101676727Y-58653492D01*
X101470073Y-58720638D01*
X101360520Y-58776459D01*
X101282789Y-58816065D01*
X101282787Y-58816066D01*
X101276463Y-58819288D01*
X101276462Y-58819288D01*
X101100667Y-58947010D01*
X101100661Y-58947015D01*
X99447015Y-60600661D01*
X99447010Y-60600667D01*
X99334954Y-60754899D01*
X99334954Y-60754900D01*
X99322653Y-60771830D01*
X99319289Y-60776461D01*
X99220641Y-60970069D01*
X99153491Y-61176734D01*
X99153491Y-61176735D01*
X99119499Y-61391352D01*
X93381500Y-61391352D01*
X93381500Y-55611705D01*
X93401185Y-55544666D01*
X93417819Y-55524024D01*
X103348624Y-45593219D01*
X103409947Y-45559734D01*
X103436305Y-45556900D01*
X108171402Y-45556900D01*
X108238441Y-45576585D01*
X108284196Y-45629389D01*
X108294140Y-45698547D01*
X108265115Y-45762103D01*
X108259083Y-45768581D01*
X103819081Y-50208581D01*
X103757758Y-50242066D01*
X103731400Y-50244900D01*
X102977971Y-50244900D01*
X102977965Y-50244900D01*
X102977964Y-50244901D01*
X102966316Y-50245936D01*
X102858584Y-50255513D01*
X102662954Y-50311489D01*
X102572772Y-50358596D01*
X102482593Y-50405702D01*
X102482591Y-50405703D01*
X102482590Y-50405704D01*
X102324890Y-50534290D01*
X102196304Y-50691990D01*
X102102089Y-50872354D01*
X102046114Y-51067983D01*
X102046113Y-51067986D01*
X102035500Y-51187366D01*
X102035500Y-53003428D01*
X102035501Y-53003436D01*
X102045856Y-53119921D01*
X102032185Y-53188440D01*
X101983639Y-53238690D01*
X101922343Y-53254900D01*
X101753795Y-53254900D01*
X101686756Y-53235215D01*
X101666118Y-53218585D01*
X101575651Y-53128118D01*
X101447888Y-53030081D01*
X101367603Y-52968475D01*
X101140500Y-52837358D01*
X101140490Y-52837353D01*
X100898228Y-52737005D01*
X100898221Y-52737003D01*
X100898219Y-52737002D01*
X100644916Y-52669130D01*
X100587139Y-52661523D01*
X100384927Y-52634900D01*
X100384920Y-52634900D01*
X100122680Y-52634900D01*
X100122672Y-52634900D01*
X99891572Y-52665326D01*
X99862684Y-52669130D01*
X99632830Y-52730719D01*
X99609381Y-52737002D01*
X99609371Y-52737005D01*
X99367109Y-52837353D01*
X99367099Y-52837358D01*
X99139996Y-52968475D01*
X98931948Y-53128118D01*
X98746518Y-53313548D01*
X98586875Y-53521596D01*
X98455758Y-53748699D01*
X98455753Y-53748709D01*
X98355405Y-53990971D01*
X98355402Y-53990981D01*
X98287530Y-54244285D01*
X98253300Y-54504272D01*
X98253300Y-54766527D01*
X98257564Y-54798911D01*
X98287530Y-55026516D01*
X98342884Y-55233100D01*
X98355402Y-55279818D01*
X98355405Y-55279828D01*
X98455753Y-55522090D01*
X98455758Y-55522100D01*
X98586875Y-55749203D01*
X98746518Y-55957251D01*
X98746526Y-55957260D01*
X98931940Y-56142674D01*
X98931948Y-56142681D01*
X99139996Y-56302324D01*
X99367099Y-56433441D01*
X99367109Y-56433446D01*
X99609371Y-56533794D01*
X99609381Y-56533798D01*
X99862684Y-56601670D01*
X100122680Y-56635900D01*
X100122687Y-56635900D01*
X100384913Y-56635900D01*
X100384920Y-56635900D01*
X100644916Y-56601670D01*
X100898219Y-56533798D01*
X101140497Y-56433443D01*
X101367603Y-56302324D01*
X101575651Y-56142682D01*
X101666115Y-56052217D01*
X101727436Y-56018734D01*
X101753795Y-56015900D01*
X102603230Y-56015900D01*
X102670269Y-56035585D01*
X102678716Y-56041524D01*
X102810548Y-56142681D01*
X102855711Y-56177336D01*
X103065788Y-56298624D01*
X103289900Y-56391454D01*
X103524211Y-56454238D01*
X103704586Y-56477984D01*
X103764711Y-56485900D01*
X103764712Y-56485900D01*
X104007289Y-56485900D01*
X104055388Y-56479567D01*
X104247789Y-56454238D01*
X104482100Y-56391454D01*
X104706212Y-56298624D01*
X104916289Y-56177336D01*
X105014085Y-56102294D01*
X105093284Y-56041524D01*
X105158453Y-56016330D01*
X105168770Y-56015900D01*
X112407630Y-56015900D01*
X112474669Y-56035585D01*
X112483116Y-56041524D01*
X112614948Y-56142681D01*
X112660111Y-56177336D01*
X112870188Y-56298624D01*
X113094300Y-56391454D01*
X113328611Y-56454238D01*
X113508986Y-56477984D01*
X113569111Y-56485900D01*
X113569112Y-56485900D01*
X113811689Y-56485900D01*
X113859788Y-56479567D01*
X114052189Y-56454238D01*
X114286500Y-56391454D01*
X114510612Y-56298624D01*
X114720689Y-56177336D01*
X114818485Y-56102294D01*
X114897684Y-56041524D01*
X114962853Y-56016330D01*
X114973170Y-56015900D01*
X122212030Y-56015900D01*
X122279069Y-56035585D01*
X122287516Y-56041524D01*
X122419348Y-56142681D01*
X122464511Y-56177336D01*
X122674588Y-56298624D01*
X122898700Y-56391454D01*
X123133011Y-56454238D01*
X123313386Y-56477984D01*
X123373511Y-56485900D01*
X123373512Y-56485900D01*
X123616089Y-56485900D01*
X123664188Y-56479567D01*
X123856589Y-56454238D01*
X124090900Y-56391454D01*
X124315012Y-56298624D01*
X124525089Y-56177336D01*
X124622885Y-56102294D01*
X124702084Y-56041524D01*
X124767253Y-56016330D01*
X124777570Y-56015900D01*
X132016430Y-56015900D01*
X132083469Y-56035585D01*
X132091916Y-56041524D01*
X132223748Y-56142681D01*
X132268911Y-56177336D01*
X132478988Y-56298624D01*
X132703100Y-56391454D01*
X132937411Y-56454238D01*
X133117786Y-56477984D01*
X133177911Y-56485900D01*
X133177912Y-56485900D01*
X133420489Y-56485900D01*
X133468588Y-56479567D01*
X133660989Y-56454238D01*
X133895300Y-56391454D01*
X134119412Y-56298624D01*
X134329489Y-56177336D01*
X134427285Y-56102294D01*
X134506484Y-56041524D01*
X134571653Y-56016330D01*
X134581970Y-56015900D01*
X141820830Y-56015900D01*
X141887869Y-56035585D01*
X141896316Y-56041524D01*
X142028148Y-56142681D01*
X142073311Y-56177336D01*
X142283388Y-56298624D01*
X142507500Y-56391454D01*
X142741811Y-56454238D01*
X142922186Y-56477984D01*
X142982311Y-56485900D01*
X142982312Y-56485900D01*
X143224889Y-56485900D01*
X143272988Y-56479567D01*
X143465389Y-56454238D01*
X143699700Y-56391454D01*
X143923812Y-56298624D01*
X144133889Y-56177336D01*
X144326338Y-56029665D01*
X144430785Y-55925217D01*
X144492106Y-55891734D01*
X144518465Y-55888900D01*
X145123548Y-55888900D01*
X145190587Y-55908585D01*
X145199022Y-55914515D01*
X145240997Y-55946724D01*
X145241000Y-55946726D01*
X145468099Y-56077841D01*
X145468109Y-56077846D01*
X145708290Y-56177332D01*
X145710381Y-56178198D01*
X145963684Y-56246070D01*
X146223680Y-56280300D01*
X146276616Y-56280300D01*
X146343655Y-56299985D01*
X146364297Y-56316619D01*
X150083181Y-60035503D01*
X150116666Y-60096826D01*
X150119500Y-60123184D01*
X150119500Y-60377230D01*
X150099815Y-60444269D01*
X150093876Y-60452716D01*
X149958067Y-60629706D01*
X149836777Y-60839785D01*
X149836773Y-60839794D01*
X149743947Y-61063895D01*
X149681161Y-61298214D01*
X149649500Y-61538711D01*
X149649500Y-61781288D01*
X149681161Y-62021785D01*
X149743947Y-62256104D01*
X149793895Y-62376688D01*
X149836776Y-62480212D01*
X149958064Y-62690289D01*
X149958066Y-62690292D01*
X149958067Y-62690293D01*
X150105733Y-62882736D01*
X150105739Y-62882743D01*
X150277256Y-63054260D01*
X150277263Y-63054266D01*
X150362278Y-63119500D01*
X150469711Y-63201936D01*
X150679788Y-63323224D01*
X150903900Y-63416054D01*
X151138211Y-63478838D01*
X151318586Y-63502584D01*
X151378711Y-63510500D01*
X151378712Y-63510500D01*
X151621289Y-63510500D01*
X151669388Y-63504167D01*
X151861789Y-63478838D01*
X152096100Y-63416054D01*
X152320212Y-63323224D01*
X152530289Y-63201936D01*
X152722738Y-63054265D01*
X152894265Y-62882738D01*
X153041936Y-62690289D01*
X153163224Y-62480212D01*
X153256054Y-62256100D01*
X153318838Y-62021789D01*
X153350500Y-61781288D01*
X153350500Y-61538712D01*
X153318838Y-61298211D01*
X153256054Y-61063900D01*
X153163224Y-60839788D01*
X153041936Y-60629711D01*
X152985136Y-60555687D01*
X152906124Y-60452716D01*
X152880930Y-60387547D01*
X152880500Y-60377230D01*
X152880500Y-59613783D01*
X152880501Y-59613758D01*
X152880501Y-59391353D01*
X152846508Y-59176731D01*
X152779358Y-58970067D01*
X152700890Y-58816066D01*
X152680710Y-58776460D01*
X152597850Y-58662413D01*
X152566672Y-58619500D01*
X152552992Y-58600670D01*
X152552989Y-58600667D01*
X152552987Y-58600664D01*
X152399336Y-58447013D01*
X152399335Y-58447012D01*
X152396224Y-58443901D01*
X152396209Y-58443887D01*
X151804431Y-57852109D01*
X151770946Y-57790786D01*
X151775930Y-57721094D01*
X151817802Y-57665161D01*
X151860015Y-57644654D01*
X152081700Y-57585254D01*
X152305812Y-57492424D01*
X152515889Y-57371136D01*
X152708338Y-57223465D01*
X152879865Y-57051938D01*
X153027536Y-56859489D01*
X153148824Y-56649412D01*
X153241654Y-56425300D01*
X153304438Y-56190989D01*
X153336100Y-55950488D01*
X153336100Y-55707912D01*
X153304438Y-55467411D01*
X153241654Y-55233100D01*
X153148824Y-55008988D01*
X153027536Y-54798911D01*
X152901522Y-54634686D01*
X152876328Y-54569517D01*
X152890366Y-54501072D01*
X152901522Y-54483714D01*
X152902699Y-54482179D01*
X153027536Y-54319489D01*
X153148824Y-54109412D01*
X153241654Y-53885300D01*
X153304438Y-53650989D01*
X153336100Y-53410488D01*
X153336100Y-53167912D01*
X153304438Y-52927411D01*
X153241654Y-52693100D01*
X153148824Y-52468988D01*
X153027536Y-52258911D01*
X152901522Y-52094686D01*
X152876328Y-52029517D01*
X152890366Y-51961072D01*
X152901522Y-51943714D01*
X152902699Y-51942179D01*
X153027536Y-51779489D01*
X153148824Y-51569412D01*
X153241654Y-51345300D01*
X153304438Y-51110989D01*
X153336100Y-50870488D01*
X153336100Y-50627912D01*
X153304438Y-50387411D01*
X153241654Y-50153100D01*
X153148824Y-49928988D01*
X153148818Y-49928977D01*
X153095623Y-49836839D01*
X153079150Y-49768939D01*
X153102003Y-49702912D01*
X153106898Y-49696492D01*
X153175298Y-49612607D01*
X153269509Y-49432249D01*
X153325486Y-49236618D01*
X153336100Y-49117237D01*
X153336099Y-47301164D01*
X153325486Y-47181782D01*
X153292349Y-47065973D01*
X153292832Y-46996107D01*
X153331012Y-46937591D01*
X153394767Y-46909006D01*
X153463855Y-46919427D01*
X153499246Y-46944182D01*
X153649181Y-47094117D01*
X153682666Y-47155440D01*
X153685500Y-47181798D01*
X153685500Y-65213202D01*
X153665815Y-65280241D01*
X153649181Y-65300883D01*
X151567264Y-67382799D01*
X151505941Y-67416284D01*
X151495768Y-67418057D01*
X151276214Y-67446961D01*
X151041895Y-67509747D01*
X150817794Y-67602573D01*
X150817785Y-67602577D01*
X150607706Y-67723867D01*
X150415263Y-67871533D01*
X150415256Y-67871539D01*
X150243739Y-68043056D01*
X150243733Y-68043063D01*
X150096067Y-68235506D01*
X149974777Y-68445585D01*
X149974773Y-68445594D01*
X149881947Y-68669695D01*
X149819161Y-68904014D01*
X149787500Y-69144511D01*
X149787500Y-69387088D01*
X149819161Y-69627585D01*
X149881947Y-69861904D01*
X149934198Y-69988049D01*
X149974776Y-70086012D01*
X150096064Y-70296089D01*
X150096066Y-70296092D01*
X150096067Y-70296093D01*
X150222077Y-70460314D01*
X150247271Y-70525483D01*
X150233232Y-70593928D01*
X150222077Y-70611286D01*
X150096067Y-70775506D01*
X149974777Y-70985585D01*
X149974773Y-70985594D01*
X149881947Y-71209695D01*
X149819161Y-71444014D01*
X149787500Y-71684511D01*
X149787500Y-71927088D01*
X149819161Y-72167585D01*
X149881947Y-72401904D01*
X149958939Y-72587778D01*
X149974776Y-72626012D01*
X150096064Y-72836089D01*
X150096066Y-72836092D01*
X150096067Y-72836093D01*
X150222077Y-73000314D01*
X150247271Y-73065483D01*
X150233232Y-73133928D01*
X150222077Y-73151286D01*
X150096067Y-73315506D01*
X149974777Y-73525585D01*
X149974773Y-73525594D01*
X149881947Y-73749695D01*
X149819161Y-73984014D01*
X149787500Y-74224511D01*
X149787500Y-74467088D01*
X149819161Y-74707585D01*
X149881947Y-74941904D01*
X149974773Y-75166005D01*
X149974777Y-75166015D01*
X150027976Y-75258158D01*
X150044449Y-75326059D01*
X150021596Y-75392085D01*
X150016692Y-75398518D01*
X149948303Y-75482391D01*
X149854089Y-75662754D01*
X149798114Y-75858383D01*
X149798113Y-75858386D01*
X149787500Y-75977766D01*
X149787500Y-77793828D01*
X149787501Y-77793834D01*
X149798113Y-77913215D01*
X149854089Y-78108845D01*
X149854090Y-78108848D01*
X149854091Y-78108849D01*
X149948302Y-78289207D01*
X149971672Y-78317868D01*
X150076890Y-78446909D01*
X150154969Y-78510573D01*
X150234593Y-78575498D01*
X150414951Y-78669709D01*
X150610582Y-78725686D01*
X150729963Y-78736300D01*
X152546036Y-78736299D01*
X152665418Y-78725686D01*
X152861049Y-78669709D01*
X153041407Y-78575498D01*
X153199109Y-78446909D01*
X153327698Y-78289207D01*
X153421909Y-78108849D01*
X153477886Y-77913218D01*
X153488500Y-77793837D01*
X153488499Y-77040396D01*
X153508183Y-76973358D01*
X153524813Y-76952721D01*
X159306749Y-71170787D01*
X159434565Y-70994864D01*
X159482016Y-70901735D01*
X159533286Y-70801112D01*
X159600483Y-70594302D01*
X159608039Y-70546593D01*
X159634500Y-70379531D01*
X159634500Y-45129790D01*
X159634500Y-45129789D01*
X159634324Y-45128674D01*
X159600483Y-44915012D01*
X159533286Y-44708203D01*
X159490719Y-44624661D01*
X159434565Y-44514451D01*
X159346824Y-44393686D01*
X159336805Y-44379896D01*
X159306752Y-44338530D01*
X159306750Y-44338528D01*
X156180401Y-41212181D01*
X156146916Y-41150858D01*
X156151900Y-41081166D01*
X156193772Y-41025233D01*
X156259236Y-41000816D01*
X156268082Y-41000500D01*
X161875500Y-41000500D01*
X161942539Y-41020185D01*
G37*
%TD.AperFunction*%
%TD*%
M02*
