%TF.GenerationSoftware,KiCad,Pcbnew,10.0.6*%
%TF.CreationDate,2026-09-08T16:28:22-03:00*%
%TF.ProjectId,PCB Sensores,50434220-5365-46e7-936f-7265732e6b69,rev?*%
%TF.SameCoordinates,Original*%
%TF.FileFunction,Copper,L1,Top*%
%TF.FilePolarity,Positive*%
%FSLAX46Y46*%
G04 Gerber Fmt 4.6, Leading zero omitted, Abs format (unit mm)*
G04 Created by KiCad (PCBNEW 10.0.6) date 2026-09-08 16:28:22*
%MOMM*%
%LPD*%
G01*
G04 APERTURE LIST*
%ADD10C,0.300000*%
%TA.AperFunction,NonConductor*%
%ADD11C,0.300000*%
%TD*%
%TA.AperFunction,NonConductor*%
%ADD12C,0.200000*%
%TD*%
%TA.AperFunction,ComponentPad*%
%ADD13R,1.700000X1.700000*%
%TD*%
%TA.AperFunction,ComponentPad*%
%ADD14C,1.700000*%
%TD*%
%TA.AperFunction,ComponentPad*%
%ADD15C,1.600000*%
%TD*%
%TA.AperFunction,ViaPad*%
%ADD16C,2.000000*%
%TD*%
%TA.AperFunction,Conductor*%
%ADD17C,0.760000*%
%TD*%
G04 APERTURE END LIST*
D10*
D11*
X123464286Y-151378328D02*
X124464286Y-151378328D01*
X124464286Y-151378328D02*
X123821429Y-152878328D01*
X125750000Y-151378328D02*
X125035714Y-151378328D01*
X125035714Y-151378328D02*
X124964286Y-152092614D01*
X124964286Y-152092614D02*
X125035714Y-152021185D01*
X125035714Y-152021185D02*
X125178572Y-151949757D01*
X125178572Y-151949757D02*
X125535714Y-151949757D01*
X125535714Y-151949757D02*
X125678572Y-152021185D01*
X125678572Y-152021185D02*
X125750000Y-152092614D01*
X125750000Y-152092614D02*
X125821429Y-152235471D01*
X125821429Y-152235471D02*
X125821429Y-152592614D01*
X125821429Y-152592614D02*
X125750000Y-152735471D01*
X125750000Y-152735471D02*
X125678572Y-152806900D01*
X125678572Y-152806900D02*
X125535714Y-152878328D01*
X125535714Y-152878328D02*
X125178572Y-152878328D01*
X125178572Y-152878328D02*
X125035714Y-152806900D01*
X125035714Y-152806900D02*
X124964286Y-152735471D01*
X126535714Y-152806900D02*
X126535714Y-152878328D01*
X126535714Y-152878328D02*
X126464285Y-153021185D01*
X126464285Y-153021185D02*
X126392857Y-153092614D01*
X127892857Y-151378328D02*
X127178571Y-151378328D01*
X127178571Y-151378328D02*
X127107143Y-152092614D01*
X127107143Y-152092614D02*
X127178571Y-152021185D01*
X127178571Y-152021185D02*
X127321429Y-151949757D01*
X127321429Y-151949757D02*
X127678571Y-151949757D01*
X127678571Y-151949757D02*
X127821429Y-152021185D01*
X127821429Y-152021185D02*
X127892857Y-152092614D01*
X127892857Y-152092614D02*
X127964286Y-152235471D01*
X127964286Y-152235471D02*
X127964286Y-152592614D01*
X127964286Y-152592614D02*
X127892857Y-152735471D01*
X127892857Y-152735471D02*
X127821429Y-152806900D01*
X127821429Y-152806900D02*
X127678571Y-152878328D01*
X127678571Y-152878328D02*
X127321429Y-152878328D01*
X127321429Y-152878328D02*
X127178571Y-152806900D01*
X127178571Y-152806900D02*
X127107143Y-152735471D01*
D12*
X163500000Y-145500000D02*
X163500000Y-154586420D01*
X88000000Y-154586420D02*
X88000000Y-145500000D01*
X163500000Y-154000000D02*
X88000000Y-154000000D01*
X163500000Y-154000000D02*
X162373496Y-154586421D01*
X163500000Y-154000000D02*
X162373496Y-153413579D01*
X88000000Y-154000000D02*
X89126504Y-153413579D01*
X88000000Y-154000000D02*
X89126504Y-154586421D01*
D10*
D11*
X172878328Y-93499998D02*
X172878328Y-94357141D01*
X172878328Y-93928570D02*
X171378328Y-93928570D01*
X171378328Y-93928570D02*
X171592614Y-94071427D01*
X171592614Y-94071427D02*
X171735471Y-94214284D01*
X171735471Y-94214284D02*
X171806900Y-94357141D01*
X171378328Y-92571427D02*
X171378328Y-92428570D01*
X171378328Y-92428570D02*
X171449757Y-92285713D01*
X171449757Y-92285713D02*
X171521185Y-92214285D01*
X171521185Y-92214285D02*
X171664042Y-92142856D01*
X171664042Y-92142856D02*
X171949757Y-92071427D01*
X171949757Y-92071427D02*
X172306900Y-92071427D01*
X172306900Y-92071427D02*
X172592614Y-92142856D01*
X172592614Y-92142856D02*
X172735471Y-92214285D01*
X172735471Y-92214285D02*
X172806900Y-92285713D01*
X172806900Y-92285713D02*
X172878328Y-92428570D01*
X172878328Y-92428570D02*
X172878328Y-92571427D01*
X172878328Y-92571427D02*
X172806900Y-92714285D01*
X172806900Y-92714285D02*
X172735471Y-92785713D01*
X172735471Y-92785713D02*
X172592614Y-92857142D01*
X172592614Y-92857142D02*
X172306900Y-92928570D01*
X172306900Y-92928570D02*
X171949757Y-92928570D01*
X171949757Y-92928570D02*
X171664042Y-92857142D01*
X171664042Y-92857142D02*
X171521185Y-92785713D01*
X171521185Y-92785713D02*
X171449757Y-92714285D01*
X171449757Y-92714285D02*
X171378328Y-92571427D01*
X171378328Y-90714285D02*
X171378328Y-91428571D01*
X171378328Y-91428571D02*
X172092614Y-91499999D01*
X172092614Y-91499999D02*
X172021185Y-91428571D01*
X172021185Y-91428571D02*
X171949757Y-91285714D01*
X171949757Y-91285714D02*
X171949757Y-90928571D01*
X171949757Y-90928571D02*
X172021185Y-90785714D01*
X172021185Y-90785714D02*
X172092614Y-90714285D01*
X172092614Y-90714285D02*
X172235471Y-90642856D01*
X172235471Y-90642856D02*
X172592614Y-90642856D01*
X172592614Y-90642856D02*
X172735471Y-90714285D01*
X172735471Y-90714285D02*
X172806900Y-90785714D01*
X172806900Y-90785714D02*
X172878328Y-90928571D01*
X172878328Y-90928571D02*
X172878328Y-91285714D01*
X172878328Y-91285714D02*
X172806900Y-91428571D01*
X172806900Y-91428571D02*
X172735471Y-91499999D01*
D12*
X163500000Y-40000000D02*
X174586420Y-40000000D01*
X174586420Y-145000000D02*
X164000000Y-145000000D01*
X174000000Y-40000000D02*
X174000000Y-145000000D01*
X174000000Y-40000000D02*
X174586421Y-41126504D01*
X174000000Y-40000000D02*
X173413579Y-41126504D01*
X174000000Y-145000000D02*
X173413579Y-143873496D01*
X174000000Y-145000000D02*
X174586421Y-143873496D01*
D13*
%TO.P,Sensor_7,1,Pin_1_1*%
%TO.N,LED_7*%
X100304600Y-70002400D03*
D14*
%TO.P,Sensor_7,2,Pin_2_2*%
%TO.N,VIN*%
X102844600Y-70002400D03*
%TO.P,Sensor_7,3,Pin_3_3*%
%TO.N,GND*%
X105384600Y-70002400D03*
%TO.P,Sensor_7,4,Pin_4_4*%
%TO.N,SCL*%
X107924600Y-70002400D03*
%TO.P,Sensor_7,5,Pin_5_5*%
%TO.N,SDA_7*%
X110464600Y-70002400D03*
%TD*%
D13*
%TO.P,Sensor_4,1,Pin_1_1*%
%TO.N,LED_4*%
X100304600Y-99415600D03*
D14*
%TO.P,Sensor_4,2,Pin_2_2*%
%TO.N,VIN*%
X102844600Y-99415600D03*
%TO.P,Sensor_4,3,Pin_3_3*%
%TO.N,GND*%
X105384600Y-99415600D03*
%TO.P,Sensor_4,4,Pin_4_4*%
%TO.N,SCL*%
X107924600Y-99415600D03*
%TO.P,Sensor_4,5,Pin_5_5*%
%TO.N,SDA_4*%
X110464600Y-99415600D03*
%TD*%
D13*
%TO.P,Sensor_1,1,Pin_1_1*%
%TO.N,LED_1*%
X100304600Y-128828800D03*
D14*
%TO.P,Sensor_1,2,Pin_2_2*%
%TO.N,VIN*%
X102844600Y-128828800D03*
%TO.P,Sensor_1,3,Pin_3_3*%
%TO.N,GND*%
X105384600Y-128828800D03*
%TO.P,Sensor_1,4,Pin_4_4*%
%TO.N,SCL*%
X107924600Y-128828800D03*
%TO.P,Sensor_1,5,Pin_5_5*%
%TO.N,SDA_1*%
X110464600Y-128828800D03*
%TD*%
D13*
%TO.P,Arduino_1,1,Pin_1_1*%
%TO.N,Net-(Arduino_1-Pin_1)*%
X151739600Y-97866200D03*
D14*
%TO.P,Arduino_1,2,Pin_2_2*%
%TO.N,Net-(Arduino_1-Pin_2)*%
X151739600Y-95326200D03*
%TO.P,Arduino_1,3,Pin_3_3*%
%TO.N,Net-(Arduino_1-Pin_3)*%
X151739600Y-92786200D03*
%TO.P,Arduino_1,4,Pin_4_4*%
%TO.N,Net-(Arduino_1-Pin_4)*%
X151739600Y-90246200D03*
%TO.P,Arduino_1,5,Pin_5_5*%
%TO.N,SDA*%
X151739600Y-87706200D03*
%TO.P,Arduino_1,6,Pin_6_6*%
%TO.N,SCL*%
X151739600Y-85166200D03*
%TD*%
D13*
%TO.P,Sensor_9,1,Pin_1_1*%
%TO.N,LED_9*%
X113690400Y-52095400D03*
D14*
%TO.P,Sensor_9,2,Pin_2_2*%
%TO.N,VIN*%
X113690400Y-54635400D03*
%TO.P,Sensor_9,3,Pin_3_3*%
%TO.N,GND*%
X113690400Y-57175400D03*
%TO.P,Sensor_9,4,Pin_4_4*%
%TO.N,SCL*%
X113690400Y-59715400D03*
%TO.P,Sensor_9,5,Pin_5_5*%
%TO.N,SDA_9*%
X113690400Y-62255400D03*
%TD*%
D15*
%TO.P,R1,1*%
%TO.N,VIN*%
X138500000Y-69190000D03*
%TO.P,R1,2*%
%TO.N,SCL*%
X138500000Y-76810000D03*
%TD*%
D13*
%TO.P,Sensor_2,1,Pin_1_1*%
%TO.N,LED_2*%
X100304600Y-119024400D03*
D14*
%TO.P,Sensor_2,2,Pin_2_2*%
%TO.N,VIN*%
X102844600Y-119024400D03*
%TO.P,Sensor_2,3,Pin_3_3*%
%TO.N,GND*%
X105384600Y-119024400D03*
%TO.P,Sensor_2,4,Pin_4_4*%
%TO.N,SCL*%
X107924600Y-119024400D03*
%TO.P,Sensor_2,5,Pin_5_5*%
%TO.N,SDA_2*%
X110464600Y-119024400D03*
%TD*%
%TO.P,U1,JP1-1,C0_JP1-1*%
%TO.N,SDA_1*%
X123571000Y-118618000D03*
%TO.P,U1,JP1-2,C1_JP1-2*%
%TO.N,SDA_2*%
X123571000Y-116078000D03*
%TO.P,U1,JP1-3,C2_JP1-3*%
%TO.N,SDA_3*%
X123571000Y-113538000D03*
%TO.P,U1,JP1-4,C3_JP1-4*%
%TO.N,SDA_4*%
X123571000Y-110998000D03*
%TO.P,U1,JP1-5,C4_JP1-5*%
%TO.N,SDA_5*%
X123571000Y-108458000D03*
%TO.P,U1,JP1-6,C5_JP1-6*%
%TO.N,SDA_6*%
X123571000Y-105918000D03*
%TO.P,U1,JP1-7,C6_JP1-7*%
%TO.N,SDA_7*%
X123571000Y-103378000D03*
%TO.P,U1,JP1-8,C7_JP1-8*%
%TO.N,SDA_8*%
X123571000Y-100838000D03*
%TO.P,U1,JP1-9,C8_JP1-9*%
%TO.N,SDA_9*%
X123571000Y-98298000D03*
%TO.P,U1,JP1-10,C9_JP1-10*%
%TO.N,SDA_10*%
X123571000Y-95758000D03*
%TO.P,U1,JP1-11,C10_JP1-11*%
%TO.N,SDA_11*%
X123571000Y-93218000D03*
%TO.P,U1,JP1-12,C11_JP1-12*%
%TO.N,SDA_12*%
X123571000Y-90678000D03*
%TO.P,U1,JP1-13,C12_JP1-13*%
%TO.N,unconnected-(U1-C12-PadJP1-13)*%
X123571000Y-88138000D03*
%TO.P,U1,JP1-14,C13_JP1-14*%
%TO.N,unconnected-(U1-C13-PadJP1-14)*%
X123571000Y-85598000D03*
%TO.P,U1,JP1-15,C14_JP1-15*%
%TO.N,unconnected-(U1-C14-PadJP1-15)*%
X123571000Y-83058000D03*
%TO.P,U1,JP1-16,C15_JP1-16*%
%TO.N,unconnected-(U1-C15-PadJP1-16)*%
X123571000Y-80518000D03*
D13*
%TO.P,U1,JP3-1,GND_JP3-1*%
%TO.N,GND*%
X138811000Y-108458000D03*
D14*
%TO.P,U1,JP3-2,VCC_JP3-2*%
%TO.N,VIN*%
X138811000Y-105918000D03*
%TO.P,U1,JP3-3,EN_JP3-3*%
%TO.N,GND*%
X138811000Y-103378000D03*
%TO.P,U1,JP3-4,S0_JP3-4*%
%TO.N,Net-(Arduino_1-Pin_1)*%
X138811000Y-100838000D03*
%TO.P,U1,JP3-5,S1_JP3-5*%
%TO.N,Net-(Arduino_1-Pin_2)*%
X138811000Y-98298000D03*
%TO.P,U1,JP3-6,S2_JP3-6*%
%TO.N,Net-(Arduino_1-Pin_3)*%
X138811000Y-95758000D03*
%TO.P,U1,JP3-7,S3_JP3-7*%
%TO.N,Net-(Arduino_1-Pin_4)*%
X138811000Y-93218000D03*
%TO.P,U1,JP3-8,COM_JP3-8*%
%TO.N,SDA*%
X138811000Y-90678000D03*
%TD*%
D13*
%TO.P,JArduino_4,1,Pin_1_1*%
%TO.N,LED_9*%
X151485600Y-48209200D03*
D14*
%TO.P,JArduino_4,2,Pin_2_2*%
%TO.N,LED_10*%
X151485600Y-50749200D03*
%TO.P,JArduino_4,3,Pin_3_3*%
%TO.N,LED_11*%
X151485600Y-53289200D03*
%TO.P,JArduino_4,4,Pin_4_4*%
%TO.N,LED_12*%
X151485600Y-55829200D03*
%TD*%
D13*
%TO.P,Sensor_3,1,Pin_1_1*%
%TO.N,LED_3*%
X100304600Y-109220000D03*
D14*
%TO.P,Sensor_3,2,Pin_2_2*%
%TO.N,VIN*%
X102844600Y-109220000D03*
%TO.P,Sensor_3,3,Pin_3_3*%
%TO.N,GND*%
X105384600Y-109220000D03*
%TO.P,Sensor_3,4,Pin_4_4*%
%TO.N,SCL*%
X107924600Y-109220000D03*
%TO.P,Sensor_3,5,Pin_5_5*%
%TO.N,SDA_3*%
X110464600Y-109220000D03*
%TD*%
D15*
%TO.P,R2,1*%
%TO.N,VIN*%
X156500000Y-95310000D03*
%TO.P,R2,2*%
%TO.N,SDA*%
X156500000Y-87690000D03*
%TD*%
D13*
%TO.P,Sensor_12,1,Pin_1_1*%
%TO.N,LED_12*%
X143103600Y-52095400D03*
D14*
%TO.P,Sensor_12,2,Pin_2_2*%
%TO.N,VIN*%
X143103600Y-54635400D03*
%TO.P,Sensor_12,3,Pin_3_3*%
%TO.N,GND*%
X143103600Y-57175400D03*
%TO.P,Sensor_12,4,Pin_4_4*%
%TO.N,SCL*%
X143103600Y-59715400D03*
%TO.P,Sensor_12,5,Pin_5_5*%
%TO.N,SDA_12*%
X143103600Y-62255400D03*
%TD*%
D13*
%TO.P,Sensor_11,1,Pin_1_1*%
%TO.N,LED_11*%
X133299200Y-52095400D03*
D14*
%TO.P,Sensor_11,2,Pin_2_2*%
%TO.N,VIN*%
X133299200Y-54635400D03*
%TO.P,Sensor_11,3,Pin_3_3*%
%TO.N,GND*%
X133299200Y-57175400D03*
%TO.P,Sensor_11,4,Pin_4_4*%
%TO.N,SCL*%
X133299200Y-59715400D03*
%TO.P,Sensor_11,5,Pin_5_5*%
%TO.N,SDA_11*%
X133299200Y-62255400D03*
%TD*%
D13*
%TO.P,Sensor_5,1,Pin_1_1*%
%TO.N,LED_5*%
X100304600Y-89611200D03*
D14*
%TO.P,Sensor_5,2,Pin_2_2*%
%TO.N,VIN*%
X102844600Y-89611200D03*
%TO.P,Sensor_5,3,Pin_3_3*%
%TO.N,GND*%
X105384600Y-89611200D03*
%TO.P,Sensor_5,4,Pin_4_4*%
%TO.N,SCL*%
X107924600Y-89611200D03*
%TO.P,Sensor_5,5,Pin_5_5*%
%TO.N,SDA_5*%
X110464600Y-89611200D03*
%TD*%
D13*
%TO.P,Sensor_6,1,Pin_1_1*%
%TO.N,LED_6*%
X100304600Y-79806800D03*
D14*
%TO.P,Sensor_6,2,Pin_2_2*%
%TO.N,VIN*%
X102844600Y-79806800D03*
%TO.P,Sensor_6,3,Pin_3_3*%
%TO.N,GND*%
X105384600Y-79806800D03*
%TO.P,Sensor_6,4,Pin_4_4*%
%TO.N,SCL*%
X107924600Y-79806800D03*
%TO.P,Sensor_6,5,Pin_5_5*%
%TO.N,SDA_6*%
X110464600Y-79806800D03*
%TD*%
D13*
%TO.P,Arduino_2,1,Pin_1_1*%
%TO.N,LED_1*%
X151638000Y-123875800D03*
D14*
%TO.P,Arduino_2,2,Pin_2_2*%
%TO.N,LED_2*%
X151638000Y-121335800D03*
%TO.P,Arduino_2,3,Pin_3_3*%
%TO.N,LED_3*%
X151638000Y-118795800D03*
%TO.P,Arduino_2,4,Pin_4_4*%
%TO.N,LED_4*%
X151638000Y-116255800D03*
%TD*%
D13*
%TO.P,Alimenta\u00E7\u00E3o2,1,Pin_1_1*%
%TO.N,GND*%
X151500000Y-64200000D03*
D14*
%TO.P,Alimenta\u00E7\u00E3o2,2,Pin_2_2*%
%TO.N,VIN*%
X151500000Y-61660000D03*
%TD*%
D13*
%TO.P,Alimenta\u00E7\u00E3o1,1,Pin_1_1*%
%TO.N,GND*%
X151638000Y-108432600D03*
D14*
%TO.P,Alimenta\u00E7\u00E3o1,2,Pin_2_2*%
%TO.N,VIN*%
X151638000Y-105892600D03*
%TD*%
D13*
%TO.P,Sensor_10,1,Pin_1_1*%
%TO.N,LED_10*%
X123494800Y-52095400D03*
D14*
%TO.P,Sensor_10,2,Pin_2_2*%
%TO.N,VIN*%
X123494800Y-54635400D03*
%TO.P,Sensor_10,3,Pin_3_3*%
%TO.N,GND*%
X123494800Y-57175400D03*
%TO.P,Sensor_10,4,Pin_4_4*%
%TO.N,SCL*%
X123494800Y-59715400D03*
%TO.P,Sensor_10,5,Pin_5_5*%
%TO.N,SDA_10*%
X123494800Y-62255400D03*
%TD*%
D13*
%TO.P,Sensor_8,1,Pin_1_1*%
%TO.N,LED_8*%
X103886000Y-52095400D03*
D14*
%TO.P,Sensor_8,2,Pin_2_2*%
%TO.N,VIN*%
X103886000Y-54635400D03*
%TO.P,Sensor_8,3,Pin_3_3*%
%TO.N,GND*%
X103886000Y-57175400D03*
%TO.P,Sensor_8,4,Pin_4_4*%
%TO.N,SCL*%
X103886000Y-59715400D03*
%TO.P,Sensor_8,5,Pin_5_5*%
%TO.N,SDA_8*%
X103886000Y-62255400D03*
%TD*%
D13*
%TO.P,Arduino_3,1,Pin_1_1*%
%TO.N,LED_5*%
X151638000Y-76885800D03*
D14*
%TO.P,Arduino_3,2,Pin_2_2*%
%TO.N,LED_6*%
X151638000Y-74345800D03*
%TO.P,Arduino_3,3,Pin_3_3*%
%TO.N,LED_7*%
X151638000Y-71805800D03*
%TO.P,Arduino_3,4,Pin_4_4*%
%TO.N,LED_8*%
X151638000Y-69265800D03*
%TD*%
D16*
%TO.N,VIN*%
X143000000Y-69000000D03*
X145084800Y-108534200D03*
X146354800Y-54279800D03*
X100253800Y-54635400D03*
X102844600Y-132000000D03*
X96570800Y-66000000D03*
%TD*%
%TO.N,VIN*%
D17*
X145500000Y-69000000D02*
X148000000Y-71500000D01*
X143000000Y-69000000D02*
X145500000Y-69000000D01*
X118119000Y-135500000D02*
X145084800Y-108534200D01*
X106344600Y-135500000D02*
X118119000Y-135500000D01*
X102844600Y-132000000D02*
X106344600Y-135500000D01*
X96570800Y-66000000D02*
X96570800Y-58318400D01*
X96570800Y-58318400D02*
X100253800Y-54635400D01*
X148000000Y-55925000D02*
X148000000Y-71500000D01*
X146354800Y-54279800D02*
X148000000Y-55925000D01*
X148000000Y-71500000D02*
X148000000Y-101834400D01*
X148000000Y-101834400D02*
X145084800Y-104749600D01*
X145084800Y-104749600D02*
X145084800Y-108534200D01*
%TD*%
M02*
