M48
; DRILL file KiCad 10.0.6 date 2026-09-08T16:28:24
; FORMAT={-:-/ absolute / metric / decimal}
; #@! TF.CreationDate,2026-09-08T16:28:24-03:00
; #@! TF.GenerationSoftware,Kicad,Pcbnew,10.0.6
; #@! TF.FileFunction,Plated,1,2,PTH
FMAT,2
METRIC
; #@! TA.AperFunction,Plated,PTH,ViaDrill
T1C0.800
; #@! TA.AperFunction,Plated,PTH,ComponentDrill
T2C0.800
; #@! TA.AperFunction,Plated,PTH,ComponentDrill
T3C1.000
; #@! TA.AperFunction,Plated,PTH,ComponentDrill
T4C1.020
%
G90
G05
T1
X96.571Y-66.0
X100.254Y-54.635
X102.845Y-132.0
X143.0Y-69.0
X145.085Y-108.534
X146.355Y-54.28
T2
X138.5Y-69.19
X138.5Y-76.81
X156.5Y-87.69
X156.5Y-95.31
T3
X100.305Y-70.002
X100.305Y-79.807
X100.305Y-89.611
X100.305Y-99.416
X100.305Y-109.22
X100.305Y-119.024
X100.305Y-128.829
X102.845Y-70.002
X102.845Y-79.807
X102.845Y-89.611
X102.845Y-99.416
X102.845Y-109.22
X102.845Y-119.024
X102.845Y-128.829
X103.886Y-52.095
X103.886Y-54.635
X103.886Y-57.175
X103.886Y-59.715
X103.886Y-62.255
X105.385Y-70.002
X105.385Y-79.807
X105.385Y-89.611
X105.385Y-99.416
X105.385Y-109.22
X105.385Y-119.024
X105.385Y-128.829
X107.925Y-70.002
X107.925Y-79.807
X107.925Y-89.611
X107.925Y-99.416
X107.925Y-109.22
X107.925Y-119.024
X107.925Y-128.829
X110.465Y-70.002
X110.465Y-79.807
X110.465Y-89.611
X110.465Y-99.416
X110.465Y-109.22
X110.465Y-119.024
X110.465Y-128.829
X113.69Y-52.095
X113.69Y-54.635
X113.69Y-57.175
X113.69Y-59.715
X113.69Y-62.255
X123.495Y-52.095
X123.495Y-54.635
X123.495Y-57.175
X123.495Y-59.715
X123.495Y-62.255
X133.299Y-52.095
X133.299Y-54.635
X133.299Y-57.175
X133.299Y-59.715
X133.299Y-62.255
X143.104Y-52.095
X143.104Y-54.635
X143.104Y-57.175
X143.104Y-59.715
X143.104Y-62.255
X151.486Y-48.209
X151.486Y-50.749
X151.486Y-53.289
X151.486Y-55.829
X151.5Y-61.66
X151.5Y-64.2
X151.638Y-69.266
X151.638Y-71.806
X151.638Y-74.346
X151.638Y-76.886
X151.638Y-105.893
X151.638Y-108.433
X151.638Y-116.256
X151.638Y-118.796
X151.638Y-121.336
X151.638Y-123.876
X151.74Y-85.166
X151.74Y-87.706
X151.74Y-90.246
X151.74Y-92.786
X151.74Y-95.326
X151.74Y-97.866
T4
X123.571Y-80.518
X123.571Y-83.058
X123.571Y-85.598
X123.571Y-88.138
X123.571Y-90.678
X123.571Y-93.218
X123.571Y-95.758
X123.571Y-98.298
X123.571Y-100.838
X123.571Y-103.378
X123.571Y-105.918
X123.571Y-108.458
X123.571Y-110.998
X123.571Y-113.538
X123.571Y-116.078
X123.571Y-118.618
X138.811Y-90.678
X138.811Y-93.218
X138.811Y-95.758
X138.811Y-98.298
X138.811Y-100.838
X138.811Y-103.378
X138.811Y-105.918
X138.811Y-108.458
M30
