%TF.GenerationSoftware,KiCad,Pcbnew,10.0.6*%
%TF.CreationDate,2026-09-08T16:28:22-03:00*%
%TF.ProjectId,PCB Sensores,50434220-5365-46e7-936f-7265732e6b69,rev?*%
%TF.SameCoordinates,Original*%
%TF.FileFunction,Legend,Top*%
%TF.FilePolarity,Positive*%
%FSLAX46Y46*%
G04 Gerber Fmt 4.6, Leading zero omitted, Abs format (unit mm)*
G04 Created by KiCad (PCBNEW 10.0.6) date 2026-09-08 16:28:22*
%MOMM*%
%LPD*%
G01*
G04 APERTURE LIST*
%ADD10C,0.150000*%
%ADD11C,0.120000*%
%ADD12C,0.127000*%
%ADD13C,0.200000*%
G04 APERTURE END LIST*
D10*
X97941800Y-73192876D02*
X97989419Y-73050019D01*
X97989419Y-73050019D02*
X97989419Y-72811924D01*
X97989419Y-72811924D02*
X97941800Y-72716686D01*
X97941800Y-72716686D02*
X97894180Y-72669067D01*
X97894180Y-72669067D02*
X97798942Y-72621448D01*
X97798942Y-72621448D02*
X97703704Y-72621448D01*
X97703704Y-72621448D02*
X97608466Y-72669067D01*
X97608466Y-72669067D02*
X97560847Y-72716686D01*
X97560847Y-72716686D02*
X97513228Y-72811924D01*
X97513228Y-72811924D02*
X97465609Y-73002400D01*
X97465609Y-73002400D02*
X97417990Y-73097638D01*
X97417990Y-73097638D02*
X97370371Y-73145257D01*
X97370371Y-73145257D02*
X97275133Y-73192876D01*
X97275133Y-73192876D02*
X97179895Y-73192876D01*
X97179895Y-73192876D02*
X97084657Y-73145257D01*
X97084657Y-73145257D02*
X97037038Y-73097638D01*
X97037038Y-73097638D02*
X96989419Y-73002400D01*
X96989419Y-73002400D02*
X96989419Y-72764305D01*
X96989419Y-72764305D02*
X97037038Y-72621448D01*
X97941800Y-71811924D02*
X97989419Y-71907162D01*
X97989419Y-71907162D02*
X97989419Y-72097638D01*
X97989419Y-72097638D02*
X97941800Y-72192876D01*
X97941800Y-72192876D02*
X97846561Y-72240495D01*
X97846561Y-72240495D02*
X97465609Y-72240495D01*
X97465609Y-72240495D02*
X97370371Y-72192876D01*
X97370371Y-72192876D02*
X97322752Y-72097638D01*
X97322752Y-72097638D02*
X97322752Y-71907162D01*
X97322752Y-71907162D02*
X97370371Y-71811924D01*
X97370371Y-71811924D02*
X97465609Y-71764305D01*
X97465609Y-71764305D02*
X97560847Y-71764305D01*
X97560847Y-71764305D02*
X97656085Y-72240495D01*
X97322752Y-71335733D02*
X97989419Y-71335733D01*
X97417990Y-71335733D02*
X97370371Y-71288114D01*
X97370371Y-71288114D02*
X97322752Y-71192876D01*
X97322752Y-71192876D02*
X97322752Y-71050019D01*
X97322752Y-71050019D02*
X97370371Y-70954781D01*
X97370371Y-70954781D02*
X97465609Y-70907162D01*
X97465609Y-70907162D02*
X97989419Y-70907162D01*
X97941800Y-70478590D02*
X97989419Y-70383352D01*
X97989419Y-70383352D02*
X97989419Y-70192876D01*
X97989419Y-70192876D02*
X97941800Y-70097638D01*
X97941800Y-70097638D02*
X97846561Y-70050019D01*
X97846561Y-70050019D02*
X97798942Y-70050019D01*
X97798942Y-70050019D02*
X97703704Y-70097638D01*
X97703704Y-70097638D02*
X97656085Y-70192876D01*
X97656085Y-70192876D02*
X97656085Y-70335733D01*
X97656085Y-70335733D02*
X97608466Y-70430971D01*
X97608466Y-70430971D02*
X97513228Y-70478590D01*
X97513228Y-70478590D02*
X97465609Y-70478590D01*
X97465609Y-70478590D02*
X97370371Y-70430971D01*
X97370371Y-70430971D02*
X97322752Y-70335733D01*
X97322752Y-70335733D02*
X97322752Y-70192876D01*
X97322752Y-70192876D02*
X97370371Y-70097638D01*
X97989419Y-69478590D02*
X97941800Y-69573828D01*
X97941800Y-69573828D02*
X97894180Y-69621447D01*
X97894180Y-69621447D02*
X97798942Y-69669066D01*
X97798942Y-69669066D02*
X97513228Y-69669066D01*
X97513228Y-69669066D02*
X97417990Y-69621447D01*
X97417990Y-69621447D02*
X97370371Y-69573828D01*
X97370371Y-69573828D02*
X97322752Y-69478590D01*
X97322752Y-69478590D02*
X97322752Y-69335733D01*
X97322752Y-69335733D02*
X97370371Y-69240495D01*
X97370371Y-69240495D02*
X97417990Y-69192876D01*
X97417990Y-69192876D02*
X97513228Y-69145257D01*
X97513228Y-69145257D02*
X97798942Y-69145257D01*
X97798942Y-69145257D02*
X97894180Y-69192876D01*
X97894180Y-69192876D02*
X97941800Y-69240495D01*
X97941800Y-69240495D02*
X97989419Y-69335733D01*
X97989419Y-69335733D02*
X97989419Y-69478590D01*
X97989419Y-68716685D02*
X97322752Y-68716685D01*
X97513228Y-68716685D02*
X97417990Y-68669066D01*
X97417990Y-68669066D02*
X97370371Y-68621447D01*
X97370371Y-68621447D02*
X97322752Y-68526209D01*
X97322752Y-68526209D02*
X97322752Y-68430971D01*
X98084657Y-68335733D02*
X98084657Y-67573828D01*
X96989419Y-67430970D02*
X96989419Y-66764304D01*
X96989419Y-66764304D02*
X97989419Y-67192875D01*
X97941800Y-102606076D02*
X97989419Y-102463219D01*
X97989419Y-102463219D02*
X97989419Y-102225124D01*
X97989419Y-102225124D02*
X97941800Y-102129886D01*
X97941800Y-102129886D02*
X97894180Y-102082267D01*
X97894180Y-102082267D02*
X97798942Y-102034648D01*
X97798942Y-102034648D02*
X97703704Y-102034648D01*
X97703704Y-102034648D02*
X97608466Y-102082267D01*
X97608466Y-102082267D02*
X97560847Y-102129886D01*
X97560847Y-102129886D02*
X97513228Y-102225124D01*
X97513228Y-102225124D02*
X97465609Y-102415600D01*
X97465609Y-102415600D02*
X97417990Y-102510838D01*
X97417990Y-102510838D02*
X97370371Y-102558457D01*
X97370371Y-102558457D02*
X97275133Y-102606076D01*
X97275133Y-102606076D02*
X97179895Y-102606076D01*
X97179895Y-102606076D02*
X97084657Y-102558457D01*
X97084657Y-102558457D02*
X97037038Y-102510838D01*
X97037038Y-102510838D02*
X96989419Y-102415600D01*
X96989419Y-102415600D02*
X96989419Y-102177505D01*
X96989419Y-102177505D02*
X97037038Y-102034648D01*
X97941800Y-101225124D02*
X97989419Y-101320362D01*
X97989419Y-101320362D02*
X97989419Y-101510838D01*
X97989419Y-101510838D02*
X97941800Y-101606076D01*
X97941800Y-101606076D02*
X97846561Y-101653695D01*
X97846561Y-101653695D02*
X97465609Y-101653695D01*
X97465609Y-101653695D02*
X97370371Y-101606076D01*
X97370371Y-101606076D02*
X97322752Y-101510838D01*
X97322752Y-101510838D02*
X97322752Y-101320362D01*
X97322752Y-101320362D02*
X97370371Y-101225124D01*
X97370371Y-101225124D02*
X97465609Y-101177505D01*
X97465609Y-101177505D02*
X97560847Y-101177505D01*
X97560847Y-101177505D02*
X97656085Y-101653695D01*
X97322752Y-100748933D02*
X97989419Y-100748933D01*
X97417990Y-100748933D02*
X97370371Y-100701314D01*
X97370371Y-100701314D02*
X97322752Y-100606076D01*
X97322752Y-100606076D02*
X97322752Y-100463219D01*
X97322752Y-100463219D02*
X97370371Y-100367981D01*
X97370371Y-100367981D02*
X97465609Y-100320362D01*
X97465609Y-100320362D02*
X97989419Y-100320362D01*
X97941800Y-99891790D02*
X97989419Y-99796552D01*
X97989419Y-99796552D02*
X97989419Y-99606076D01*
X97989419Y-99606076D02*
X97941800Y-99510838D01*
X97941800Y-99510838D02*
X97846561Y-99463219D01*
X97846561Y-99463219D02*
X97798942Y-99463219D01*
X97798942Y-99463219D02*
X97703704Y-99510838D01*
X97703704Y-99510838D02*
X97656085Y-99606076D01*
X97656085Y-99606076D02*
X97656085Y-99748933D01*
X97656085Y-99748933D02*
X97608466Y-99844171D01*
X97608466Y-99844171D02*
X97513228Y-99891790D01*
X97513228Y-99891790D02*
X97465609Y-99891790D01*
X97465609Y-99891790D02*
X97370371Y-99844171D01*
X97370371Y-99844171D02*
X97322752Y-99748933D01*
X97322752Y-99748933D02*
X97322752Y-99606076D01*
X97322752Y-99606076D02*
X97370371Y-99510838D01*
X97989419Y-98891790D02*
X97941800Y-98987028D01*
X97941800Y-98987028D02*
X97894180Y-99034647D01*
X97894180Y-99034647D02*
X97798942Y-99082266D01*
X97798942Y-99082266D02*
X97513228Y-99082266D01*
X97513228Y-99082266D02*
X97417990Y-99034647D01*
X97417990Y-99034647D02*
X97370371Y-98987028D01*
X97370371Y-98987028D02*
X97322752Y-98891790D01*
X97322752Y-98891790D02*
X97322752Y-98748933D01*
X97322752Y-98748933D02*
X97370371Y-98653695D01*
X97370371Y-98653695D02*
X97417990Y-98606076D01*
X97417990Y-98606076D02*
X97513228Y-98558457D01*
X97513228Y-98558457D02*
X97798942Y-98558457D01*
X97798942Y-98558457D02*
X97894180Y-98606076D01*
X97894180Y-98606076D02*
X97941800Y-98653695D01*
X97941800Y-98653695D02*
X97989419Y-98748933D01*
X97989419Y-98748933D02*
X97989419Y-98891790D01*
X97989419Y-98129885D02*
X97322752Y-98129885D01*
X97513228Y-98129885D02*
X97417990Y-98082266D01*
X97417990Y-98082266D02*
X97370371Y-98034647D01*
X97370371Y-98034647D02*
X97322752Y-97939409D01*
X97322752Y-97939409D02*
X97322752Y-97844171D01*
X98084657Y-97748933D02*
X98084657Y-96987028D01*
X97322752Y-96320361D02*
X97989419Y-96320361D01*
X96941800Y-96558456D02*
X97656085Y-96796551D01*
X97656085Y-96796551D02*
X97656085Y-96177504D01*
X97941800Y-132019276D02*
X97989419Y-131876419D01*
X97989419Y-131876419D02*
X97989419Y-131638324D01*
X97989419Y-131638324D02*
X97941800Y-131543086D01*
X97941800Y-131543086D02*
X97894180Y-131495467D01*
X97894180Y-131495467D02*
X97798942Y-131447848D01*
X97798942Y-131447848D02*
X97703704Y-131447848D01*
X97703704Y-131447848D02*
X97608466Y-131495467D01*
X97608466Y-131495467D02*
X97560847Y-131543086D01*
X97560847Y-131543086D02*
X97513228Y-131638324D01*
X97513228Y-131638324D02*
X97465609Y-131828800D01*
X97465609Y-131828800D02*
X97417990Y-131924038D01*
X97417990Y-131924038D02*
X97370371Y-131971657D01*
X97370371Y-131971657D02*
X97275133Y-132019276D01*
X97275133Y-132019276D02*
X97179895Y-132019276D01*
X97179895Y-132019276D02*
X97084657Y-131971657D01*
X97084657Y-131971657D02*
X97037038Y-131924038D01*
X97037038Y-131924038D02*
X96989419Y-131828800D01*
X96989419Y-131828800D02*
X96989419Y-131590705D01*
X96989419Y-131590705D02*
X97037038Y-131447848D01*
X97941800Y-130638324D02*
X97989419Y-130733562D01*
X97989419Y-130733562D02*
X97989419Y-130924038D01*
X97989419Y-130924038D02*
X97941800Y-131019276D01*
X97941800Y-131019276D02*
X97846561Y-131066895D01*
X97846561Y-131066895D02*
X97465609Y-131066895D01*
X97465609Y-131066895D02*
X97370371Y-131019276D01*
X97370371Y-131019276D02*
X97322752Y-130924038D01*
X97322752Y-130924038D02*
X97322752Y-130733562D01*
X97322752Y-130733562D02*
X97370371Y-130638324D01*
X97370371Y-130638324D02*
X97465609Y-130590705D01*
X97465609Y-130590705D02*
X97560847Y-130590705D01*
X97560847Y-130590705D02*
X97656085Y-131066895D01*
X97322752Y-130162133D02*
X97989419Y-130162133D01*
X97417990Y-130162133D02*
X97370371Y-130114514D01*
X97370371Y-130114514D02*
X97322752Y-130019276D01*
X97322752Y-130019276D02*
X97322752Y-129876419D01*
X97322752Y-129876419D02*
X97370371Y-129781181D01*
X97370371Y-129781181D02*
X97465609Y-129733562D01*
X97465609Y-129733562D02*
X97989419Y-129733562D01*
X97941800Y-129304990D02*
X97989419Y-129209752D01*
X97989419Y-129209752D02*
X97989419Y-129019276D01*
X97989419Y-129019276D02*
X97941800Y-128924038D01*
X97941800Y-128924038D02*
X97846561Y-128876419D01*
X97846561Y-128876419D02*
X97798942Y-128876419D01*
X97798942Y-128876419D02*
X97703704Y-128924038D01*
X97703704Y-128924038D02*
X97656085Y-129019276D01*
X97656085Y-129019276D02*
X97656085Y-129162133D01*
X97656085Y-129162133D02*
X97608466Y-129257371D01*
X97608466Y-129257371D02*
X97513228Y-129304990D01*
X97513228Y-129304990D02*
X97465609Y-129304990D01*
X97465609Y-129304990D02*
X97370371Y-129257371D01*
X97370371Y-129257371D02*
X97322752Y-129162133D01*
X97322752Y-129162133D02*
X97322752Y-129019276D01*
X97322752Y-129019276D02*
X97370371Y-128924038D01*
X97989419Y-128304990D02*
X97941800Y-128400228D01*
X97941800Y-128400228D02*
X97894180Y-128447847D01*
X97894180Y-128447847D02*
X97798942Y-128495466D01*
X97798942Y-128495466D02*
X97513228Y-128495466D01*
X97513228Y-128495466D02*
X97417990Y-128447847D01*
X97417990Y-128447847D02*
X97370371Y-128400228D01*
X97370371Y-128400228D02*
X97322752Y-128304990D01*
X97322752Y-128304990D02*
X97322752Y-128162133D01*
X97322752Y-128162133D02*
X97370371Y-128066895D01*
X97370371Y-128066895D02*
X97417990Y-128019276D01*
X97417990Y-128019276D02*
X97513228Y-127971657D01*
X97513228Y-127971657D02*
X97798942Y-127971657D01*
X97798942Y-127971657D02*
X97894180Y-128019276D01*
X97894180Y-128019276D02*
X97941800Y-128066895D01*
X97941800Y-128066895D02*
X97989419Y-128162133D01*
X97989419Y-128162133D02*
X97989419Y-128304990D01*
X97989419Y-127543085D02*
X97322752Y-127543085D01*
X97513228Y-127543085D02*
X97417990Y-127495466D01*
X97417990Y-127495466D02*
X97370371Y-127447847D01*
X97370371Y-127447847D02*
X97322752Y-127352609D01*
X97322752Y-127352609D02*
X97322752Y-127257371D01*
X98084657Y-127162133D02*
X98084657Y-126400228D01*
X97989419Y-125638323D02*
X97989419Y-126209751D01*
X97989419Y-125924037D02*
X96989419Y-125924037D01*
X96989419Y-125924037D02*
X97132276Y-126019275D01*
X97132276Y-126019275D02*
X97227514Y-126114513D01*
X97227514Y-126114513D02*
X97275133Y-126209751D01*
X148287219Y-100415304D02*
X148763409Y-100415304D01*
X148191981Y-100701019D02*
X148525314Y-99701019D01*
X148525314Y-99701019D02*
X148858647Y-100701019D01*
X149191981Y-100701019D02*
X149191981Y-100034352D01*
X149191981Y-100224828D02*
X149239600Y-100129590D01*
X149239600Y-100129590D02*
X149287219Y-100081971D01*
X149287219Y-100081971D02*
X149382457Y-100034352D01*
X149382457Y-100034352D02*
X149477695Y-100034352D01*
X150239600Y-100701019D02*
X150239600Y-99701019D01*
X150239600Y-100653400D02*
X150144362Y-100701019D01*
X150144362Y-100701019D02*
X149953886Y-100701019D01*
X149953886Y-100701019D02*
X149858648Y-100653400D01*
X149858648Y-100653400D02*
X149811029Y-100605780D01*
X149811029Y-100605780D02*
X149763410Y-100510542D01*
X149763410Y-100510542D02*
X149763410Y-100224828D01*
X149763410Y-100224828D02*
X149811029Y-100129590D01*
X149811029Y-100129590D02*
X149858648Y-100081971D01*
X149858648Y-100081971D02*
X149953886Y-100034352D01*
X149953886Y-100034352D02*
X150144362Y-100034352D01*
X150144362Y-100034352D02*
X150239600Y-100081971D01*
X151144362Y-100034352D02*
X151144362Y-100701019D01*
X150715791Y-100034352D02*
X150715791Y-100558161D01*
X150715791Y-100558161D02*
X150763410Y-100653400D01*
X150763410Y-100653400D02*
X150858648Y-100701019D01*
X150858648Y-100701019D02*
X151001505Y-100701019D01*
X151001505Y-100701019D02*
X151096743Y-100653400D01*
X151096743Y-100653400D02*
X151144362Y-100605780D01*
X151620553Y-100701019D02*
X151620553Y-100034352D01*
X151620553Y-99701019D02*
X151572934Y-99748638D01*
X151572934Y-99748638D02*
X151620553Y-99796257D01*
X151620553Y-99796257D02*
X151668172Y-99748638D01*
X151668172Y-99748638D02*
X151620553Y-99701019D01*
X151620553Y-99701019D02*
X151620553Y-99796257D01*
X152096743Y-100034352D02*
X152096743Y-100701019D01*
X152096743Y-100129590D02*
X152144362Y-100081971D01*
X152144362Y-100081971D02*
X152239600Y-100034352D01*
X152239600Y-100034352D02*
X152382457Y-100034352D01*
X152382457Y-100034352D02*
X152477695Y-100081971D01*
X152477695Y-100081971D02*
X152525314Y-100177209D01*
X152525314Y-100177209D02*
X152525314Y-100701019D01*
X153144362Y-100701019D02*
X153049124Y-100653400D01*
X153049124Y-100653400D02*
X153001505Y-100605780D01*
X153001505Y-100605780D02*
X152953886Y-100510542D01*
X152953886Y-100510542D02*
X152953886Y-100224828D01*
X152953886Y-100224828D02*
X153001505Y-100129590D01*
X153001505Y-100129590D02*
X153049124Y-100081971D01*
X153049124Y-100081971D02*
X153144362Y-100034352D01*
X153144362Y-100034352D02*
X153287219Y-100034352D01*
X153287219Y-100034352D02*
X153382457Y-100081971D01*
X153382457Y-100081971D02*
X153430076Y-100129590D01*
X153430076Y-100129590D02*
X153477695Y-100224828D01*
X153477695Y-100224828D02*
X153477695Y-100510542D01*
X153477695Y-100510542D02*
X153430076Y-100605780D01*
X153430076Y-100605780D02*
X153382457Y-100653400D01*
X153382457Y-100653400D02*
X153287219Y-100701019D01*
X153287219Y-100701019D02*
X153144362Y-100701019D01*
X153668172Y-100796257D02*
X154430076Y-100796257D01*
X155191981Y-100701019D02*
X154620553Y-100701019D01*
X154906267Y-100701019D02*
X154906267Y-99701019D01*
X154906267Y-99701019D02*
X154811029Y-99843876D01*
X154811029Y-99843876D02*
X154715791Y-99939114D01*
X154715791Y-99939114D02*
X154620553Y-99986733D01*
X110499923Y-49732600D02*
X110642780Y-49780219D01*
X110642780Y-49780219D02*
X110880875Y-49780219D01*
X110880875Y-49780219D02*
X110976113Y-49732600D01*
X110976113Y-49732600D02*
X111023732Y-49684980D01*
X111023732Y-49684980D02*
X111071351Y-49589742D01*
X111071351Y-49589742D02*
X111071351Y-49494504D01*
X111071351Y-49494504D02*
X111023732Y-49399266D01*
X111023732Y-49399266D02*
X110976113Y-49351647D01*
X110976113Y-49351647D02*
X110880875Y-49304028D01*
X110880875Y-49304028D02*
X110690399Y-49256409D01*
X110690399Y-49256409D02*
X110595161Y-49208790D01*
X110595161Y-49208790D02*
X110547542Y-49161171D01*
X110547542Y-49161171D02*
X110499923Y-49065933D01*
X110499923Y-49065933D02*
X110499923Y-48970695D01*
X110499923Y-48970695D02*
X110547542Y-48875457D01*
X110547542Y-48875457D02*
X110595161Y-48827838D01*
X110595161Y-48827838D02*
X110690399Y-48780219D01*
X110690399Y-48780219D02*
X110928494Y-48780219D01*
X110928494Y-48780219D02*
X111071351Y-48827838D01*
X111880875Y-49732600D02*
X111785637Y-49780219D01*
X111785637Y-49780219D02*
X111595161Y-49780219D01*
X111595161Y-49780219D02*
X111499923Y-49732600D01*
X111499923Y-49732600D02*
X111452304Y-49637361D01*
X111452304Y-49637361D02*
X111452304Y-49256409D01*
X111452304Y-49256409D02*
X111499923Y-49161171D01*
X111499923Y-49161171D02*
X111595161Y-49113552D01*
X111595161Y-49113552D02*
X111785637Y-49113552D01*
X111785637Y-49113552D02*
X111880875Y-49161171D01*
X111880875Y-49161171D02*
X111928494Y-49256409D01*
X111928494Y-49256409D02*
X111928494Y-49351647D01*
X111928494Y-49351647D02*
X111452304Y-49446885D01*
X112357066Y-49113552D02*
X112357066Y-49780219D01*
X112357066Y-49208790D02*
X112404685Y-49161171D01*
X112404685Y-49161171D02*
X112499923Y-49113552D01*
X112499923Y-49113552D02*
X112642780Y-49113552D01*
X112642780Y-49113552D02*
X112738018Y-49161171D01*
X112738018Y-49161171D02*
X112785637Y-49256409D01*
X112785637Y-49256409D02*
X112785637Y-49780219D01*
X113214209Y-49732600D02*
X113309447Y-49780219D01*
X113309447Y-49780219D02*
X113499923Y-49780219D01*
X113499923Y-49780219D02*
X113595161Y-49732600D01*
X113595161Y-49732600D02*
X113642780Y-49637361D01*
X113642780Y-49637361D02*
X113642780Y-49589742D01*
X113642780Y-49589742D02*
X113595161Y-49494504D01*
X113595161Y-49494504D02*
X113499923Y-49446885D01*
X113499923Y-49446885D02*
X113357066Y-49446885D01*
X113357066Y-49446885D02*
X113261828Y-49399266D01*
X113261828Y-49399266D02*
X113214209Y-49304028D01*
X113214209Y-49304028D02*
X113214209Y-49256409D01*
X113214209Y-49256409D02*
X113261828Y-49161171D01*
X113261828Y-49161171D02*
X113357066Y-49113552D01*
X113357066Y-49113552D02*
X113499923Y-49113552D01*
X113499923Y-49113552D02*
X113595161Y-49161171D01*
X114214209Y-49780219D02*
X114118971Y-49732600D01*
X114118971Y-49732600D02*
X114071352Y-49684980D01*
X114071352Y-49684980D02*
X114023733Y-49589742D01*
X114023733Y-49589742D02*
X114023733Y-49304028D01*
X114023733Y-49304028D02*
X114071352Y-49208790D01*
X114071352Y-49208790D02*
X114118971Y-49161171D01*
X114118971Y-49161171D02*
X114214209Y-49113552D01*
X114214209Y-49113552D02*
X114357066Y-49113552D01*
X114357066Y-49113552D02*
X114452304Y-49161171D01*
X114452304Y-49161171D02*
X114499923Y-49208790D01*
X114499923Y-49208790D02*
X114547542Y-49304028D01*
X114547542Y-49304028D02*
X114547542Y-49589742D01*
X114547542Y-49589742D02*
X114499923Y-49684980D01*
X114499923Y-49684980D02*
X114452304Y-49732600D01*
X114452304Y-49732600D02*
X114357066Y-49780219D01*
X114357066Y-49780219D02*
X114214209Y-49780219D01*
X114976114Y-49780219D02*
X114976114Y-49113552D01*
X114976114Y-49304028D02*
X115023733Y-49208790D01*
X115023733Y-49208790D02*
X115071352Y-49161171D01*
X115071352Y-49161171D02*
X115166590Y-49113552D01*
X115166590Y-49113552D02*
X115261828Y-49113552D01*
X115357067Y-49875457D02*
X116118971Y-49875457D01*
X116404686Y-49780219D02*
X116595162Y-49780219D01*
X116595162Y-49780219D02*
X116690400Y-49732600D01*
X116690400Y-49732600D02*
X116738019Y-49684980D01*
X116738019Y-49684980D02*
X116833257Y-49542123D01*
X116833257Y-49542123D02*
X116880876Y-49351647D01*
X116880876Y-49351647D02*
X116880876Y-48970695D01*
X116880876Y-48970695D02*
X116833257Y-48875457D01*
X116833257Y-48875457D02*
X116785638Y-48827838D01*
X116785638Y-48827838D02*
X116690400Y-48780219D01*
X116690400Y-48780219D02*
X116499924Y-48780219D01*
X116499924Y-48780219D02*
X116404686Y-48827838D01*
X116404686Y-48827838D02*
X116357067Y-48875457D01*
X116357067Y-48875457D02*
X116309448Y-48970695D01*
X116309448Y-48970695D02*
X116309448Y-49208790D01*
X116309448Y-49208790D02*
X116357067Y-49304028D01*
X116357067Y-49304028D02*
X116404686Y-49351647D01*
X116404686Y-49351647D02*
X116499924Y-49399266D01*
X116499924Y-49399266D02*
X116690400Y-49399266D01*
X116690400Y-49399266D02*
X116785638Y-49351647D01*
X116785638Y-49351647D02*
X116833257Y-49304028D01*
X116833257Y-49304028D02*
X116880876Y-49208790D01*
X141324819Y-73166666D02*
X140848628Y-73499999D01*
X141324819Y-73738094D02*
X140324819Y-73738094D01*
X140324819Y-73738094D02*
X140324819Y-73357142D01*
X140324819Y-73357142D02*
X140372438Y-73261904D01*
X140372438Y-73261904D02*
X140420057Y-73214285D01*
X140420057Y-73214285D02*
X140515295Y-73166666D01*
X140515295Y-73166666D02*
X140658152Y-73166666D01*
X140658152Y-73166666D02*
X140753390Y-73214285D01*
X140753390Y-73214285D02*
X140801009Y-73261904D01*
X140801009Y-73261904D02*
X140848628Y-73357142D01*
X140848628Y-73357142D02*
X140848628Y-73738094D01*
X141324819Y-72214285D02*
X141324819Y-72785713D01*
X141324819Y-72499999D02*
X140324819Y-72499999D01*
X140324819Y-72499999D02*
X140467676Y-72595237D01*
X140467676Y-72595237D02*
X140562914Y-72690475D01*
X140562914Y-72690475D02*
X140610533Y-72785713D01*
X97941800Y-122214876D02*
X97989419Y-122072019D01*
X97989419Y-122072019D02*
X97989419Y-121833924D01*
X97989419Y-121833924D02*
X97941800Y-121738686D01*
X97941800Y-121738686D02*
X97894180Y-121691067D01*
X97894180Y-121691067D02*
X97798942Y-121643448D01*
X97798942Y-121643448D02*
X97703704Y-121643448D01*
X97703704Y-121643448D02*
X97608466Y-121691067D01*
X97608466Y-121691067D02*
X97560847Y-121738686D01*
X97560847Y-121738686D02*
X97513228Y-121833924D01*
X97513228Y-121833924D02*
X97465609Y-122024400D01*
X97465609Y-122024400D02*
X97417990Y-122119638D01*
X97417990Y-122119638D02*
X97370371Y-122167257D01*
X97370371Y-122167257D02*
X97275133Y-122214876D01*
X97275133Y-122214876D02*
X97179895Y-122214876D01*
X97179895Y-122214876D02*
X97084657Y-122167257D01*
X97084657Y-122167257D02*
X97037038Y-122119638D01*
X97037038Y-122119638D02*
X96989419Y-122024400D01*
X96989419Y-122024400D02*
X96989419Y-121786305D01*
X96989419Y-121786305D02*
X97037038Y-121643448D01*
X97941800Y-120833924D02*
X97989419Y-120929162D01*
X97989419Y-120929162D02*
X97989419Y-121119638D01*
X97989419Y-121119638D02*
X97941800Y-121214876D01*
X97941800Y-121214876D02*
X97846561Y-121262495D01*
X97846561Y-121262495D02*
X97465609Y-121262495D01*
X97465609Y-121262495D02*
X97370371Y-121214876D01*
X97370371Y-121214876D02*
X97322752Y-121119638D01*
X97322752Y-121119638D02*
X97322752Y-120929162D01*
X97322752Y-120929162D02*
X97370371Y-120833924D01*
X97370371Y-120833924D02*
X97465609Y-120786305D01*
X97465609Y-120786305D02*
X97560847Y-120786305D01*
X97560847Y-120786305D02*
X97656085Y-121262495D01*
X97322752Y-120357733D02*
X97989419Y-120357733D01*
X97417990Y-120357733D02*
X97370371Y-120310114D01*
X97370371Y-120310114D02*
X97322752Y-120214876D01*
X97322752Y-120214876D02*
X97322752Y-120072019D01*
X97322752Y-120072019D02*
X97370371Y-119976781D01*
X97370371Y-119976781D02*
X97465609Y-119929162D01*
X97465609Y-119929162D02*
X97989419Y-119929162D01*
X97941800Y-119500590D02*
X97989419Y-119405352D01*
X97989419Y-119405352D02*
X97989419Y-119214876D01*
X97989419Y-119214876D02*
X97941800Y-119119638D01*
X97941800Y-119119638D02*
X97846561Y-119072019D01*
X97846561Y-119072019D02*
X97798942Y-119072019D01*
X97798942Y-119072019D02*
X97703704Y-119119638D01*
X97703704Y-119119638D02*
X97656085Y-119214876D01*
X97656085Y-119214876D02*
X97656085Y-119357733D01*
X97656085Y-119357733D02*
X97608466Y-119452971D01*
X97608466Y-119452971D02*
X97513228Y-119500590D01*
X97513228Y-119500590D02*
X97465609Y-119500590D01*
X97465609Y-119500590D02*
X97370371Y-119452971D01*
X97370371Y-119452971D02*
X97322752Y-119357733D01*
X97322752Y-119357733D02*
X97322752Y-119214876D01*
X97322752Y-119214876D02*
X97370371Y-119119638D01*
X97989419Y-118500590D02*
X97941800Y-118595828D01*
X97941800Y-118595828D02*
X97894180Y-118643447D01*
X97894180Y-118643447D02*
X97798942Y-118691066D01*
X97798942Y-118691066D02*
X97513228Y-118691066D01*
X97513228Y-118691066D02*
X97417990Y-118643447D01*
X97417990Y-118643447D02*
X97370371Y-118595828D01*
X97370371Y-118595828D02*
X97322752Y-118500590D01*
X97322752Y-118500590D02*
X97322752Y-118357733D01*
X97322752Y-118357733D02*
X97370371Y-118262495D01*
X97370371Y-118262495D02*
X97417990Y-118214876D01*
X97417990Y-118214876D02*
X97513228Y-118167257D01*
X97513228Y-118167257D02*
X97798942Y-118167257D01*
X97798942Y-118167257D02*
X97894180Y-118214876D01*
X97894180Y-118214876D02*
X97941800Y-118262495D01*
X97941800Y-118262495D02*
X97989419Y-118357733D01*
X97989419Y-118357733D02*
X97989419Y-118500590D01*
X97989419Y-117738685D02*
X97322752Y-117738685D01*
X97513228Y-117738685D02*
X97417990Y-117691066D01*
X97417990Y-117691066D02*
X97370371Y-117643447D01*
X97370371Y-117643447D02*
X97322752Y-117548209D01*
X97322752Y-117548209D02*
X97322752Y-117452971D01*
X98084657Y-117357733D02*
X98084657Y-116595828D01*
X97084657Y-116405351D02*
X97037038Y-116357732D01*
X97037038Y-116357732D02*
X96989419Y-116262494D01*
X96989419Y-116262494D02*
X96989419Y-116024399D01*
X96989419Y-116024399D02*
X97037038Y-115929161D01*
X97037038Y-115929161D02*
X97084657Y-115881542D01*
X97084657Y-115881542D02*
X97179895Y-115833923D01*
X97179895Y-115833923D02*
X97275133Y-115833923D01*
X97275133Y-115833923D02*
X97417990Y-115881542D01*
X97417990Y-115881542D02*
X97989419Y-116452970D01*
X97989419Y-116452970D02*
X97989419Y-115833923D01*
X125429333Y-77218866D02*
X125429333Y-78352200D01*
X125429333Y-78352200D02*
X125496000Y-78485533D01*
X125496000Y-78485533D02*
X125562666Y-78552200D01*
X125562666Y-78552200D02*
X125696000Y-78618866D01*
X125696000Y-78618866D02*
X125962666Y-78618866D01*
X125962666Y-78618866D02*
X126096000Y-78552200D01*
X126096000Y-78552200D02*
X126162666Y-78485533D01*
X126162666Y-78485533D02*
X126229333Y-78352200D01*
X126229333Y-78352200D02*
X126229333Y-77218866D01*
X127629333Y-78618866D02*
X126829333Y-78618866D01*
X127229333Y-78618866D02*
X127229333Y-77218866D01*
X127229333Y-77218866D02*
X127096000Y-77418866D01*
X127096000Y-77418866D02*
X126962667Y-77552200D01*
X126962667Y-77552200D02*
X126829333Y-77618866D01*
X147985599Y-44894019D02*
X147985599Y-45608304D01*
X147985599Y-45608304D02*
X147937980Y-45751161D01*
X147937980Y-45751161D02*
X147842742Y-45846400D01*
X147842742Y-45846400D02*
X147699885Y-45894019D01*
X147699885Y-45894019D02*
X147604647Y-45894019D01*
X148414171Y-45608304D02*
X148890361Y-45608304D01*
X148318933Y-45894019D02*
X148652266Y-44894019D01*
X148652266Y-44894019D02*
X148985599Y-45894019D01*
X149318933Y-45894019D02*
X149318933Y-45227352D01*
X149318933Y-45417828D02*
X149366552Y-45322590D01*
X149366552Y-45322590D02*
X149414171Y-45274971D01*
X149414171Y-45274971D02*
X149509409Y-45227352D01*
X149509409Y-45227352D02*
X149604647Y-45227352D01*
X150366552Y-45894019D02*
X150366552Y-44894019D01*
X150366552Y-45846400D02*
X150271314Y-45894019D01*
X150271314Y-45894019D02*
X150080838Y-45894019D01*
X150080838Y-45894019D02*
X149985600Y-45846400D01*
X149985600Y-45846400D02*
X149937981Y-45798780D01*
X149937981Y-45798780D02*
X149890362Y-45703542D01*
X149890362Y-45703542D02*
X149890362Y-45417828D01*
X149890362Y-45417828D02*
X149937981Y-45322590D01*
X149937981Y-45322590D02*
X149985600Y-45274971D01*
X149985600Y-45274971D02*
X150080838Y-45227352D01*
X150080838Y-45227352D02*
X150271314Y-45227352D01*
X150271314Y-45227352D02*
X150366552Y-45274971D01*
X151271314Y-45227352D02*
X151271314Y-45894019D01*
X150842743Y-45227352D02*
X150842743Y-45751161D01*
X150842743Y-45751161D02*
X150890362Y-45846400D01*
X150890362Y-45846400D02*
X150985600Y-45894019D01*
X150985600Y-45894019D02*
X151128457Y-45894019D01*
X151128457Y-45894019D02*
X151223695Y-45846400D01*
X151223695Y-45846400D02*
X151271314Y-45798780D01*
X151747505Y-45894019D02*
X151747505Y-45227352D01*
X151747505Y-44894019D02*
X151699886Y-44941638D01*
X151699886Y-44941638D02*
X151747505Y-44989257D01*
X151747505Y-44989257D02*
X151795124Y-44941638D01*
X151795124Y-44941638D02*
X151747505Y-44894019D01*
X151747505Y-44894019D02*
X151747505Y-44989257D01*
X152223695Y-45227352D02*
X152223695Y-45894019D01*
X152223695Y-45322590D02*
X152271314Y-45274971D01*
X152271314Y-45274971D02*
X152366552Y-45227352D01*
X152366552Y-45227352D02*
X152509409Y-45227352D01*
X152509409Y-45227352D02*
X152604647Y-45274971D01*
X152604647Y-45274971D02*
X152652266Y-45370209D01*
X152652266Y-45370209D02*
X152652266Y-45894019D01*
X153271314Y-45894019D02*
X153176076Y-45846400D01*
X153176076Y-45846400D02*
X153128457Y-45798780D01*
X153128457Y-45798780D02*
X153080838Y-45703542D01*
X153080838Y-45703542D02*
X153080838Y-45417828D01*
X153080838Y-45417828D02*
X153128457Y-45322590D01*
X153128457Y-45322590D02*
X153176076Y-45274971D01*
X153176076Y-45274971D02*
X153271314Y-45227352D01*
X153271314Y-45227352D02*
X153414171Y-45227352D01*
X153414171Y-45227352D02*
X153509409Y-45274971D01*
X153509409Y-45274971D02*
X153557028Y-45322590D01*
X153557028Y-45322590D02*
X153604647Y-45417828D01*
X153604647Y-45417828D02*
X153604647Y-45703542D01*
X153604647Y-45703542D02*
X153557028Y-45798780D01*
X153557028Y-45798780D02*
X153509409Y-45846400D01*
X153509409Y-45846400D02*
X153414171Y-45894019D01*
X153414171Y-45894019D02*
X153271314Y-45894019D01*
X153795124Y-45989257D02*
X154557028Y-45989257D01*
X155223695Y-45227352D02*
X155223695Y-45894019D01*
X154985600Y-44846400D02*
X154747505Y-45560685D01*
X154747505Y-45560685D02*
X155366552Y-45560685D01*
X97941800Y-112410476D02*
X97989419Y-112267619D01*
X97989419Y-112267619D02*
X97989419Y-112029524D01*
X97989419Y-112029524D02*
X97941800Y-111934286D01*
X97941800Y-111934286D02*
X97894180Y-111886667D01*
X97894180Y-111886667D02*
X97798942Y-111839048D01*
X97798942Y-111839048D02*
X97703704Y-111839048D01*
X97703704Y-111839048D02*
X97608466Y-111886667D01*
X97608466Y-111886667D02*
X97560847Y-111934286D01*
X97560847Y-111934286D02*
X97513228Y-112029524D01*
X97513228Y-112029524D02*
X97465609Y-112220000D01*
X97465609Y-112220000D02*
X97417990Y-112315238D01*
X97417990Y-112315238D02*
X97370371Y-112362857D01*
X97370371Y-112362857D02*
X97275133Y-112410476D01*
X97275133Y-112410476D02*
X97179895Y-112410476D01*
X97179895Y-112410476D02*
X97084657Y-112362857D01*
X97084657Y-112362857D02*
X97037038Y-112315238D01*
X97037038Y-112315238D02*
X96989419Y-112220000D01*
X96989419Y-112220000D02*
X96989419Y-111981905D01*
X96989419Y-111981905D02*
X97037038Y-111839048D01*
X97941800Y-111029524D02*
X97989419Y-111124762D01*
X97989419Y-111124762D02*
X97989419Y-111315238D01*
X97989419Y-111315238D02*
X97941800Y-111410476D01*
X97941800Y-111410476D02*
X97846561Y-111458095D01*
X97846561Y-111458095D02*
X97465609Y-111458095D01*
X97465609Y-111458095D02*
X97370371Y-111410476D01*
X97370371Y-111410476D02*
X97322752Y-111315238D01*
X97322752Y-111315238D02*
X97322752Y-111124762D01*
X97322752Y-111124762D02*
X97370371Y-111029524D01*
X97370371Y-111029524D02*
X97465609Y-110981905D01*
X97465609Y-110981905D02*
X97560847Y-110981905D01*
X97560847Y-110981905D02*
X97656085Y-111458095D01*
X97322752Y-110553333D02*
X97989419Y-110553333D01*
X97417990Y-110553333D02*
X97370371Y-110505714D01*
X97370371Y-110505714D02*
X97322752Y-110410476D01*
X97322752Y-110410476D02*
X97322752Y-110267619D01*
X97322752Y-110267619D02*
X97370371Y-110172381D01*
X97370371Y-110172381D02*
X97465609Y-110124762D01*
X97465609Y-110124762D02*
X97989419Y-110124762D01*
X97941800Y-109696190D02*
X97989419Y-109600952D01*
X97989419Y-109600952D02*
X97989419Y-109410476D01*
X97989419Y-109410476D02*
X97941800Y-109315238D01*
X97941800Y-109315238D02*
X97846561Y-109267619D01*
X97846561Y-109267619D02*
X97798942Y-109267619D01*
X97798942Y-109267619D02*
X97703704Y-109315238D01*
X97703704Y-109315238D02*
X97656085Y-109410476D01*
X97656085Y-109410476D02*
X97656085Y-109553333D01*
X97656085Y-109553333D02*
X97608466Y-109648571D01*
X97608466Y-109648571D02*
X97513228Y-109696190D01*
X97513228Y-109696190D02*
X97465609Y-109696190D01*
X97465609Y-109696190D02*
X97370371Y-109648571D01*
X97370371Y-109648571D02*
X97322752Y-109553333D01*
X97322752Y-109553333D02*
X97322752Y-109410476D01*
X97322752Y-109410476D02*
X97370371Y-109315238D01*
X97989419Y-108696190D02*
X97941800Y-108791428D01*
X97941800Y-108791428D02*
X97894180Y-108839047D01*
X97894180Y-108839047D02*
X97798942Y-108886666D01*
X97798942Y-108886666D02*
X97513228Y-108886666D01*
X97513228Y-108886666D02*
X97417990Y-108839047D01*
X97417990Y-108839047D02*
X97370371Y-108791428D01*
X97370371Y-108791428D02*
X97322752Y-108696190D01*
X97322752Y-108696190D02*
X97322752Y-108553333D01*
X97322752Y-108553333D02*
X97370371Y-108458095D01*
X97370371Y-108458095D02*
X97417990Y-108410476D01*
X97417990Y-108410476D02*
X97513228Y-108362857D01*
X97513228Y-108362857D02*
X97798942Y-108362857D01*
X97798942Y-108362857D02*
X97894180Y-108410476D01*
X97894180Y-108410476D02*
X97941800Y-108458095D01*
X97941800Y-108458095D02*
X97989419Y-108553333D01*
X97989419Y-108553333D02*
X97989419Y-108696190D01*
X97989419Y-107934285D02*
X97322752Y-107934285D01*
X97513228Y-107934285D02*
X97417990Y-107886666D01*
X97417990Y-107886666D02*
X97370371Y-107839047D01*
X97370371Y-107839047D02*
X97322752Y-107743809D01*
X97322752Y-107743809D02*
X97322752Y-107648571D01*
X98084657Y-107553333D02*
X98084657Y-106791428D01*
X96989419Y-106648570D02*
X96989419Y-106029523D01*
X96989419Y-106029523D02*
X97370371Y-106362856D01*
X97370371Y-106362856D02*
X97370371Y-106219999D01*
X97370371Y-106219999D02*
X97417990Y-106124761D01*
X97417990Y-106124761D02*
X97465609Y-106077142D01*
X97465609Y-106077142D02*
X97560847Y-106029523D01*
X97560847Y-106029523D02*
X97798942Y-106029523D01*
X97798942Y-106029523D02*
X97894180Y-106077142D01*
X97894180Y-106077142D02*
X97941800Y-106124761D01*
X97941800Y-106124761D02*
X97989419Y-106219999D01*
X97989419Y-106219999D02*
X97989419Y-106505713D01*
X97989419Y-106505713D02*
X97941800Y-106600951D01*
X97941800Y-106600951D02*
X97894180Y-106648570D01*
X154584819Y-91666666D02*
X154108628Y-91999999D01*
X154584819Y-92238094D02*
X153584819Y-92238094D01*
X153584819Y-92238094D02*
X153584819Y-91857142D01*
X153584819Y-91857142D02*
X153632438Y-91761904D01*
X153632438Y-91761904D02*
X153680057Y-91714285D01*
X153680057Y-91714285D02*
X153775295Y-91666666D01*
X153775295Y-91666666D02*
X153918152Y-91666666D01*
X153918152Y-91666666D02*
X154013390Y-91714285D01*
X154013390Y-91714285D02*
X154061009Y-91761904D01*
X154061009Y-91761904D02*
X154108628Y-91857142D01*
X154108628Y-91857142D02*
X154108628Y-92238094D01*
X153680057Y-91285713D02*
X153632438Y-91238094D01*
X153632438Y-91238094D02*
X153584819Y-91142856D01*
X153584819Y-91142856D02*
X153584819Y-90904761D01*
X153584819Y-90904761D02*
X153632438Y-90809523D01*
X153632438Y-90809523D02*
X153680057Y-90761904D01*
X153680057Y-90761904D02*
X153775295Y-90714285D01*
X153775295Y-90714285D02*
X153870533Y-90714285D01*
X153870533Y-90714285D02*
X154013390Y-90761904D01*
X154013390Y-90761904D02*
X154584819Y-91333332D01*
X154584819Y-91333332D02*
X154584819Y-90714285D01*
X139436933Y-49732600D02*
X139579790Y-49780219D01*
X139579790Y-49780219D02*
X139817885Y-49780219D01*
X139817885Y-49780219D02*
X139913123Y-49732600D01*
X139913123Y-49732600D02*
X139960742Y-49684980D01*
X139960742Y-49684980D02*
X140008361Y-49589742D01*
X140008361Y-49589742D02*
X140008361Y-49494504D01*
X140008361Y-49494504D02*
X139960742Y-49399266D01*
X139960742Y-49399266D02*
X139913123Y-49351647D01*
X139913123Y-49351647D02*
X139817885Y-49304028D01*
X139817885Y-49304028D02*
X139627409Y-49256409D01*
X139627409Y-49256409D02*
X139532171Y-49208790D01*
X139532171Y-49208790D02*
X139484552Y-49161171D01*
X139484552Y-49161171D02*
X139436933Y-49065933D01*
X139436933Y-49065933D02*
X139436933Y-48970695D01*
X139436933Y-48970695D02*
X139484552Y-48875457D01*
X139484552Y-48875457D02*
X139532171Y-48827838D01*
X139532171Y-48827838D02*
X139627409Y-48780219D01*
X139627409Y-48780219D02*
X139865504Y-48780219D01*
X139865504Y-48780219D02*
X140008361Y-48827838D01*
X140817885Y-49732600D02*
X140722647Y-49780219D01*
X140722647Y-49780219D02*
X140532171Y-49780219D01*
X140532171Y-49780219D02*
X140436933Y-49732600D01*
X140436933Y-49732600D02*
X140389314Y-49637361D01*
X140389314Y-49637361D02*
X140389314Y-49256409D01*
X140389314Y-49256409D02*
X140436933Y-49161171D01*
X140436933Y-49161171D02*
X140532171Y-49113552D01*
X140532171Y-49113552D02*
X140722647Y-49113552D01*
X140722647Y-49113552D02*
X140817885Y-49161171D01*
X140817885Y-49161171D02*
X140865504Y-49256409D01*
X140865504Y-49256409D02*
X140865504Y-49351647D01*
X140865504Y-49351647D02*
X140389314Y-49446885D01*
X141294076Y-49113552D02*
X141294076Y-49780219D01*
X141294076Y-49208790D02*
X141341695Y-49161171D01*
X141341695Y-49161171D02*
X141436933Y-49113552D01*
X141436933Y-49113552D02*
X141579790Y-49113552D01*
X141579790Y-49113552D02*
X141675028Y-49161171D01*
X141675028Y-49161171D02*
X141722647Y-49256409D01*
X141722647Y-49256409D02*
X141722647Y-49780219D01*
X142151219Y-49732600D02*
X142246457Y-49780219D01*
X142246457Y-49780219D02*
X142436933Y-49780219D01*
X142436933Y-49780219D02*
X142532171Y-49732600D01*
X142532171Y-49732600D02*
X142579790Y-49637361D01*
X142579790Y-49637361D02*
X142579790Y-49589742D01*
X142579790Y-49589742D02*
X142532171Y-49494504D01*
X142532171Y-49494504D02*
X142436933Y-49446885D01*
X142436933Y-49446885D02*
X142294076Y-49446885D01*
X142294076Y-49446885D02*
X142198838Y-49399266D01*
X142198838Y-49399266D02*
X142151219Y-49304028D01*
X142151219Y-49304028D02*
X142151219Y-49256409D01*
X142151219Y-49256409D02*
X142198838Y-49161171D01*
X142198838Y-49161171D02*
X142294076Y-49113552D01*
X142294076Y-49113552D02*
X142436933Y-49113552D01*
X142436933Y-49113552D02*
X142532171Y-49161171D01*
X143151219Y-49780219D02*
X143055981Y-49732600D01*
X143055981Y-49732600D02*
X143008362Y-49684980D01*
X143008362Y-49684980D02*
X142960743Y-49589742D01*
X142960743Y-49589742D02*
X142960743Y-49304028D01*
X142960743Y-49304028D02*
X143008362Y-49208790D01*
X143008362Y-49208790D02*
X143055981Y-49161171D01*
X143055981Y-49161171D02*
X143151219Y-49113552D01*
X143151219Y-49113552D02*
X143294076Y-49113552D01*
X143294076Y-49113552D02*
X143389314Y-49161171D01*
X143389314Y-49161171D02*
X143436933Y-49208790D01*
X143436933Y-49208790D02*
X143484552Y-49304028D01*
X143484552Y-49304028D02*
X143484552Y-49589742D01*
X143484552Y-49589742D02*
X143436933Y-49684980D01*
X143436933Y-49684980D02*
X143389314Y-49732600D01*
X143389314Y-49732600D02*
X143294076Y-49780219D01*
X143294076Y-49780219D02*
X143151219Y-49780219D01*
X143913124Y-49780219D02*
X143913124Y-49113552D01*
X143913124Y-49304028D02*
X143960743Y-49208790D01*
X143960743Y-49208790D02*
X144008362Y-49161171D01*
X144008362Y-49161171D02*
X144103600Y-49113552D01*
X144103600Y-49113552D02*
X144198838Y-49113552D01*
X144294077Y-49875457D02*
X145055981Y-49875457D01*
X145817886Y-49780219D02*
X145246458Y-49780219D01*
X145532172Y-49780219D02*
X145532172Y-48780219D01*
X145532172Y-48780219D02*
X145436934Y-48923076D01*
X145436934Y-48923076D02*
X145341696Y-49018314D01*
X145341696Y-49018314D02*
X145246458Y-49065933D01*
X146198839Y-48875457D02*
X146246458Y-48827838D01*
X146246458Y-48827838D02*
X146341696Y-48780219D01*
X146341696Y-48780219D02*
X146579791Y-48780219D01*
X146579791Y-48780219D02*
X146675029Y-48827838D01*
X146675029Y-48827838D02*
X146722648Y-48875457D01*
X146722648Y-48875457D02*
X146770267Y-48970695D01*
X146770267Y-48970695D02*
X146770267Y-49065933D01*
X146770267Y-49065933D02*
X146722648Y-49208790D01*
X146722648Y-49208790D02*
X146151220Y-49780219D01*
X146151220Y-49780219D02*
X146770267Y-49780219D01*
X129632533Y-49732600D02*
X129775390Y-49780219D01*
X129775390Y-49780219D02*
X130013485Y-49780219D01*
X130013485Y-49780219D02*
X130108723Y-49732600D01*
X130108723Y-49732600D02*
X130156342Y-49684980D01*
X130156342Y-49684980D02*
X130203961Y-49589742D01*
X130203961Y-49589742D02*
X130203961Y-49494504D01*
X130203961Y-49494504D02*
X130156342Y-49399266D01*
X130156342Y-49399266D02*
X130108723Y-49351647D01*
X130108723Y-49351647D02*
X130013485Y-49304028D01*
X130013485Y-49304028D02*
X129823009Y-49256409D01*
X129823009Y-49256409D02*
X129727771Y-49208790D01*
X129727771Y-49208790D02*
X129680152Y-49161171D01*
X129680152Y-49161171D02*
X129632533Y-49065933D01*
X129632533Y-49065933D02*
X129632533Y-48970695D01*
X129632533Y-48970695D02*
X129680152Y-48875457D01*
X129680152Y-48875457D02*
X129727771Y-48827838D01*
X129727771Y-48827838D02*
X129823009Y-48780219D01*
X129823009Y-48780219D02*
X130061104Y-48780219D01*
X130061104Y-48780219D02*
X130203961Y-48827838D01*
X131013485Y-49732600D02*
X130918247Y-49780219D01*
X130918247Y-49780219D02*
X130727771Y-49780219D01*
X130727771Y-49780219D02*
X130632533Y-49732600D01*
X130632533Y-49732600D02*
X130584914Y-49637361D01*
X130584914Y-49637361D02*
X130584914Y-49256409D01*
X130584914Y-49256409D02*
X130632533Y-49161171D01*
X130632533Y-49161171D02*
X130727771Y-49113552D01*
X130727771Y-49113552D02*
X130918247Y-49113552D01*
X130918247Y-49113552D02*
X131013485Y-49161171D01*
X131013485Y-49161171D02*
X131061104Y-49256409D01*
X131061104Y-49256409D02*
X131061104Y-49351647D01*
X131061104Y-49351647D02*
X130584914Y-49446885D01*
X131489676Y-49113552D02*
X131489676Y-49780219D01*
X131489676Y-49208790D02*
X131537295Y-49161171D01*
X131537295Y-49161171D02*
X131632533Y-49113552D01*
X131632533Y-49113552D02*
X131775390Y-49113552D01*
X131775390Y-49113552D02*
X131870628Y-49161171D01*
X131870628Y-49161171D02*
X131918247Y-49256409D01*
X131918247Y-49256409D02*
X131918247Y-49780219D01*
X132346819Y-49732600D02*
X132442057Y-49780219D01*
X132442057Y-49780219D02*
X132632533Y-49780219D01*
X132632533Y-49780219D02*
X132727771Y-49732600D01*
X132727771Y-49732600D02*
X132775390Y-49637361D01*
X132775390Y-49637361D02*
X132775390Y-49589742D01*
X132775390Y-49589742D02*
X132727771Y-49494504D01*
X132727771Y-49494504D02*
X132632533Y-49446885D01*
X132632533Y-49446885D02*
X132489676Y-49446885D01*
X132489676Y-49446885D02*
X132394438Y-49399266D01*
X132394438Y-49399266D02*
X132346819Y-49304028D01*
X132346819Y-49304028D02*
X132346819Y-49256409D01*
X132346819Y-49256409D02*
X132394438Y-49161171D01*
X132394438Y-49161171D02*
X132489676Y-49113552D01*
X132489676Y-49113552D02*
X132632533Y-49113552D01*
X132632533Y-49113552D02*
X132727771Y-49161171D01*
X133346819Y-49780219D02*
X133251581Y-49732600D01*
X133251581Y-49732600D02*
X133203962Y-49684980D01*
X133203962Y-49684980D02*
X133156343Y-49589742D01*
X133156343Y-49589742D02*
X133156343Y-49304028D01*
X133156343Y-49304028D02*
X133203962Y-49208790D01*
X133203962Y-49208790D02*
X133251581Y-49161171D01*
X133251581Y-49161171D02*
X133346819Y-49113552D01*
X133346819Y-49113552D02*
X133489676Y-49113552D01*
X133489676Y-49113552D02*
X133584914Y-49161171D01*
X133584914Y-49161171D02*
X133632533Y-49208790D01*
X133632533Y-49208790D02*
X133680152Y-49304028D01*
X133680152Y-49304028D02*
X133680152Y-49589742D01*
X133680152Y-49589742D02*
X133632533Y-49684980D01*
X133632533Y-49684980D02*
X133584914Y-49732600D01*
X133584914Y-49732600D02*
X133489676Y-49780219D01*
X133489676Y-49780219D02*
X133346819Y-49780219D01*
X134108724Y-49780219D02*
X134108724Y-49113552D01*
X134108724Y-49304028D02*
X134156343Y-49208790D01*
X134156343Y-49208790D02*
X134203962Y-49161171D01*
X134203962Y-49161171D02*
X134299200Y-49113552D01*
X134299200Y-49113552D02*
X134394438Y-49113552D01*
X134489677Y-49875457D02*
X135251581Y-49875457D01*
X136013486Y-49780219D02*
X135442058Y-49780219D01*
X135727772Y-49780219D02*
X135727772Y-48780219D01*
X135727772Y-48780219D02*
X135632534Y-48923076D01*
X135632534Y-48923076D02*
X135537296Y-49018314D01*
X135537296Y-49018314D02*
X135442058Y-49065933D01*
X136965867Y-49780219D02*
X136394439Y-49780219D01*
X136680153Y-49780219D02*
X136680153Y-48780219D01*
X136680153Y-48780219D02*
X136584915Y-48923076D01*
X136584915Y-48923076D02*
X136489677Y-49018314D01*
X136489677Y-49018314D02*
X136394439Y-49065933D01*
X97941800Y-92801676D02*
X97989419Y-92658819D01*
X97989419Y-92658819D02*
X97989419Y-92420724D01*
X97989419Y-92420724D02*
X97941800Y-92325486D01*
X97941800Y-92325486D02*
X97894180Y-92277867D01*
X97894180Y-92277867D02*
X97798942Y-92230248D01*
X97798942Y-92230248D02*
X97703704Y-92230248D01*
X97703704Y-92230248D02*
X97608466Y-92277867D01*
X97608466Y-92277867D02*
X97560847Y-92325486D01*
X97560847Y-92325486D02*
X97513228Y-92420724D01*
X97513228Y-92420724D02*
X97465609Y-92611200D01*
X97465609Y-92611200D02*
X97417990Y-92706438D01*
X97417990Y-92706438D02*
X97370371Y-92754057D01*
X97370371Y-92754057D02*
X97275133Y-92801676D01*
X97275133Y-92801676D02*
X97179895Y-92801676D01*
X97179895Y-92801676D02*
X97084657Y-92754057D01*
X97084657Y-92754057D02*
X97037038Y-92706438D01*
X97037038Y-92706438D02*
X96989419Y-92611200D01*
X96989419Y-92611200D02*
X96989419Y-92373105D01*
X96989419Y-92373105D02*
X97037038Y-92230248D01*
X97941800Y-91420724D02*
X97989419Y-91515962D01*
X97989419Y-91515962D02*
X97989419Y-91706438D01*
X97989419Y-91706438D02*
X97941800Y-91801676D01*
X97941800Y-91801676D02*
X97846561Y-91849295D01*
X97846561Y-91849295D02*
X97465609Y-91849295D01*
X97465609Y-91849295D02*
X97370371Y-91801676D01*
X97370371Y-91801676D02*
X97322752Y-91706438D01*
X97322752Y-91706438D02*
X97322752Y-91515962D01*
X97322752Y-91515962D02*
X97370371Y-91420724D01*
X97370371Y-91420724D02*
X97465609Y-91373105D01*
X97465609Y-91373105D02*
X97560847Y-91373105D01*
X97560847Y-91373105D02*
X97656085Y-91849295D01*
X97322752Y-90944533D02*
X97989419Y-90944533D01*
X97417990Y-90944533D02*
X97370371Y-90896914D01*
X97370371Y-90896914D02*
X97322752Y-90801676D01*
X97322752Y-90801676D02*
X97322752Y-90658819D01*
X97322752Y-90658819D02*
X97370371Y-90563581D01*
X97370371Y-90563581D02*
X97465609Y-90515962D01*
X97465609Y-90515962D02*
X97989419Y-90515962D01*
X97941800Y-90087390D02*
X97989419Y-89992152D01*
X97989419Y-89992152D02*
X97989419Y-89801676D01*
X97989419Y-89801676D02*
X97941800Y-89706438D01*
X97941800Y-89706438D02*
X97846561Y-89658819D01*
X97846561Y-89658819D02*
X97798942Y-89658819D01*
X97798942Y-89658819D02*
X97703704Y-89706438D01*
X97703704Y-89706438D02*
X97656085Y-89801676D01*
X97656085Y-89801676D02*
X97656085Y-89944533D01*
X97656085Y-89944533D02*
X97608466Y-90039771D01*
X97608466Y-90039771D02*
X97513228Y-90087390D01*
X97513228Y-90087390D02*
X97465609Y-90087390D01*
X97465609Y-90087390D02*
X97370371Y-90039771D01*
X97370371Y-90039771D02*
X97322752Y-89944533D01*
X97322752Y-89944533D02*
X97322752Y-89801676D01*
X97322752Y-89801676D02*
X97370371Y-89706438D01*
X97989419Y-89087390D02*
X97941800Y-89182628D01*
X97941800Y-89182628D02*
X97894180Y-89230247D01*
X97894180Y-89230247D02*
X97798942Y-89277866D01*
X97798942Y-89277866D02*
X97513228Y-89277866D01*
X97513228Y-89277866D02*
X97417990Y-89230247D01*
X97417990Y-89230247D02*
X97370371Y-89182628D01*
X97370371Y-89182628D02*
X97322752Y-89087390D01*
X97322752Y-89087390D02*
X97322752Y-88944533D01*
X97322752Y-88944533D02*
X97370371Y-88849295D01*
X97370371Y-88849295D02*
X97417990Y-88801676D01*
X97417990Y-88801676D02*
X97513228Y-88754057D01*
X97513228Y-88754057D02*
X97798942Y-88754057D01*
X97798942Y-88754057D02*
X97894180Y-88801676D01*
X97894180Y-88801676D02*
X97941800Y-88849295D01*
X97941800Y-88849295D02*
X97989419Y-88944533D01*
X97989419Y-88944533D02*
X97989419Y-89087390D01*
X97989419Y-88325485D02*
X97322752Y-88325485D01*
X97513228Y-88325485D02*
X97417990Y-88277866D01*
X97417990Y-88277866D02*
X97370371Y-88230247D01*
X97370371Y-88230247D02*
X97322752Y-88135009D01*
X97322752Y-88135009D02*
X97322752Y-88039771D01*
X98084657Y-87944533D02*
X98084657Y-87182628D01*
X96989419Y-86468342D02*
X96989419Y-86944532D01*
X96989419Y-86944532D02*
X97465609Y-86992151D01*
X97465609Y-86992151D02*
X97417990Y-86944532D01*
X97417990Y-86944532D02*
X97370371Y-86849294D01*
X97370371Y-86849294D02*
X97370371Y-86611199D01*
X97370371Y-86611199D02*
X97417990Y-86515961D01*
X97417990Y-86515961D02*
X97465609Y-86468342D01*
X97465609Y-86468342D02*
X97560847Y-86420723D01*
X97560847Y-86420723D02*
X97798942Y-86420723D01*
X97798942Y-86420723D02*
X97894180Y-86468342D01*
X97894180Y-86468342D02*
X97941800Y-86515961D01*
X97941800Y-86515961D02*
X97989419Y-86611199D01*
X97989419Y-86611199D02*
X97989419Y-86849294D01*
X97989419Y-86849294D02*
X97941800Y-86944532D01*
X97941800Y-86944532D02*
X97894180Y-86992151D01*
X97941800Y-82997276D02*
X97989419Y-82854419D01*
X97989419Y-82854419D02*
X97989419Y-82616324D01*
X97989419Y-82616324D02*
X97941800Y-82521086D01*
X97941800Y-82521086D02*
X97894180Y-82473467D01*
X97894180Y-82473467D02*
X97798942Y-82425848D01*
X97798942Y-82425848D02*
X97703704Y-82425848D01*
X97703704Y-82425848D02*
X97608466Y-82473467D01*
X97608466Y-82473467D02*
X97560847Y-82521086D01*
X97560847Y-82521086D02*
X97513228Y-82616324D01*
X97513228Y-82616324D02*
X97465609Y-82806800D01*
X97465609Y-82806800D02*
X97417990Y-82902038D01*
X97417990Y-82902038D02*
X97370371Y-82949657D01*
X97370371Y-82949657D02*
X97275133Y-82997276D01*
X97275133Y-82997276D02*
X97179895Y-82997276D01*
X97179895Y-82997276D02*
X97084657Y-82949657D01*
X97084657Y-82949657D02*
X97037038Y-82902038D01*
X97037038Y-82902038D02*
X96989419Y-82806800D01*
X96989419Y-82806800D02*
X96989419Y-82568705D01*
X96989419Y-82568705D02*
X97037038Y-82425848D01*
X97941800Y-81616324D02*
X97989419Y-81711562D01*
X97989419Y-81711562D02*
X97989419Y-81902038D01*
X97989419Y-81902038D02*
X97941800Y-81997276D01*
X97941800Y-81997276D02*
X97846561Y-82044895D01*
X97846561Y-82044895D02*
X97465609Y-82044895D01*
X97465609Y-82044895D02*
X97370371Y-81997276D01*
X97370371Y-81997276D02*
X97322752Y-81902038D01*
X97322752Y-81902038D02*
X97322752Y-81711562D01*
X97322752Y-81711562D02*
X97370371Y-81616324D01*
X97370371Y-81616324D02*
X97465609Y-81568705D01*
X97465609Y-81568705D02*
X97560847Y-81568705D01*
X97560847Y-81568705D02*
X97656085Y-82044895D01*
X97322752Y-81140133D02*
X97989419Y-81140133D01*
X97417990Y-81140133D02*
X97370371Y-81092514D01*
X97370371Y-81092514D02*
X97322752Y-80997276D01*
X97322752Y-80997276D02*
X97322752Y-80854419D01*
X97322752Y-80854419D02*
X97370371Y-80759181D01*
X97370371Y-80759181D02*
X97465609Y-80711562D01*
X97465609Y-80711562D02*
X97989419Y-80711562D01*
X97941800Y-80282990D02*
X97989419Y-80187752D01*
X97989419Y-80187752D02*
X97989419Y-79997276D01*
X97989419Y-79997276D02*
X97941800Y-79902038D01*
X97941800Y-79902038D02*
X97846561Y-79854419D01*
X97846561Y-79854419D02*
X97798942Y-79854419D01*
X97798942Y-79854419D02*
X97703704Y-79902038D01*
X97703704Y-79902038D02*
X97656085Y-79997276D01*
X97656085Y-79997276D02*
X97656085Y-80140133D01*
X97656085Y-80140133D02*
X97608466Y-80235371D01*
X97608466Y-80235371D02*
X97513228Y-80282990D01*
X97513228Y-80282990D02*
X97465609Y-80282990D01*
X97465609Y-80282990D02*
X97370371Y-80235371D01*
X97370371Y-80235371D02*
X97322752Y-80140133D01*
X97322752Y-80140133D02*
X97322752Y-79997276D01*
X97322752Y-79997276D02*
X97370371Y-79902038D01*
X97989419Y-79282990D02*
X97941800Y-79378228D01*
X97941800Y-79378228D02*
X97894180Y-79425847D01*
X97894180Y-79425847D02*
X97798942Y-79473466D01*
X97798942Y-79473466D02*
X97513228Y-79473466D01*
X97513228Y-79473466D02*
X97417990Y-79425847D01*
X97417990Y-79425847D02*
X97370371Y-79378228D01*
X97370371Y-79378228D02*
X97322752Y-79282990D01*
X97322752Y-79282990D02*
X97322752Y-79140133D01*
X97322752Y-79140133D02*
X97370371Y-79044895D01*
X97370371Y-79044895D02*
X97417990Y-78997276D01*
X97417990Y-78997276D02*
X97513228Y-78949657D01*
X97513228Y-78949657D02*
X97798942Y-78949657D01*
X97798942Y-78949657D02*
X97894180Y-78997276D01*
X97894180Y-78997276D02*
X97941800Y-79044895D01*
X97941800Y-79044895D02*
X97989419Y-79140133D01*
X97989419Y-79140133D02*
X97989419Y-79282990D01*
X97989419Y-78521085D02*
X97322752Y-78521085D01*
X97513228Y-78521085D02*
X97417990Y-78473466D01*
X97417990Y-78473466D02*
X97370371Y-78425847D01*
X97370371Y-78425847D02*
X97322752Y-78330609D01*
X97322752Y-78330609D02*
X97322752Y-78235371D01*
X98084657Y-78140133D02*
X98084657Y-77378228D01*
X96989419Y-76711561D02*
X96989419Y-76902037D01*
X96989419Y-76902037D02*
X97037038Y-76997275D01*
X97037038Y-76997275D02*
X97084657Y-77044894D01*
X97084657Y-77044894D02*
X97227514Y-77140132D01*
X97227514Y-77140132D02*
X97417990Y-77187751D01*
X97417990Y-77187751D02*
X97798942Y-77187751D01*
X97798942Y-77187751D02*
X97894180Y-77140132D01*
X97894180Y-77140132D02*
X97941800Y-77092513D01*
X97941800Y-77092513D02*
X97989419Y-76997275D01*
X97989419Y-76997275D02*
X97989419Y-76806799D01*
X97989419Y-76806799D02*
X97941800Y-76711561D01*
X97941800Y-76711561D02*
X97894180Y-76663942D01*
X97894180Y-76663942D02*
X97798942Y-76616323D01*
X97798942Y-76616323D02*
X97560847Y-76616323D01*
X97560847Y-76616323D02*
X97465609Y-76663942D01*
X97465609Y-76663942D02*
X97417990Y-76711561D01*
X97417990Y-76711561D02*
X97370371Y-76806799D01*
X97370371Y-76806799D02*
X97370371Y-76997275D01*
X97370371Y-76997275D02*
X97417990Y-77092513D01*
X97417990Y-77092513D02*
X97465609Y-77140132D01*
X97465609Y-77140132D02*
X97560847Y-77187751D01*
X148185619Y-126814904D02*
X148661809Y-126814904D01*
X148090381Y-127100619D02*
X148423714Y-126100619D01*
X148423714Y-126100619D02*
X148757047Y-127100619D01*
X149090381Y-127100619D02*
X149090381Y-126433952D01*
X149090381Y-126624428D02*
X149138000Y-126529190D01*
X149138000Y-126529190D02*
X149185619Y-126481571D01*
X149185619Y-126481571D02*
X149280857Y-126433952D01*
X149280857Y-126433952D02*
X149376095Y-126433952D01*
X150138000Y-127100619D02*
X150138000Y-126100619D01*
X150138000Y-127053000D02*
X150042762Y-127100619D01*
X150042762Y-127100619D02*
X149852286Y-127100619D01*
X149852286Y-127100619D02*
X149757048Y-127053000D01*
X149757048Y-127053000D02*
X149709429Y-127005380D01*
X149709429Y-127005380D02*
X149661810Y-126910142D01*
X149661810Y-126910142D02*
X149661810Y-126624428D01*
X149661810Y-126624428D02*
X149709429Y-126529190D01*
X149709429Y-126529190D02*
X149757048Y-126481571D01*
X149757048Y-126481571D02*
X149852286Y-126433952D01*
X149852286Y-126433952D02*
X150042762Y-126433952D01*
X150042762Y-126433952D02*
X150138000Y-126481571D01*
X151042762Y-126433952D02*
X151042762Y-127100619D01*
X150614191Y-126433952D02*
X150614191Y-126957761D01*
X150614191Y-126957761D02*
X150661810Y-127053000D01*
X150661810Y-127053000D02*
X150757048Y-127100619D01*
X150757048Y-127100619D02*
X150899905Y-127100619D01*
X150899905Y-127100619D02*
X150995143Y-127053000D01*
X150995143Y-127053000D02*
X151042762Y-127005380D01*
X151518953Y-127100619D02*
X151518953Y-126433952D01*
X151518953Y-126100619D02*
X151471334Y-126148238D01*
X151471334Y-126148238D02*
X151518953Y-126195857D01*
X151518953Y-126195857D02*
X151566572Y-126148238D01*
X151566572Y-126148238D02*
X151518953Y-126100619D01*
X151518953Y-126100619D02*
X151518953Y-126195857D01*
X151995143Y-126433952D02*
X151995143Y-127100619D01*
X151995143Y-126529190D02*
X152042762Y-126481571D01*
X152042762Y-126481571D02*
X152138000Y-126433952D01*
X152138000Y-126433952D02*
X152280857Y-126433952D01*
X152280857Y-126433952D02*
X152376095Y-126481571D01*
X152376095Y-126481571D02*
X152423714Y-126576809D01*
X152423714Y-126576809D02*
X152423714Y-127100619D01*
X153042762Y-127100619D02*
X152947524Y-127053000D01*
X152947524Y-127053000D02*
X152899905Y-127005380D01*
X152899905Y-127005380D02*
X152852286Y-126910142D01*
X152852286Y-126910142D02*
X152852286Y-126624428D01*
X152852286Y-126624428D02*
X152899905Y-126529190D01*
X152899905Y-126529190D02*
X152947524Y-126481571D01*
X152947524Y-126481571D02*
X153042762Y-126433952D01*
X153042762Y-126433952D02*
X153185619Y-126433952D01*
X153185619Y-126433952D02*
X153280857Y-126481571D01*
X153280857Y-126481571D02*
X153328476Y-126529190D01*
X153328476Y-126529190D02*
X153376095Y-126624428D01*
X153376095Y-126624428D02*
X153376095Y-126910142D01*
X153376095Y-126910142D02*
X153328476Y-127005380D01*
X153328476Y-127005380D02*
X153280857Y-127053000D01*
X153280857Y-127053000D02*
X153185619Y-127100619D01*
X153185619Y-127100619D02*
X153042762Y-127100619D01*
X153566572Y-127195857D02*
X154328476Y-127195857D01*
X154518953Y-126195857D02*
X154566572Y-126148238D01*
X154566572Y-126148238D02*
X154661810Y-126100619D01*
X154661810Y-126100619D02*
X154899905Y-126100619D01*
X154899905Y-126100619D02*
X154995143Y-126148238D01*
X154995143Y-126148238D02*
X155042762Y-126195857D01*
X155042762Y-126195857D02*
X155090381Y-126291095D01*
X155090381Y-126291095D02*
X155090381Y-126386333D01*
X155090381Y-126386333D02*
X155042762Y-126529190D01*
X155042762Y-126529190D02*
X154471334Y-127100619D01*
X154471334Y-127100619D02*
X155090381Y-127100619D01*
X146666666Y-67139104D02*
X147142856Y-67139104D01*
X146571428Y-67424819D02*
X146904761Y-66424819D01*
X146904761Y-66424819D02*
X147238094Y-67424819D01*
X147714285Y-67424819D02*
X147619047Y-67377200D01*
X147619047Y-67377200D02*
X147571428Y-67281961D01*
X147571428Y-67281961D02*
X147571428Y-66424819D01*
X148095238Y-67424819D02*
X148095238Y-66758152D01*
X148095238Y-66424819D02*
X148047619Y-66472438D01*
X148047619Y-66472438D02*
X148095238Y-66520057D01*
X148095238Y-66520057D02*
X148142857Y-66472438D01*
X148142857Y-66472438D02*
X148095238Y-66424819D01*
X148095238Y-66424819D02*
X148095238Y-66520057D01*
X148571428Y-67424819D02*
X148571428Y-66758152D01*
X148571428Y-66853390D02*
X148619047Y-66805771D01*
X148619047Y-66805771D02*
X148714285Y-66758152D01*
X148714285Y-66758152D02*
X148857142Y-66758152D01*
X148857142Y-66758152D02*
X148952380Y-66805771D01*
X148952380Y-66805771D02*
X148999999Y-66901009D01*
X148999999Y-66901009D02*
X148999999Y-67424819D01*
X148999999Y-66901009D02*
X149047618Y-66805771D01*
X149047618Y-66805771D02*
X149142856Y-66758152D01*
X149142856Y-66758152D02*
X149285713Y-66758152D01*
X149285713Y-66758152D02*
X149380952Y-66805771D01*
X149380952Y-66805771D02*
X149428571Y-66901009D01*
X149428571Y-66901009D02*
X149428571Y-67424819D01*
X150285713Y-67377200D02*
X150190475Y-67424819D01*
X150190475Y-67424819D02*
X149999999Y-67424819D01*
X149999999Y-67424819D02*
X149904761Y-67377200D01*
X149904761Y-67377200D02*
X149857142Y-67281961D01*
X149857142Y-67281961D02*
X149857142Y-66901009D01*
X149857142Y-66901009D02*
X149904761Y-66805771D01*
X149904761Y-66805771D02*
X149999999Y-66758152D01*
X149999999Y-66758152D02*
X150190475Y-66758152D01*
X150190475Y-66758152D02*
X150285713Y-66805771D01*
X150285713Y-66805771D02*
X150333332Y-66901009D01*
X150333332Y-66901009D02*
X150333332Y-66996247D01*
X150333332Y-66996247D02*
X149857142Y-67091485D01*
X150761904Y-66758152D02*
X150761904Y-67424819D01*
X150761904Y-66853390D02*
X150809523Y-66805771D01*
X150809523Y-66805771D02*
X150904761Y-66758152D01*
X150904761Y-66758152D02*
X151047618Y-66758152D01*
X151047618Y-66758152D02*
X151142856Y-66805771D01*
X151142856Y-66805771D02*
X151190475Y-66901009D01*
X151190475Y-66901009D02*
X151190475Y-67424819D01*
X151523809Y-66758152D02*
X151904761Y-66758152D01*
X151666666Y-66424819D02*
X151666666Y-67281961D01*
X151666666Y-67281961D02*
X151714285Y-67377200D01*
X151714285Y-67377200D02*
X151809523Y-67424819D01*
X151809523Y-67424819D02*
X151904761Y-67424819D01*
X152666666Y-67424819D02*
X152666666Y-66901009D01*
X152666666Y-66901009D02*
X152619047Y-66805771D01*
X152619047Y-66805771D02*
X152523809Y-66758152D01*
X152523809Y-66758152D02*
X152333333Y-66758152D01*
X152333333Y-66758152D02*
X152238095Y-66805771D01*
X152666666Y-67377200D02*
X152571428Y-67424819D01*
X152571428Y-67424819D02*
X152333333Y-67424819D01*
X152333333Y-67424819D02*
X152238095Y-67377200D01*
X152238095Y-67377200D02*
X152190476Y-67281961D01*
X152190476Y-67281961D02*
X152190476Y-67186723D01*
X152190476Y-67186723D02*
X152238095Y-67091485D01*
X152238095Y-67091485D02*
X152333333Y-67043866D01*
X152333333Y-67043866D02*
X152571428Y-67043866D01*
X152571428Y-67043866D02*
X152666666Y-66996247D01*
X153571428Y-67377200D02*
X153476190Y-67424819D01*
X153476190Y-67424819D02*
X153285714Y-67424819D01*
X153285714Y-67424819D02*
X153190476Y-67377200D01*
X153190476Y-67377200D02*
X153142857Y-67329580D01*
X153142857Y-67329580D02*
X153095238Y-67234342D01*
X153095238Y-67234342D02*
X153095238Y-66948628D01*
X153095238Y-66948628D02*
X153142857Y-66853390D01*
X153142857Y-66853390D02*
X153190476Y-66805771D01*
X153190476Y-66805771D02*
X153285714Y-66758152D01*
X153285714Y-66758152D02*
X153476190Y-66758152D01*
X153476190Y-66758152D02*
X153571428Y-66805771D01*
X153380952Y-67472438D02*
X153476190Y-67520057D01*
X153476190Y-67520057D02*
X153523809Y-67615295D01*
X153523809Y-67615295D02*
X153476190Y-67710533D01*
X153476190Y-67710533D02*
X153380952Y-67758152D01*
X153380952Y-67758152D02*
X153238095Y-67758152D01*
X154428571Y-67424819D02*
X154428571Y-66901009D01*
X154428571Y-66901009D02*
X154380952Y-66805771D01*
X154380952Y-66805771D02*
X154285714Y-66758152D01*
X154285714Y-66758152D02*
X154095238Y-66758152D01*
X154095238Y-66758152D02*
X154000000Y-66805771D01*
X154428571Y-67377200D02*
X154333333Y-67424819D01*
X154333333Y-67424819D02*
X154095238Y-67424819D01*
X154095238Y-67424819D02*
X154000000Y-67377200D01*
X154000000Y-67377200D02*
X153952381Y-67281961D01*
X153952381Y-67281961D02*
X153952381Y-67186723D01*
X153952381Y-67186723D02*
X154000000Y-67091485D01*
X154000000Y-67091485D02*
X154095238Y-67043866D01*
X154095238Y-67043866D02*
X154333333Y-67043866D01*
X154333333Y-67043866D02*
X154428571Y-66996247D01*
X153952381Y-66520057D02*
X154000000Y-66472438D01*
X154000000Y-66472438D02*
X154095238Y-66424819D01*
X154095238Y-66424819D02*
X154285714Y-66520057D01*
X154285714Y-66520057D02*
X154380952Y-66472438D01*
X154380952Y-66472438D02*
X154428571Y-66424819D01*
X155047619Y-67424819D02*
X154952381Y-67377200D01*
X154952381Y-67377200D02*
X154904762Y-67329580D01*
X154904762Y-67329580D02*
X154857143Y-67234342D01*
X154857143Y-67234342D02*
X154857143Y-66948628D01*
X154857143Y-66948628D02*
X154904762Y-66853390D01*
X154904762Y-66853390D02*
X154952381Y-66805771D01*
X154952381Y-66805771D02*
X155047619Y-66758152D01*
X155047619Y-66758152D02*
X155190476Y-66758152D01*
X155190476Y-66758152D02*
X155285714Y-66805771D01*
X155285714Y-66805771D02*
X155333333Y-66853390D01*
X155333333Y-66853390D02*
X155380952Y-66948628D01*
X155380952Y-66948628D02*
X155380952Y-67234342D01*
X155380952Y-67234342D02*
X155333333Y-67329580D01*
X155333333Y-67329580D02*
X155285714Y-67377200D01*
X155285714Y-67377200D02*
X155190476Y-67424819D01*
X155190476Y-67424819D02*
X155047619Y-67424819D01*
X155761905Y-66520057D02*
X155809524Y-66472438D01*
X155809524Y-66472438D02*
X155904762Y-66424819D01*
X155904762Y-66424819D02*
X156142857Y-66424819D01*
X156142857Y-66424819D02*
X156238095Y-66472438D01*
X156238095Y-66472438D02*
X156285714Y-66520057D01*
X156285714Y-66520057D02*
X156333333Y-66615295D01*
X156333333Y-66615295D02*
X156333333Y-66710533D01*
X156333333Y-66710533D02*
X156285714Y-66853390D01*
X156285714Y-66853390D02*
X155714286Y-67424819D01*
X155714286Y-67424819D02*
X156333333Y-67424819D01*
X146804666Y-111371704D02*
X147280856Y-111371704D01*
X146709428Y-111657419D02*
X147042761Y-110657419D01*
X147042761Y-110657419D02*
X147376094Y-111657419D01*
X147852285Y-111657419D02*
X147757047Y-111609800D01*
X147757047Y-111609800D02*
X147709428Y-111514561D01*
X147709428Y-111514561D02*
X147709428Y-110657419D01*
X148233238Y-111657419D02*
X148233238Y-110990752D01*
X148233238Y-110657419D02*
X148185619Y-110705038D01*
X148185619Y-110705038D02*
X148233238Y-110752657D01*
X148233238Y-110752657D02*
X148280857Y-110705038D01*
X148280857Y-110705038D02*
X148233238Y-110657419D01*
X148233238Y-110657419D02*
X148233238Y-110752657D01*
X148709428Y-111657419D02*
X148709428Y-110990752D01*
X148709428Y-111085990D02*
X148757047Y-111038371D01*
X148757047Y-111038371D02*
X148852285Y-110990752D01*
X148852285Y-110990752D02*
X148995142Y-110990752D01*
X148995142Y-110990752D02*
X149090380Y-111038371D01*
X149090380Y-111038371D02*
X149137999Y-111133609D01*
X149137999Y-111133609D02*
X149137999Y-111657419D01*
X149137999Y-111133609D02*
X149185618Y-111038371D01*
X149185618Y-111038371D02*
X149280856Y-110990752D01*
X149280856Y-110990752D02*
X149423713Y-110990752D01*
X149423713Y-110990752D02*
X149518952Y-111038371D01*
X149518952Y-111038371D02*
X149566571Y-111133609D01*
X149566571Y-111133609D02*
X149566571Y-111657419D01*
X150423713Y-111609800D02*
X150328475Y-111657419D01*
X150328475Y-111657419D02*
X150137999Y-111657419D01*
X150137999Y-111657419D02*
X150042761Y-111609800D01*
X150042761Y-111609800D02*
X149995142Y-111514561D01*
X149995142Y-111514561D02*
X149995142Y-111133609D01*
X149995142Y-111133609D02*
X150042761Y-111038371D01*
X150042761Y-111038371D02*
X150137999Y-110990752D01*
X150137999Y-110990752D02*
X150328475Y-110990752D01*
X150328475Y-110990752D02*
X150423713Y-111038371D01*
X150423713Y-111038371D02*
X150471332Y-111133609D01*
X150471332Y-111133609D02*
X150471332Y-111228847D01*
X150471332Y-111228847D02*
X149995142Y-111324085D01*
X150899904Y-110990752D02*
X150899904Y-111657419D01*
X150899904Y-111085990D02*
X150947523Y-111038371D01*
X150947523Y-111038371D02*
X151042761Y-110990752D01*
X151042761Y-110990752D02*
X151185618Y-110990752D01*
X151185618Y-110990752D02*
X151280856Y-111038371D01*
X151280856Y-111038371D02*
X151328475Y-111133609D01*
X151328475Y-111133609D02*
X151328475Y-111657419D01*
X151661809Y-110990752D02*
X152042761Y-110990752D01*
X151804666Y-110657419D02*
X151804666Y-111514561D01*
X151804666Y-111514561D02*
X151852285Y-111609800D01*
X151852285Y-111609800D02*
X151947523Y-111657419D01*
X151947523Y-111657419D02*
X152042761Y-111657419D01*
X152804666Y-111657419D02*
X152804666Y-111133609D01*
X152804666Y-111133609D02*
X152757047Y-111038371D01*
X152757047Y-111038371D02*
X152661809Y-110990752D01*
X152661809Y-110990752D02*
X152471333Y-110990752D01*
X152471333Y-110990752D02*
X152376095Y-111038371D01*
X152804666Y-111609800D02*
X152709428Y-111657419D01*
X152709428Y-111657419D02*
X152471333Y-111657419D01*
X152471333Y-111657419D02*
X152376095Y-111609800D01*
X152376095Y-111609800D02*
X152328476Y-111514561D01*
X152328476Y-111514561D02*
X152328476Y-111419323D01*
X152328476Y-111419323D02*
X152376095Y-111324085D01*
X152376095Y-111324085D02*
X152471333Y-111276466D01*
X152471333Y-111276466D02*
X152709428Y-111276466D01*
X152709428Y-111276466D02*
X152804666Y-111228847D01*
X153709428Y-111609800D02*
X153614190Y-111657419D01*
X153614190Y-111657419D02*
X153423714Y-111657419D01*
X153423714Y-111657419D02*
X153328476Y-111609800D01*
X153328476Y-111609800D02*
X153280857Y-111562180D01*
X153280857Y-111562180D02*
X153233238Y-111466942D01*
X153233238Y-111466942D02*
X153233238Y-111181228D01*
X153233238Y-111181228D02*
X153280857Y-111085990D01*
X153280857Y-111085990D02*
X153328476Y-111038371D01*
X153328476Y-111038371D02*
X153423714Y-110990752D01*
X153423714Y-110990752D02*
X153614190Y-110990752D01*
X153614190Y-110990752D02*
X153709428Y-111038371D01*
X153518952Y-111705038D02*
X153614190Y-111752657D01*
X153614190Y-111752657D02*
X153661809Y-111847895D01*
X153661809Y-111847895D02*
X153614190Y-111943133D01*
X153614190Y-111943133D02*
X153518952Y-111990752D01*
X153518952Y-111990752D02*
X153376095Y-111990752D01*
X154566571Y-111657419D02*
X154566571Y-111133609D01*
X154566571Y-111133609D02*
X154518952Y-111038371D01*
X154518952Y-111038371D02*
X154423714Y-110990752D01*
X154423714Y-110990752D02*
X154233238Y-110990752D01*
X154233238Y-110990752D02*
X154138000Y-111038371D01*
X154566571Y-111609800D02*
X154471333Y-111657419D01*
X154471333Y-111657419D02*
X154233238Y-111657419D01*
X154233238Y-111657419D02*
X154138000Y-111609800D01*
X154138000Y-111609800D02*
X154090381Y-111514561D01*
X154090381Y-111514561D02*
X154090381Y-111419323D01*
X154090381Y-111419323D02*
X154138000Y-111324085D01*
X154138000Y-111324085D02*
X154233238Y-111276466D01*
X154233238Y-111276466D02*
X154471333Y-111276466D01*
X154471333Y-111276466D02*
X154566571Y-111228847D01*
X154090381Y-110752657D02*
X154138000Y-110705038D01*
X154138000Y-110705038D02*
X154233238Y-110657419D01*
X154233238Y-110657419D02*
X154423714Y-110752657D01*
X154423714Y-110752657D02*
X154518952Y-110705038D01*
X154518952Y-110705038D02*
X154566571Y-110657419D01*
X155185619Y-111657419D02*
X155090381Y-111609800D01*
X155090381Y-111609800D02*
X155042762Y-111562180D01*
X155042762Y-111562180D02*
X154995143Y-111466942D01*
X154995143Y-111466942D02*
X154995143Y-111181228D01*
X154995143Y-111181228D02*
X155042762Y-111085990D01*
X155042762Y-111085990D02*
X155090381Y-111038371D01*
X155090381Y-111038371D02*
X155185619Y-110990752D01*
X155185619Y-110990752D02*
X155328476Y-110990752D01*
X155328476Y-110990752D02*
X155423714Y-111038371D01*
X155423714Y-111038371D02*
X155471333Y-111085990D01*
X155471333Y-111085990D02*
X155518952Y-111181228D01*
X155518952Y-111181228D02*
X155518952Y-111466942D01*
X155518952Y-111466942D02*
X155471333Y-111562180D01*
X155471333Y-111562180D02*
X155423714Y-111609800D01*
X155423714Y-111609800D02*
X155328476Y-111657419D01*
X155328476Y-111657419D02*
X155185619Y-111657419D01*
X156471333Y-111657419D02*
X155899905Y-111657419D01*
X156185619Y-111657419D02*
X156185619Y-110657419D01*
X156185619Y-110657419D02*
X156090381Y-110800276D01*
X156090381Y-110800276D02*
X155995143Y-110895514D01*
X155995143Y-110895514D02*
X155899905Y-110943133D01*
X119828133Y-49732600D02*
X119970990Y-49780219D01*
X119970990Y-49780219D02*
X120209085Y-49780219D01*
X120209085Y-49780219D02*
X120304323Y-49732600D01*
X120304323Y-49732600D02*
X120351942Y-49684980D01*
X120351942Y-49684980D02*
X120399561Y-49589742D01*
X120399561Y-49589742D02*
X120399561Y-49494504D01*
X120399561Y-49494504D02*
X120351942Y-49399266D01*
X120351942Y-49399266D02*
X120304323Y-49351647D01*
X120304323Y-49351647D02*
X120209085Y-49304028D01*
X120209085Y-49304028D02*
X120018609Y-49256409D01*
X120018609Y-49256409D02*
X119923371Y-49208790D01*
X119923371Y-49208790D02*
X119875752Y-49161171D01*
X119875752Y-49161171D02*
X119828133Y-49065933D01*
X119828133Y-49065933D02*
X119828133Y-48970695D01*
X119828133Y-48970695D02*
X119875752Y-48875457D01*
X119875752Y-48875457D02*
X119923371Y-48827838D01*
X119923371Y-48827838D02*
X120018609Y-48780219D01*
X120018609Y-48780219D02*
X120256704Y-48780219D01*
X120256704Y-48780219D02*
X120399561Y-48827838D01*
X121209085Y-49732600D02*
X121113847Y-49780219D01*
X121113847Y-49780219D02*
X120923371Y-49780219D01*
X120923371Y-49780219D02*
X120828133Y-49732600D01*
X120828133Y-49732600D02*
X120780514Y-49637361D01*
X120780514Y-49637361D02*
X120780514Y-49256409D01*
X120780514Y-49256409D02*
X120828133Y-49161171D01*
X120828133Y-49161171D02*
X120923371Y-49113552D01*
X120923371Y-49113552D02*
X121113847Y-49113552D01*
X121113847Y-49113552D02*
X121209085Y-49161171D01*
X121209085Y-49161171D02*
X121256704Y-49256409D01*
X121256704Y-49256409D02*
X121256704Y-49351647D01*
X121256704Y-49351647D02*
X120780514Y-49446885D01*
X121685276Y-49113552D02*
X121685276Y-49780219D01*
X121685276Y-49208790D02*
X121732895Y-49161171D01*
X121732895Y-49161171D02*
X121828133Y-49113552D01*
X121828133Y-49113552D02*
X121970990Y-49113552D01*
X121970990Y-49113552D02*
X122066228Y-49161171D01*
X122066228Y-49161171D02*
X122113847Y-49256409D01*
X122113847Y-49256409D02*
X122113847Y-49780219D01*
X122542419Y-49732600D02*
X122637657Y-49780219D01*
X122637657Y-49780219D02*
X122828133Y-49780219D01*
X122828133Y-49780219D02*
X122923371Y-49732600D01*
X122923371Y-49732600D02*
X122970990Y-49637361D01*
X122970990Y-49637361D02*
X122970990Y-49589742D01*
X122970990Y-49589742D02*
X122923371Y-49494504D01*
X122923371Y-49494504D02*
X122828133Y-49446885D01*
X122828133Y-49446885D02*
X122685276Y-49446885D01*
X122685276Y-49446885D02*
X122590038Y-49399266D01*
X122590038Y-49399266D02*
X122542419Y-49304028D01*
X122542419Y-49304028D02*
X122542419Y-49256409D01*
X122542419Y-49256409D02*
X122590038Y-49161171D01*
X122590038Y-49161171D02*
X122685276Y-49113552D01*
X122685276Y-49113552D02*
X122828133Y-49113552D01*
X122828133Y-49113552D02*
X122923371Y-49161171D01*
X123542419Y-49780219D02*
X123447181Y-49732600D01*
X123447181Y-49732600D02*
X123399562Y-49684980D01*
X123399562Y-49684980D02*
X123351943Y-49589742D01*
X123351943Y-49589742D02*
X123351943Y-49304028D01*
X123351943Y-49304028D02*
X123399562Y-49208790D01*
X123399562Y-49208790D02*
X123447181Y-49161171D01*
X123447181Y-49161171D02*
X123542419Y-49113552D01*
X123542419Y-49113552D02*
X123685276Y-49113552D01*
X123685276Y-49113552D02*
X123780514Y-49161171D01*
X123780514Y-49161171D02*
X123828133Y-49208790D01*
X123828133Y-49208790D02*
X123875752Y-49304028D01*
X123875752Y-49304028D02*
X123875752Y-49589742D01*
X123875752Y-49589742D02*
X123828133Y-49684980D01*
X123828133Y-49684980D02*
X123780514Y-49732600D01*
X123780514Y-49732600D02*
X123685276Y-49780219D01*
X123685276Y-49780219D02*
X123542419Y-49780219D01*
X124304324Y-49780219D02*
X124304324Y-49113552D01*
X124304324Y-49304028D02*
X124351943Y-49208790D01*
X124351943Y-49208790D02*
X124399562Y-49161171D01*
X124399562Y-49161171D02*
X124494800Y-49113552D01*
X124494800Y-49113552D02*
X124590038Y-49113552D01*
X124685277Y-49875457D02*
X125447181Y-49875457D01*
X126209086Y-49780219D02*
X125637658Y-49780219D01*
X125923372Y-49780219D02*
X125923372Y-48780219D01*
X125923372Y-48780219D02*
X125828134Y-48923076D01*
X125828134Y-48923076D02*
X125732896Y-49018314D01*
X125732896Y-49018314D02*
X125637658Y-49065933D01*
X126828134Y-48780219D02*
X126923372Y-48780219D01*
X126923372Y-48780219D02*
X127018610Y-48827838D01*
X127018610Y-48827838D02*
X127066229Y-48875457D01*
X127066229Y-48875457D02*
X127113848Y-48970695D01*
X127113848Y-48970695D02*
X127161467Y-49161171D01*
X127161467Y-49161171D02*
X127161467Y-49399266D01*
X127161467Y-49399266D02*
X127113848Y-49589742D01*
X127113848Y-49589742D02*
X127066229Y-49684980D01*
X127066229Y-49684980D02*
X127018610Y-49732600D01*
X127018610Y-49732600D02*
X126923372Y-49780219D01*
X126923372Y-49780219D02*
X126828134Y-49780219D01*
X126828134Y-49780219D02*
X126732896Y-49732600D01*
X126732896Y-49732600D02*
X126685277Y-49684980D01*
X126685277Y-49684980D02*
X126637658Y-49589742D01*
X126637658Y-49589742D02*
X126590039Y-49399266D01*
X126590039Y-49399266D02*
X126590039Y-49161171D01*
X126590039Y-49161171D02*
X126637658Y-48970695D01*
X126637658Y-48970695D02*
X126685277Y-48875457D01*
X126685277Y-48875457D02*
X126732896Y-48827838D01*
X126732896Y-48827838D02*
X126828134Y-48780219D01*
X100695523Y-49732600D02*
X100838380Y-49780219D01*
X100838380Y-49780219D02*
X101076475Y-49780219D01*
X101076475Y-49780219D02*
X101171713Y-49732600D01*
X101171713Y-49732600D02*
X101219332Y-49684980D01*
X101219332Y-49684980D02*
X101266951Y-49589742D01*
X101266951Y-49589742D02*
X101266951Y-49494504D01*
X101266951Y-49494504D02*
X101219332Y-49399266D01*
X101219332Y-49399266D02*
X101171713Y-49351647D01*
X101171713Y-49351647D02*
X101076475Y-49304028D01*
X101076475Y-49304028D02*
X100885999Y-49256409D01*
X100885999Y-49256409D02*
X100790761Y-49208790D01*
X100790761Y-49208790D02*
X100743142Y-49161171D01*
X100743142Y-49161171D02*
X100695523Y-49065933D01*
X100695523Y-49065933D02*
X100695523Y-48970695D01*
X100695523Y-48970695D02*
X100743142Y-48875457D01*
X100743142Y-48875457D02*
X100790761Y-48827838D01*
X100790761Y-48827838D02*
X100885999Y-48780219D01*
X100885999Y-48780219D02*
X101124094Y-48780219D01*
X101124094Y-48780219D02*
X101266951Y-48827838D01*
X102076475Y-49732600D02*
X101981237Y-49780219D01*
X101981237Y-49780219D02*
X101790761Y-49780219D01*
X101790761Y-49780219D02*
X101695523Y-49732600D01*
X101695523Y-49732600D02*
X101647904Y-49637361D01*
X101647904Y-49637361D02*
X101647904Y-49256409D01*
X101647904Y-49256409D02*
X101695523Y-49161171D01*
X101695523Y-49161171D02*
X101790761Y-49113552D01*
X101790761Y-49113552D02*
X101981237Y-49113552D01*
X101981237Y-49113552D02*
X102076475Y-49161171D01*
X102076475Y-49161171D02*
X102124094Y-49256409D01*
X102124094Y-49256409D02*
X102124094Y-49351647D01*
X102124094Y-49351647D02*
X101647904Y-49446885D01*
X102552666Y-49113552D02*
X102552666Y-49780219D01*
X102552666Y-49208790D02*
X102600285Y-49161171D01*
X102600285Y-49161171D02*
X102695523Y-49113552D01*
X102695523Y-49113552D02*
X102838380Y-49113552D01*
X102838380Y-49113552D02*
X102933618Y-49161171D01*
X102933618Y-49161171D02*
X102981237Y-49256409D01*
X102981237Y-49256409D02*
X102981237Y-49780219D01*
X103409809Y-49732600D02*
X103505047Y-49780219D01*
X103505047Y-49780219D02*
X103695523Y-49780219D01*
X103695523Y-49780219D02*
X103790761Y-49732600D01*
X103790761Y-49732600D02*
X103838380Y-49637361D01*
X103838380Y-49637361D02*
X103838380Y-49589742D01*
X103838380Y-49589742D02*
X103790761Y-49494504D01*
X103790761Y-49494504D02*
X103695523Y-49446885D01*
X103695523Y-49446885D02*
X103552666Y-49446885D01*
X103552666Y-49446885D02*
X103457428Y-49399266D01*
X103457428Y-49399266D02*
X103409809Y-49304028D01*
X103409809Y-49304028D02*
X103409809Y-49256409D01*
X103409809Y-49256409D02*
X103457428Y-49161171D01*
X103457428Y-49161171D02*
X103552666Y-49113552D01*
X103552666Y-49113552D02*
X103695523Y-49113552D01*
X103695523Y-49113552D02*
X103790761Y-49161171D01*
X104409809Y-49780219D02*
X104314571Y-49732600D01*
X104314571Y-49732600D02*
X104266952Y-49684980D01*
X104266952Y-49684980D02*
X104219333Y-49589742D01*
X104219333Y-49589742D02*
X104219333Y-49304028D01*
X104219333Y-49304028D02*
X104266952Y-49208790D01*
X104266952Y-49208790D02*
X104314571Y-49161171D01*
X104314571Y-49161171D02*
X104409809Y-49113552D01*
X104409809Y-49113552D02*
X104552666Y-49113552D01*
X104552666Y-49113552D02*
X104647904Y-49161171D01*
X104647904Y-49161171D02*
X104695523Y-49208790D01*
X104695523Y-49208790D02*
X104743142Y-49304028D01*
X104743142Y-49304028D02*
X104743142Y-49589742D01*
X104743142Y-49589742D02*
X104695523Y-49684980D01*
X104695523Y-49684980D02*
X104647904Y-49732600D01*
X104647904Y-49732600D02*
X104552666Y-49780219D01*
X104552666Y-49780219D02*
X104409809Y-49780219D01*
X105171714Y-49780219D02*
X105171714Y-49113552D01*
X105171714Y-49304028D02*
X105219333Y-49208790D01*
X105219333Y-49208790D02*
X105266952Y-49161171D01*
X105266952Y-49161171D02*
X105362190Y-49113552D01*
X105362190Y-49113552D02*
X105457428Y-49113552D01*
X105552667Y-49875457D02*
X106314571Y-49875457D01*
X106695524Y-49208790D02*
X106600286Y-49161171D01*
X106600286Y-49161171D02*
X106552667Y-49113552D01*
X106552667Y-49113552D02*
X106505048Y-49018314D01*
X106505048Y-49018314D02*
X106505048Y-48970695D01*
X106505048Y-48970695D02*
X106552667Y-48875457D01*
X106552667Y-48875457D02*
X106600286Y-48827838D01*
X106600286Y-48827838D02*
X106695524Y-48780219D01*
X106695524Y-48780219D02*
X106886000Y-48780219D01*
X106886000Y-48780219D02*
X106981238Y-48827838D01*
X106981238Y-48827838D02*
X107028857Y-48875457D01*
X107028857Y-48875457D02*
X107076476Y-48970695D01*
X107076476Y-48970695D02*
X107076476Y-49018314D01*
X107076476Y-49018314D02*
X107028857Y-49113552D01*
X107028857Y-49113552D02*
X106981238Y-49161171D01*
X106981238Y-49161171D02*
X106886000Y-49208790D01*
X106886000Y-49208790D02*
X106695524Y-49208790D01*
X106695524Y-49208790D02*
X106600286Y-49256409D01*
X106600286Y-49256409D02*
X106552667Y-49304028D01*
X106552667Y-49304028D02*
X106505048Y-49399266D01*
X106505048Y-49399266D02*
X106505048Y-49589742D01*
X106505048Y-49589742D02*
X106552667Y-49684980D01*
X106552667Y-49684980D02*
X106600286Y-49732600D01*
X106600286Y-49732600D02*
X106695524Y-49780219D01*
X106695524Y-49780219D02*
X106886000Y-49780219D01*
X106886000Y-49780219D02*
X106981238Y-49732600D01*
X106981238Y-49732600D02*
X107028857Y-49684980D01*
X107028857Y-49684980D02*
X107076476Y-49589742D01*
X107076476Y-49589742D02*
X107076476Y-49399266D01*
X107076476Y-49399266D02*
X107028857Y-49304028D01*
X107028857Y-49304028D02*
X106981238Y-49256409D01*
X106981238Y-49256409D02*
X106886000Y-49208790D01*
X148185619Y-79824904D02*
X148661809Y-79824904D01*
X148090381Y-80110619D02*
X148423714Y-79110619D01*
X148423714Y-79110619D02*
X148757047Y-80110619D01*
X149090381Y-80110619D02*
X149090381Y-79443952D01*
X149090381Y-79634428D02*
X149138000Y-79539190D01*
X149138000Y-79539190D02*
X149185619Y-79491571D01*
X149185619Y-79491571D02*
X149280857Y-79443952D01*
X149280857Y-79443952D02*
X149376095Y-79443952D01*
X150138000Y-80110619D02*
X150138000Y-79110619D01*
X150138000Y-80063000D02*
X150042762Y-80110619D01*
X150042762Y-80110619D02*
X149852286Y-80110619D01*
X149852286Y-80110619D02*
X149757048Y-80063000D01*
X149757048Y-80063000D02*
X149709429Y-80015380D01*
X149709429Y-80015380D02*
X149661810Y-79920142D01*
X149661810Y-79920142D02*
X149661810Y-79634428D01*
X149661810Y-79634428D02*
X149709429Y-79539190D01*
X149709429Y-79539190D02*
X149757048Y-79491571D01*
X149757048Y-79491571D02*
X149852286Y-79443952D01*
X149852286Y-79443952D02*
X150042762Y-79443952D01*
X150042762Y-79443952D02*
X150138000Y-79491571D01*
X151042762Y-79443952D02*
X151042762Y-80110619D01*
X150614191Y-79443952D02*
X150614191Y-79967761D01*
X150614191Y-79967761D02*
X150661810Y-80063000D01*
X150661810Y-80063000D02*
X150757048Y-80110619D01*
X150757048Y-80110619D02*
X150899905Y-80110619D01*
X150899905Y-80110619D02*
X150995143Y-80063000D01*
X150995143Y-80063000D02*
X151042762Y-80015380D01*
X151518953Y-80110619D02*
X151518953Y-79443952D01*
X151518953Y-79110619D02*
X151471334Y-79158238D01*
X151471334Y-79158238D02*
X151518953Y-79205857D01*
X151518953Y-79205857D02*
X151566572Y-79158238D01*
X151566572Y-79158238D02*
X151518953Y-79110619D01*
X151518953Y-79110619D02*
X151518953Y-79205857D01*
X151995143Y-79443952D02*
X151995143Y-80110619D01*
X151995143Y-79539190D02*
X152042762Y-79491571D01*
X152042762Y-79491571D02*
X152138000Y-79443952D01*
X152138000Y-79443952D02*
X152280857Y-79443952D01*
X152280857Y-79443952D02*
X152376095Y-79491571D01*
X152376095Y-79491571D02*
X152423714Y-79586809D01*
X152423714Y-79586809D02*
X152423714Y-80110619D01*
X153042762Y-80110619D02*
X152947524Y-80063000D01*
X152947524Y-80063000D02*
X152899905Y-80015380D01*
X152899905Y-80015380D02*
X152852286Y-79920142D01*
X152852286Y-79920142D02*
X152852286Y-79634428D01*
X152852286Y-79634428D02*
X152899905Y-79539190D01*
X152899905Y-79539190D02*
X152947524Y-79491571D01*
X152947524Y-79491571D02*
X153042762Y-79443952D01*
X153042762Y-79443952D02*
X153185619Y-79443952D01*
X153185619Y-79443952D02*
X153280857Y-79491571D01*
X153280857Y-79491571D02*
X153328476Y-79539190D01*
X153328476Y-79539190D02*
X153376095Y-79634428D01*
X153376095Y-79634428D02*
X153376095Y-79920142D01*
X153376095Y-79920142D02*
X153328476Y-80015380D01*
X153328476Y-80015380D02*
X153280857Y-80063000D01*
X153280857Y-80063000D02*
X153185619Y-80110619D01*
X153185619Y-80110619D02*
X153042762Y-80110619D01*
X153566572Y-80205857D02*
X154328476Y-80205857D01*
X154471334Y-79110619D02*
X155090381Y-79110619D01*
X155090381Y-79110619D02*
X154757048Y-79491571D01*
X154757048Y-79491571D02*
X154899905Y-79491571D01*
X154899905Y-79491571D02*
X154995143Y-79539190D01*
X154995143Y-79539190D02*
X155042762Y-79586809D01*
X155042762Y-79586809D02*
X155090381Y-79682047D01*
X155090381Y-79682047D02*
X155090381Y-79920142D01*
X155090381Y-79920142D02*
X155042762Y-80015380D01*
X155042762Y-80015380D02*
X154995143Y-80063000D01*
X154995143Y-80063000D02*
X154899905Y-80110619D01*
X154899905Y-80110619D02*
X154614191Y-80110619D01*
X154614191Y-80110619D02*
X154518953Y-80063000D01*
X154518953Y-80063000D02*
X154471334Y-80015380D01*
%TO.C,Sensor_7*%
D11*
X98974600Y-68672400D02*
X100304600Y-68672400D01*
X98974600Y-70002400D02*
X98974600Y-68672400D01*
X101574600Y-68672400D02*
X111794600Y-68672400D01*
X101574600Y-71332400D02*
X101574600Y-68672400D01*
X101574600Y-71332400D02*
X111794600Y-71332400D01*
X111794600Y-71332400D02*
X111794600Y-68672400D01*
%TO.C,Sensor_4*%
X98974600Y-98085600D02*
X100304600Y-98085600D01*
X98974600Y-99415600D02*
X98974600Y-98085600D01*
X101574600Y-98085600D02*
X111794600Y-98085600D01*
X101574600Y-100745600D02*
X101574600Y-98085600D01*
X101574600Y-100745600D02*
X111794600Y-100745600D01*
X111794600Y-100745600D02*
X111794600Y-98085600D01*
%TO.C,Sensor_1*%
X98974600Y-127498800D02*
X100304600Y-127498800D01*
X98974600Y-128828800D02*
X98974600Y-127498800D01*
X101574600Y-127498800D02*
X111794600Y-127498800D01*
X101574600Y-130158800D02*
X101574600Y-127498800D01*
X101574600Y-130158800D02*
X111794600Y-130158800D01*
X111794600Y-130158800D02*
X111794600Y-127498800D01*
%TO.C,Arduino_1*%
X150359600Y-96596200D02*
X150359600Y-83786200D01*
X153119600Y-83786200D02*
X150359600Y-83786200D01*
X153119600Y-96596200D02*
X150359600Y-96596200D01*
X153119600Y-96596200D02*
X153119600Y-83786200D01*
X153119600Y-97866200D02*
X153119600Y-99246200D01*
X153119600Y-99246200D02*
X151739600Y-99246200D01*
%TO.C,Sensor_9*%
X112360400Y-53365400D02*
X112360400Y-63585400D01*
X112360400Y-53365400D02*
X115020400Y-53365400D01*
X112360400Y-63585400D02*
X115020400Y-63585400D01*
X113690400Y-50765400D02*
X115020400Y-50765400D01*
X115020400Y-50765400D02*
X115020400Y-52095400D01*
X115020400Y-53365400D02*
X115020400Y-63585400D01*
%TO.C,R1*%
X137130000Y-69730000D02*
X137130000Y-76270000D01*
X137130000Y-76270000D02*
X137460000Y-76270000D01*
X137460000Y-69730000D02*
X137130000Y-69730000D01*
X139540000Y-69730000D02*
X139870000Y-69730000D01*
X139870000Y-69730000D02*
X139870000Y-76270000D01*
X139870000Y-76270000D02*
X139540000Y-76270000D01*
%TO.C,Sensor_2*%
X98974600Y-117694400D02*
X100304600Y-117694400D01*
X98974600Y-119024400D02*
X98974600Y-117694400D01*
X101574600Y-117694400D02*
X111794600Y-117694400D01*
X101574600Y-120354400D02*
X101574600Y-117694400D01*
X101574600Y-120354400D02*
X111794600Y-120354400D01*
X111794600Y-120354400D02*
X111794600Y-117694400D01*
%TO.C,U1*%
D12*
X122301000Y-79248000D02*
X122301000Y-119888000D01*
X122301000Y-119888000D02*
X140081000Y-119888000D01*
X140081000Y-79248000D02*
X122301000Y-79248000D01*
X140081000Y-119888000D02*
X140081000Y-79248000D01*
D13*
X141291000Y-108458000D02*
G75*
G02*
X141091000Y-108458000I-100000J0D01*
G01*
X141091000Y-108458000D02*
G75*
G02*
X141291000Y-108458000I100000J0D01*
G01*
%TO.C,JArduino_4*%
D11*
X150155600Y-49479200D02*
X150155600Y-57159200D01*
X150155600Y-49479200D02*
X152815600Y-49479200D01*
X150155600Y-57159200D02*
X152815600Y-57159200D01*
X151485600Y-46879200D02*
X152815600Y-46879200D01*
X152815600Y-46879200D02*
X152815600Y-48209200D01*
X152815600Y-49479200D02*
X152815600Y-57159200D01*
%TO.C,Sensor_3*%
X98974600Y-107890000D02*
X100304600Y-107890000D01*
X98974600Y-109220000D02*
X98974600Y-107890000D01*
X101574600Y-107890000D02*
X111794600Y-107890000D01*
X101574600Y-110550000D02*
X101574600Y-107890000D01*
X101574600Y-110550000D02*
X111794600Y-110550000D01*
X111794600Y-110550000D02*
X111794600Y-107890000D01*
%TO.C,R2*%
X155130000Y-88230000D02*
X155460000Y-88230000D01*
X155130000Y-94770000D02*
X155130000Y-88230000D01*
X155460000Y-94770000D02*
X155130000Y-94770000D01*
X157540000Y-94770000D02*
X157870000Y-94770000D01*
X157870000Y-88230000D02*
X157540000Y-88230000D01*
X157870000Y-94770000D02*
X157870000Y-88230000D01*
%TO.C,Sensor_12*%
X141773600Y-53365400D02*
X141773600Y-63585400D01*
X141773600Y-53365400D02*
X144433600Y-53365400D01*
X141773600Y-63585400D02*
X144433600Y-63585400D01*
X143103600Y-50765400D02*
X144433600Y-50765400D01*
X144433600Y-50765400D02*
X144433600Y-52095400D01*
X144433600Y-53365400D02*
X144433600Y-63585400D01*
%TO.C,Sensor_11*%
X131969200Y-53365400D02*
X131969200Y-63585400D01*
X131969200Y-53365400D02*
X134629200Y-53365400D01*
X131969200Y-63585400D02*
X134629200Y-63585400D01*
X133299200Y-50765400D02*
X134629200Y-50765400D01*
X134629200Y-50765400D02*
X134629200Y-52095400D01*
X134629200Y-53365400D02*
X134629200Y-63585400D01*
%TO.C,Sensor_5*%
X98974600Y-88281200D02*
X100304600Y-88281200D01*
X98974600Y-89611200D02*
X98974600Y-88281200D01*
X101574600Y-88281200D02*
X111794600Y-88281200D01*
X101574600Y-90941200D02*
X101574600Y-88281200D01*
X101574600Y-90941200D02*
X111794600Y-90941200D01*
X111794600Y-90941200D02*
X111794600Y-88281200D01*
%TO.C,Sensor_6*%
X98974600Y-78476800D02*
X100304600Y-78476800D01*
X98974600Y-79806800D02*
X98974600Y-78476800D01*
X101574600Y-78476800D02*
X111794600Y-78476800D01*
X101574600Y-81136800D02*
X101574600Y-78476800D01*
X101574600Y-81136800D02*
X111794600Y-81136800D01*
X111794600Y-81136800D02*
X111794600Y-78476800D01*
%TO.C,Arduino_2*%
X150308000Y-122605800D02*
X150308000Y-114925800D01*
X150308000Y-125205800D02*
X150308000Y-123875800D01*
X151638000Y-125205800D02*
X150308000Y-125205800D01*
X152968000Y-114925800D02*
X150308000Y-114925800D01*
X152968000Y-122605800D02*
X150308000Y-122605800D01*
X152968000Y-122605800D02*
X152968000Y-114925800D01*
%TO.C,Alimenta\u00E7\u00E3o2*%
X150170000Y-62930000D02*
X150170000Y-60330000D01*
X150170000Y-65530000D02*
X150170000Y-64200000D01*
X151500000Y-65530000D02*
X150170000Y-65530000D01*
X152830000Y-60330000D02*
X150170000Y-60330000D01*
X152830000Y-62930000D02*
X150170000Y-62930000D01*
X152830000Y-62930000D02*
X152830000Y-60330000D01*
%TO.C,Alimenta\u00E7\u00E3o1*%
X150308000Y-107162600D02*
X150308000Y-104562600D01*
X150308000Y-109762600D02*
X150308000Y-108432600D01*
X151638000Y-109762600D02*
X150308000Y-109762600D01*
X152968000Y-104562600D02*
X150308000Y-104562600D01*
X152968000Y-107162600D02*
X150308000Y-107162600D01*
X152968000Y-107162600D02*
X152968000Y-104562600D01*
%TO.C,Sensor_10*%
X122164800Y-53365400D02*
X122164800Y-63585400D01*
X122164800Y-53365400D02*
X124824800Y-53365400D01*
X122164800Y-63585400D02*
X124824800Y-63585400D01*
X123494800Y-50765400D02*
X124824800Y-50765400D01*
X124824800Y-50765400D02*
X124824800Y-52095400D01*
X124824800Y-53365400D02*
X124824800Y-63585400D01*
%TO.C,Sensor_8*%
X102556000Y-53365400D02*
X102556000Y-63585400D01*
X102556000Y-53365400D02*
X105216000Y-53365400D01*
X102556000Y-63585400D02*
X105216000Y-63585400D01*
X103886000Y-50765400D02*
X105216000Y-50765400D01*
X105216000Y-50765400D02*
X105216000Y-52095400D01*
X105216000Y-53365400D02*
X105216000Y-63585400D01*
%TO.C,Arduino_3*%
X150308000Y-75615800D02*
X150308000Y-67935800D01*
X150308000Y-78215800D02*
X150308000Y-76885800D01*
X151638000Y-78215800D02*
X150308000Y-78215800D01*
X152968000Y-67935800D02*
X150308000Y-67935800D01*
X152968000Y-75615800D02*
X150308000Y-75615800D01*
X152968000Y-75615800D02*
X152968000Y-67935800D01*
%TD*%
M02*
